<?xml version="1.0" standalone="no"?>
<!DOCTYPE svg PUBLIC "-//W3C//DTD SVG 1.1//EN" "http://www.w3.org/Graphics/SVG/1.1/DTD/svg11.dtd" >
<svg xmlns="http://www.w3.org/2000/svg" xmlns:xlink="http://www.w3.org/1999/xlink" version="1.1">
<metadata>
Created by FontForge 20170731 at Tue Jan  3 16:01:24 2023
 By Aleksey,,,
(c) Copyright David Jonathan Ross, 2017. All rights reserved.
</metadata>
<defs>
<font id="Roslindale-DisplayCondensedLight" horiz-adv-x="0" >
  <font-face 
    font-family="Roslindale Display Condensed Light Testing"
    font-weight="300"
    font-stretch="semi-condensed"
    units-per-em="2048"
    panose-1="0 0 0 0 0 0 0 0 0 0"
    ascent="1608"
    descent="-440"
    x-height="1022"
    cap-height="1536"
    bbox="-266.036 -700 1653 2392"
    underline-thickness="102"
    underline-position="-307"
    unicode-range="U+0020-FB01"
  />
<missing-glyph horiz-adv-x="1024" 
d="M102 -440v2048h820v-2048h-820zM205 -338h614v1843h-614v-1843z" />
    <glyph glyph-name=".notdef" horiz-adv-x="1024" 
d="M102 -440v2048h820v-2048h-820zM205 -338h614v1843h-614v-1843z" />
    <glyph glyph-name=".null" 
 />
    <glyph glyph-name="nonmarkingreturn" horiz-adv-x="682" 
 />
    <glyph glyph-name="space" unicode=" " horiz-adv-x="335" 
 />
    <glyph glyph-name="space" unicode="&#xa0;" horiz-adv-x="335" 
 />
    <glyph glyph-name="exclam" unicode="!" horiz-adv-x="505" 
d="M158 1444q0 54 26 92.5t70 38.5t69 -38.5t25 -92.5q0 -79 -20 -228t-40.5 -372.5t-21.5 -481.5h-26q-1 259 -21.5 482.5t-40.5 372t-20 227.5zM158 92q0 43 27.5 74t66.5 31q40 0 69 -31t29 -74t-29 -73.5t-69 -30.5q-39 0 -66.5 30.5t-27.5 73.5z" />
    <glyph glyph-name="quotedbl" unicode="&#x22;" horiz-adv-x="602" 
d="M106 1489q0 39 19 66.5t53 27.5q33 0 51.5 -27.5t18.5 -66.5q0 -36 -27.5 -139t-40.5 -193h-8q-13 87 -39.5 190.5t-26.5 141.5zM354 1489q0 39 19 66.5t53 27.5t53 -27.5t19 -66.5q0 -36 -27.5 -139t-40.5 -193h-10q-13 87 -39.5 190.5t-26.5 141.5z" />
    <glyph glyph-name="numbersign" unicode="#" horiz-adv-x="1085" 
d="M61 446v123h258l89 398h-256v123h284l99 446h38l-100 -446h254l100 446h39l-98 -446h254v-123h-283l-88 -398h283v-123h-309l-101 -446h-39l101 446h-254l-99 -446h-40l100 446h-232zM358 569h254l88 398h-254z" />
    <glyph glyph-name="dollar" unicode="$" horiz-adv-x="935" 
d="M35 211q0 45 25.5 74.5t64.5 29.5q43 0 65.5 -36.5t34.5 -104.5q12 -81 59 -117.5t138 -36.5h16v695q-45 20 -74 34t-69.5 37.5t-66.5 45.5t-54.5 55.5t-45 69.5t-27.5 85t-11 105q0 156 95.5 270t252.5 135v168h37v-164h29q68 0 124 -15.5t92 -39.5t61 -55t35.5 -61.5
t10.5 -59.5q0 -43 -24.5 -71.5t-63.5 -28.5q-43 0 -67 38.5t-29 102.5q-20 150 -168 150v-637q150 -70 162 -75q146 -77 202 -178q46 -83 46 -196q0 -172 -111.5 -295t-298.5 -149v-170h-37v166q-16 -2 -53 -2q-90 0 -160.5 23t-110 58.5t-59.5 74t-20 75.5zM203 1217
q0 -121 61 -193t174 -127v619q-106 -9 -170.5 -90t-64.5 -209zM774 354q0 59 -17.5 108t-41.5 81t-69 63.5t-78.5 48.5t-92.5 43v-675q135 18 217 113t82 218z" />
    <glyph glyph-name="percent" unicode="%" horiz-adv-x="1052" 
d="M295 936q-94 0 -163 94.5t-69 220.5q0 128 67.5 222t164.5 94q96 0 161.5 -93.5t65.5 -222.5t-66.5 -222t-160.5 -93zM195 0l649 1536h43l-645 -1536h-47zM295 969q61 0 93 73.5t32 208.5q0 134 -32 208.5t-93 74.5q-63 0 -95 -74t-32 -209t32.5 -208.5t94.5 -73.5z
M758 -31q-96 0 -163 93.5t-67 222.5q0 128 67.5 221.5t162.5 93.5q93 0 161 -94.5t68 -220.5q0 -128 -66 -222t-163 -94zM758 2q125 0 125 283q0 284 -125 284q-61 0 -92 -73.5t-31 -210.5q0 -134 31 -208.5t92 -74.5z" />
    <glyph glyph-name="ampersand" unicode="&#x26;" horiz-adv-x="1226" 
d="M856 203l-90 133q-59 -178 -169.5 -272.5t-240.5 -94.5q-136 0 -230.5 117.5t-94.5 298.5q0 123 52.5 231.5t130.5 178.5t171 108q-92 154 -92 283q0 167 100 272t262 105q79 0 137 -43.5t58 -106.5q0 -37 -22.5 -63.5t-57.5 -26.5q-33 0 -58 18t-40 43.5t-29.5 51
t-37 43.5t-52.5 18q-65 0 -108.5 -61.5t-43.5 -159.5q0 -88 32.5 -158.5t103.5 -173.5l254 -375q21 153 95.5 258t172.5 105q47 0 82 -31.5t35 -77.5q0 -39 -24 -61.5t-60 -22.5q-22 0 -42 12.5t-31.5 27.5t-27 27.5t-30.5 12.5q-42 0 -85 -80.5t-63 -203.5l225 -332
q100 -146 160 -197v-6h-344v6q42 34 41 88.5t-39 108.5zM410 866q-8 12 -15 19q-225 -133 -225 -432q0 -159 68 -257t186 -98q198 0 330 256z" />
    <glyph glyph-name="quotesingle" unicode="'" horiz-adv-x="354" 
d="M106 1489q0 39 19 66.5t53 27.5q33 0 51.5 -27.5t18.5 -66.5q0 -36 -27.5 -139t-40.5 -193h-8q-13 87 -39.5 190.5t-26.5 141.5z" />
    <glyph glyph-name="parenleft" unicode="(" horiz-adv-x="475" 
d="M463 -270q-71 65 -135 153t-124 208.5t-96 280t-36 333.5q0 166 36 324t95.5 280t125 214t134.5 156l4 -6q-131 -187 -185.5 -424.5t-54.5 -543.5q0 -304 54.5 -541.5t185.5 -427.5z" />
    <glyph glyph-name="parenright" unicode=")" horiz-adv-x="475" 
d="M12 -270l-4 6q130 190 185 428.5t55 540.5q0 304 -55 542.5t-185 425.5l4 6q69 -64 134 -156t124 -214t95 -280t36 -324q0 -174 -35.5 -333.5t-95.5 -280t-123.5 -208.5t-134.5 -153z" />
    <glyph glyph-name="asterisk" unicode="*" horiz-adv-x="630" 
d="M270 1042q0 21 17 101.5t22 118.5q-24 -20 -81 -75.5t-76 -66.5q-17 -13 -37.5 -10t-32.5 23q-20 39 24 67q19 11 93.5 34t107.5 36q-35 15 -109.5 38t-91.5 33q-20 11 -27 29t3 39q11 19 32 22t38 -8q19 -13 76.5 -69t80.5 -76q-5 39 -22 119.5t-17 101.5q0 22 12 37.5
t33 15.5q22 0 33.5 -15t11.5 -38q0 -22 -18 -102.5t-23 -116.5q29 23 86 78t74 65q17 11 38 8t32 -22q10 -21 2.5 -39t-27.5 -29q-18 -11 -93 -33.5t-107 -35.5q29 -11 75 -26t79 -26t46 -20q20 -11 27 -28.5t-2 -38.5q-12 -20 -32 -23t-38 10q-18 11 -74.5 67t-82.5 77
q5 -31 21.5 -114.5t16.5 -107.5q0 -22 -11.5 -37.5t-33.5 -15.5q-21 0 -33 15.5t-12 37.5z" />
    <glyph glyph-name="plus" unicode="+" horiz-adv-x="804" 
d="M66 713v41h313v331h45v-331h315v-41h-315v-334h-45v334h-313z" />
    <glyph glyph-name="comma" unicode="," horiz-adv-x="364" 
d="M279 76q0 -76 -55 -159.5t-156 -143.5l-2 2q106 122 131 239q-47 3 -79 31t-32 68q0 39 26.5 65.5t65.5 26.5q42 0 71.5 -36t29.5 -93z" />
    <glyph glyph-name="hyphen" unicode="-" horiz-adv-x="481" 
d="M66 569v41l350 82v-41z" />
    <glyph glyph-name="hyphen" unicode="&#x2011;" horiz-adv-x="481" 
d="M66 569v41l350 82v-41z" />
    <glyph glyph-name="hyphen" unicode="&#x2010;" horiz-adv-x="481" 
d="M66 569v41l350 82v-41z" />
    <glyph glyph-name="hyphen" unicode="&#xad;" horiz-adv-x="481" 
d="M66 569v41l350 82v-41z" />
    <glyph glyph-name="period" unicode="." horiz-adv-x="364" 
d="M180 -12q-39 0 -66.5 31.5t-27.5 76.5t27.5 77t66.5 32q41 0 70 -32t29 -77q0 -44 -29 -76t-70 -32z" />
    <glyph glyph-name="slash" unicode="/" horiz-adv-x="614" 
d="M522 1536l-389 -1751h-43l391 1751h41z" />
    <glyph glyph-name="zero" unicode="0" horiz-adv-x="1038" 
d="M57 768q0 213 61 396.5t168 293t234 109.5q126 0 232 -109t166.5 -292.5t60.5 -397.5q0 -213 -61 -397t-167 -293t-231 -109q-124 0 -231 109.5t-169.5 293.5t-62.5 396zM240 768q0 -360 72.5 -561t207.5 -201q136 0 207.5 200.5t71.5 561.5q0 367 -69 564.5t-210 197.5
t-210.5 -198t-69.5 -564z" />
    <glyph glyph-name="one" unicode="1" horiz-adv-x="382" 
d="M27 6q41 23 67.5 69.5t26.5 108.5v1106q0 97 -94 158v6q60 0 130 30.5t107 78.5h6v-1379q0 -64 27 -110.5t70 -67.5v-6h-340v6z" />
    <glyph glyph-name="two" unicode="2" horiz-adv-x="839" 
d="M782 1163q0 -80 -25 -167.5t-52 -155t-93.5 -164t-100 -144t-123.5 -147.5t-111.5 -122.5t-114.5 -117.5q-11 -12 -17 -18h322q107 0 184 55t150 166l8 -4l-70 -405h-10q-36 61 -129 61h-580v8l173 217q79 98 130.5 166.5t116.5 166.5t102.5 177.5t64 175t26.5 183.5
q0 147 -67 231t-193 84q-117 0 -201.5 -74t-132.5 -215l-10 4q36 213 144 328t257 115t250.5 -111.5t101.5 -292.5z" />
    <glyph glyph-name="three" unicode="3" horiz-adv-x="884" 
d="M375 6q137 0 231 101.5t94 267.5q0 57 -10.5 108.5t-39 103.5t-72.5 90.5t-116.5 65t-166.5 31.5v10q159 110 233 201.5t74 194.5q0 116 -67.5 176.5t-172.5 60.5q-193 0 -286 -227l-10 2q32 177 141 276t239 99q120 0 205.5 -84.5t85.5 -216.5q0 -112 -70 -204.5
t-196 -178.5q169 -26 272 -149t103 -290q0 -123 -66 -233.5t-175 -176t-230 -65.5q-86 0 -155.5 23.5t-111 60t-63.5 77.5t-22 79q0 43 24.5 73.5t63.5 30.5q43 0 68.5 -36t31.5 -101q8 -85 47 -127.5t117 -42.5z" />
    <glyph glyph-name="four" unicode="4" horiz-adv-x="968" 
d="M748 217q0 -150 112 -211v-6h-373v6q111 60 111 211v201h-578v18l705 1114h23v-1026h159v-106h-159v-201zM129 524h469v742z" />
    <glyph glyph-name="five" unicode="5" horiz-adv-x="870" 
d="M10 209q0 43 24 73.5t62 30.5q44 0 70 -36.5t31 -100.5q8 -86 46.5 -128t118.5 -42q136 0 225 105.5t89 291.5q0 253 -153.5 370t-403.5 63l-8 6l47 694h610l-10 -129h-570l-30 -418q129 23 234 6t185 -64t134.5 -117.5t82 -154.5t27.5 -174q0 -139 -59.5 -257.5
t-167 -188.5t-238.5 -70q-84 0 -153 23.5t-109.5 60t-62 77.5t-21.5 79z" />
    <glyph glyph-name="six" unicode="6" horiz-adv-x="987" 
d="M492 -31q-186 0 -310.5 179t-124.5 483q-2 165 58 324t163.5 283.5t245 215t299.5 127.5l2 -10q-468 -189 -585 -707q102 170 282 170q112 0 205 -72.5t145 -194.5t52 -265t-57 -265.5t-156.5 -195t-218.5 -72.5zM221 502q0 -233 70.5 -364.5t200.5 -131.5
q131 0 199.5 130t68.5 366q0 235 -66.5 361t-201.5 126t-203 -126.5t-68 -360.5z" />
    <glyph glyph-name="seven" unicode="7" horiz-adv-x="839" 
d="M879 1528l-97 -199q-47 -96 -98 -234.5t-103.5 -314.5t-90 -384t-46.5 -396h-163q53 376 202 779t312 630h-396q-198 0 -317 -221l-10 4l55 405h10q31 -61 127 -61h615v-8z" />
    <glyph glyph-name="eight" unicode="8" horiz-adv-x="968" 
d="M467 -31q-174 0 -293 103.5t-119 277.5q0 73 24.5 136.5t58 105.5t84 79.5t87.5 56.5t82 38q-47 32 -83 62t-72.5 70t-60 82t-38 96t-14.5 114q0 158 107 267.5t264 109.5q88 0 168 -40t132 -118t52 -176q0 -72 -30 -139.5t-76.5 -116t-91.5 -81.5t-87 -52l75 -49.5
t69.5 -49.5t68 -56.5t54.5 -60.5t46.5 -71t27 -78t11.5 -92q0 -115 -61.5 -212t-164 -151.5t-220.5 -54.5zM223 1274q0 -50 11.5 -94.5t36.5 -83.5t50.5 -69t68.5 -64t73.5 -55t81.5 -54q93 87 136.5 171t43.5 181q0 146 -63.5 234t-182.5 88q-114 0 -185 -72t-71 -182z
M180 371q0 -94 32.5 -174.5t103.5 -134.5t169 -54q140 0 225 88t85 207q0 47 -10.5 88.5t-35.5 78.5t-47.5 64.5t-66 61.5t-70 52.5t-80.5 54t-77 51.5q-228 -155 -228 -383z" />
    <glyph glyph-name="nine" unicode="9" horiz-adv-x="987" 
d="M496 1567q186 0 310 -178.5t124 -483.5q2 -165 -58 -324t-163.5 -283.5t-245 -215t-299.5 -127.5l-2 10q469 190 586 707q-102 -170 -283 -170q-112 0 -205 72.5t-145 194.5t-52 265q0 107 34 205t91.5 170t138 115t169.5 43zM766 1034q0 234 -70.5 365t-199.5 131
q-132 0 -200.5 -130.5t-68.5 -365.5t67 -361t202 -126t202.5 126.5t67.5 360.5z" />
    <glyph glyph-name="colon" unicode=":" horiz-adv-x="401" 
d="M201 643q-39 0 -67 32t-28 77q0 44 27.5 76t67.5 32q41 0 69.5 -31.5t28.5 -76.5t-28.5 -77t-69.5 -32zM201 -12q-40 0 -67.5 32t-27.5 76q0 45 28 77t67 32q41 0 69.5 -32t28.5 -77t-28.5 -76.5t-69.5 -31.5z" />
    <glyph glyph-name="semicolon" unicode=";" horiz-adv-x="401" 
d="M201 643q-39 0 -67 32t-28 77q0 44 27.5 76t67.5 32q41 0 69.5 -31.5t28.5 -76.5t-28.5 -77t-69.5 -32zM299 76q0 -76 -55 -159.5t-156 -143.5l-2 2q106 122 131 239q-47 3 -79 31t-32 68q0 39 27 65.5t66 26.5q42 0 71 -36t29 -93z" />
    <glyph glyph-name="less" unicode="&#x3c;" horiz-adv-x="804" 
d="M739 449v-48l-673 318v29l673 317v-47l-604 -285z" />
    <glyph glyph-name="equal" unicode="=" horiz-adv-x="804" 
d="M66 918v40h673v-40h-673zM66 508v41h673v-41h-673z" />
    <glyph glyph-name="greater" unicode="&#x3e;" horiz-adv-x="804" 
d="M66 446l606 287l-606 287v45l673 -317v-29l-673 -318v45z" />
    <glyph glyph-name="question" unicode="?" horiz-adv-x="837" 
d="M686 1188q0 157 -90.5 249.5t-228.5 92.5q-139 0 -172 -160q-23 -139 -105 -139q-36 0 -57 26t-21 64q0 93 98.5 169.5t258.5 76.5q182 0 311 -126.5t129 -314.5q0 -292 -324 -430q-92 -47 -130.5 -100t-37.5 -160l5 -74h-35l-13 132q-14 131 24.5 214.5t147.5 137.5
q117 46 178.5 133t61.5 209zM311 -12q-42 0 -69 30t-27 74t27 74.5t69 30.5q40 0 68.5 -31t28.5 -74t-28.5 -73.5t-68.5 -30.5z" />
    <glyph glyph-name="at" unicode="@" horiz-adv-x="1415" 
d="M59 494q0 161 32 319.5t94.5 298t147.5 246.5t200 169t243 62q127 0 233.5 -54t183.5 -154.5t120 -253.5t43 -343q0 -155 -35 -290t-102.5 -220.5t-153.5 -85.5q-67 0 -107 47.5t-45 120.5q-114 -176 -241 -176q-107 0 -180.5 108t-73.5 273q0 135 43 251.5t131.5 192.5
t204.5 76q107 0 176 -94l55 88h6v-702q0 -39 21 -73t59 -34q34 0 67.5 41.5t59 110t41.5 165t16 199.5q0 370 -140.5 570t-381.5 200q-97 0 -183 -41.5t-149.5 -113t-114.5 -164t-82.5 -197.5t-48 -210t-16.5 -205q0 -209 44.5 -375.5t123.5 -273t184.5 -162.5t231.5 -56
q45 0 89.5 9.5t95 31.5t99 65t87.5 103l10 -8q-28 -65 -69 -120.5t-98 -102.5t-134 -74t-164 -27q-110 0 -209 46t-173.5 127.5t-129.5 189.5t-83 236.5t-28 263.5zM911 383v528q0 66 -30 101t-84 35q-103 0 -174.5 -123.5t-71.5 -315.5q0 -157 50 -244.5t136 -87.5
q45 0 83 24.5t91 82.5z" />
    <glyph glyph-name="A" unicode="A" horiz-adv-x="1101" 
d="M121 258l411 1288h23l426 -1284q38 -116 74.5 -174t81.5 -82v-6h-369v6q47 22 62.5 88.5t-15.5 169.5l-92 291h-463l-90 -295q-27 -89 3 -159.5t85 -94.5v-6h-303v6q42 21 89 91t77 161zM272 596h437l-224 700z" />
    <glyph glyph-name="B" unicode="B" horiz-adv-x="1075" 
d="M150 1333q0 132 -97 176v7q231 40 410 40q230 0 365 -83.5t135 -241.5q0 -78 -32.5 -144.5t-88 -111t-122.5 -73.5t-142 -40q89 -12 170.5 -46.5t148.5 -89.5t107 -138t40 -182q0 -194 -145 -310t-414 -116q-183 0 -432 40v7q97 44 97 178v1128zM487 1520
q-91 0 -139.5 -42t-48.5 -120v-477h141q171 0 265 85t94 236q0 144 -87.5 231t-224.5 87zM299 178q0 -78 52 -120t147 -42q179 0 275.5 115.5t96.5 310.5q0 192 -111.5 296t-318.5 104h-141v-664z" />
    <glyph glyph-name="C" unicode="C" horiz-adv-x="987" 
d="M539 -31q-98 0 -186.5 56.5t-153.5 153.5t-103.5 235.5t-38.5 294.5q0 176 47.5 335.5t128 273.5t191.5 181.5t233 67.5q146 0 297 -70l-108 -352h-4q-24 179 -100 269.5t-187 90.5q-96 0 -176 -88t-126 -243.5t-46 -344.5q0 -204 47 -362.5t138 -249t214 -90.5
q239 0 348 297l11 -4q-21 -116 -64.5 -204.5t-101 -141.5t-123 -79t-137.5 -26z" />
    <glyph glyph-name="D" unicode="D" horiz-adv-x="1153" 
d="M453 -20q-182 0 -400 40v7q97 46 97 161v1160q0 49 -25 94t-72 67v7q238 40 367 40q216 0 368.5 -97.5t228 -271.5t75.5 -411q0 -197 -51.5 -352t-140.5 -250.5t-202.5 -144.5t-244.5 -49zM485 25q212 0 319 167.5t107 538.5q0 370 -113 576t-323 206q-90 0 -132 -44
t-42 -136v-1112q0 -93 47 -144.5t137 -51.5z" />
    <glyph glyph-name="E" unicode="E" horiz-adv-x="1007" 
d="M53 1536h680q98 0 135 61h6l39 -374l-8 -4q-62 94 -116.5 152t-131.5 95t-170 37q-106 0 -147 -42.5t-41 -139.5v-451h301q134 0 205 158h6v-360h-6q-92 163 -203 163h-303v-616q0 -180 209 -180q83 0 154 24t128.5 70t101 97t89.5 122l6 -4l-67 -405h-11q-37 61 -127 61
h-729v6q97 51 97 178v1168q0 134 -97 178v6z" />
    <glyph glyph-name="F" unicode="F" horiz-adv-x="919" 
d="M53 6q97 51 97 178v1168q0 134 -97 178v6h678q96 0 133 61h6l41 -374l-8 -4q-63 94 -118 152t-132 95t-170 37q-104 0 -143 -42.5t-39 -139.5v-451h295q134 0 205 158h6v-360h-6q-88 163 -203 163h-297v-647q0 -125 96 -178v-6h-344v6z" />
    <glyph glyph-name="G" unicode="G" horiz-adv-x="1126" 
d="M633 -20q-112 0 -214 50.5t-183.5 145t-130 245t-48.5 335.5q0 239 72 421.5t212 286t331 103.5q158 0 317 -64l-88 -309h-4q-26 148 -102 233.5t-201 85.5q-361 0 -361 -720q0 -381 101.5 -578t302.5 -197q95 0 147 53t52 146v561q0 129 -99 178v7h346v-7
q-96 -45 -96 -178v-588q0 -128 78 -163v-7q-222 -40 -432 -40z" />
    <glyph glyph-name="H" unicode="H" horiz-adv-x="1157" 
d="M397 0h-344v6q43 23 70 70t27 108v1168q0 56 -24.5 106t-72.5 72v6h344v-6q-47 -22 -71.5 -72.5t-24.5 -105.5v-385h551v385q0 55 -24.5 105.5t-69.5 72.5v6h344v-6q-47 -22 -72.5 -72.5t-25.5 -105.5v-1168q0 -61 27.5 -108t70.5 -70v-6h-344v6q41 23 67.5 70.5
t26.5 107.5v744h-551v-744q0 -61 26.5 -108t69.5 -70v-6z" />
    <glyph glyph-name="I" unicode="I" horiz-adv-x="456" 
d="M399 0h-344v6q44 22 70.5 68.5t26.5 109.5v1168q0 55 -25 105.5t-72 72.5v6h344v-6q-46 -22 -70 -72t-24 -106v-1168q0 -61 26.5 -108t67.5 -70v-6z" />
    <glyph glyph-name="J" unicode="J" horiz-adv-x="786" 
d="M319 -31q-81 0 -146.5 23.5t-103.5 60.5t-57.5 77.5t-19.5 78.5q0 44 25 75t63 31q44 0 69.5 -37t30.5 -102q8 -87 40.5 -127.5t103.5 -40.5q86 0 138 92.5t52 274.5v944q0 159 -111 211v6h359v-6q-96 -44 -96 -211v-944q0 -193 -99 -299.5t-248 -106.5z" />
    <glyph glyph-name="K" unicode="K" horiz-adv-x="1046" 
d="M397 0h-344v6q44 23 70.5 69t26.5 109v1168q0 58 -24.5 107t-72.5 71v6h344v-6q-48 -22 -73 -71t-25 -107v-633l420 555q56 76 55.5 148t-53.5 108v6h321v-6q-64 -40 -144.5 -116.5t-158.5 -178.5l-200 -264l391 -774q32 -64 69.5 -117t63.5 -72v-8h-326v8q36 30 46 62.5
t1 64.5t-36 84l-312 619l-137 -181v-473q0 -63 27 -109t71 -69v-6z" />
    <glyph glyph-name="L" unicode="L" horiz-adv-x="843" 
d="M655 0h-602v6q97 45 97 178v1168q0 129 -97 178v6h344v-6q-96 -49 -96 -178v-1137q0 -97 32.5 -139.5t117.5 -42.5q59 0 111.5 20.5t100 63t86 90t85.5 117.5l8 -5l-49 -380h-7q-34 61 -131 61z" />
    <glyph glyph-name="M" unicode="M" horiz-adv-x="1472" 
d="M442 1536l297 -1194l310 1194h258v-6q-46 -22 -70 -77.5t-18 -123.5l114 -1153q13 -124 94 -170v-6h-325v6q93 51 80 170l-123 1241l-375 -1437h-10l-361 1439l-125 -1196q-7 -82 15.5 -139.5t60.5 -77.5v-6h-221v6q89 48 104 217l113 1108q8 66 -16.5 121.5t-71.5 77.5
v6h270z" />
    <glyph glyph-name="N" unicode="N" horiz-adv-x="1071" 
d="M926 -41h-6l-725 1403v-1165q0 -132 102 -191v-6h-244v6q97 56 97 191v1122q0 67 -25 128t-72 83v6h234l596 -1178v981q0 62 -24 114.5t-77 76.5v6h234v-6q-44 -22 -67 -76t-23 -115v-1380z" />
    <glyph glyph-name="O" unicode="O" horiz-adv-x="1155" 
d="M57 768q0 215 65.5 397t185.5 292t270 110t269.5 -109.5t184 -291.5t64.5 -398q0 -215 -66 -397.5t-185.5 -292t-266.5 -109.5q-146 0 -266.5 110t-187.5 293t-67 396zM238 768q0 -360 88 -561t252 -201q165 0 251 200t86 562q0 366 -83.5 564t-253.5 198
q-169 0 -254.5 -199.5t-85.5 -562.5z" />
    <glyph glyph-name="P" unicode="P" horiz-adv-x="964" 
d="M53 1516q261 40 398 40q226 0 359.5 -131t133.5 -346q0 -99 -29 -183.5t-76 -142.5t-108 -99.5t-124.5 -61t-125.5 -19.5q-96 0 -182 39v-428q0 -133 98 -178v-6h-344v6q97 44 97 178v1164q0 115 -97 161v7zM299 1341v-704q70 -21 133 -21q156 0 251 116.5t95 324.5
q0 207 -85 335t-226 128q-168 0 -168 -179z" />
    <glyph glyph-name="Q" unicode="Q" horiz-adv-x="1155" 
d="M57 768q0 215 65.5 397t185.5 292t270 110t269.5 -109.5t184 -291.5t64.5 -398q0 -235 -78.5 -429.5t-212.5 -291.5q84 -170 205 -278l-2 -2q-161 62 -289 231q-73 -29 -141 -29q-146 0 -266.5 110t-187.5 293t-67 396zM543 336h159q24 -108 72 -223q141 185 141 655
q0 366 -83.5 564t-253.5 198q-169 0 -254.5 -199.5t-85.5 -562.5q0 -360 88 -561t252 -201q56 0 112 29q-90 132 -147 301z" />
    <glyph glyph-name="R" unicode="R" horiz-adv-x="1028" 
d="M53 1516q261 40 410 40q233 0 367.5 -119.5t134.5 -316.5q0 -93 -28.5 -172t-78 -134t-109.5 -91.5t-128 -54.5q186 -487 426 -727l-5 -7q-182 101 -339.5 289t-241.5 432q-86 9 -162 45v-516q0 -133 98 -178v-6h-344v6q97 44 97 178v1164q0 115 -97 161v7zM299 1333
v-608q96 -29 166 -29q155 0 243.5 105.5t88.5 296.5q0 192 -82.5 306t-229.5 114q-186 0 -186 -185z" />
    <glyph glyph-name="S" unicode="S" horiz-adv-x="944" 
d="M891 432q0 -197 -139 -330t-367 -133q-192 0 -391 88l112 344h11q5 -186 83 -287.5t222 -101.5q101 0 183 49.5t125.5 126.5t43.5 164q0 45 -10 84t-24.5 69t-41.5 58.5t-49.5 48t-61.5 42.5t-65 36t-71 35q-47 23 -76 38t-71 40.5t-68 48t-56 55.5t-46.5 67.5t-28 80
t-11.5 96.5q0 116 49 209.5t146.5 150t226.5 56.5q139 0 307 -41l-92 -336h-8q-6 156 -75 245t-187 89q-113 0 -181.5 -82.5t-68.5 -218.5q0 -67 23 -119.5t77 -95t93 -65.5t121 -63l12 -6q64 -31 105 -55t93.5 -64.5t82.5 -82.5t51.5 -104.5t21.5 -135.5z" />
    <glyph glyph-name="T" unicode="T" horiz-adv-x="952" 
d="M195 1536h563q90 0 127 61h6l74 -372l-11 -6q-73 128 -144 204t-144 76q-57 0 -85 -27.5t-28 -85.5v-1212q0 -105 88 -168v-6h-330v6q90 62 90 168v1212q0 59 -27 86t-87 27q-39 0 -78 -22t-76 -64t-67.5 -87t-65.5 -107l-12 6l73 372h9q30 -61 125 -61z" />
    <glyph glyph-name="U" unicode="U" horiz-adv-x="1122" 
d="M297 455q0 -186 92.5 -297t231.5 -111t224 104.5t85 297.5v841q0 79 -32.5 144t-96.5 96v6h286v-6q-56 -28 -84 -94t-28 -146v-841q0 -220 -110 -348t-292 -128q-190 0 -308 128t-118 348v903q0 135 -88 178v6h334v-6q-50 -25 -73 -66t-23 -112v-897z" />
    <glyph glyph-name="V" unicode="V" horiz-adv-x="1028" 
d="M924 1278l-396 -1288h-22l-408 1282q-38 120 -74.5 177t-84.5 81v6h405v-6q-140 -76 -80 -258l307 -1002l301 1006q28 87 -4 157t-82 97v6h291v-6q-95 -50 -153 -252z" />
    <glyph glyph-name="W" unicode="W" horiz-adv-x="1570" 
d="M1444 1278l-352 -1288h-23l-276 1032l-291 -1032h-25l-348 1286q-31 115 -65.5 174t-77.5 80v6h383v-6q-130 -70 -80 -258l254 -993l227 825l-47 172q-21 80 -49 134t-51.5 78t-55.5 42v6h383v-6q-32 -18 -51 -49t-25 -84t13 -125l248 -989l262 993q23 90 -10 158t-93 96
v6h305v-6q-101 -56 -155 -252z" />
    <glyph glyph-name="X" unicode="X" horiz-adv-x="1134" 
d="M0 0v6q44 24 108.5 102.5t106.5 153.5l287 520l-262 508q-103 197 -185 240v6h387v-6q-60 -26 -67.5 -90.5t37.5 -149.5l200 -387l217 389q48 91 39.5 151t-69.5 87v6h288v-6q-96 -43 -206 -242l-242 -438l305 -586q62 -121 104.5 -178t84.5 -80v-6h-383v6q53 27 62 91
t-40 167l-244 467l-258 -469q-42 -77 -35.5 -154t54.5 -102v-6h-289z" />
    <glyph glyph-name="Y" unicode="Y" horiz-adv-x="989" 
d="M578 174q0 -54 20 -94t70 -74v-6h-332v6q50 34 71 74t21 94v453l-303 645q-60 125 -95 180t-81 78v6h409v-6q-39 -17 -63.5 -53.5t-27.5 -89t26 -115.5l270 -576l256 580q35 93 11 160t-85 94v6h291v-6q-74 -40 -168 -252l-290 -645v-459z" />
    <glyph glyph-name="Z" unicode="Z" horiz-adv-x="942" 
d="M942 344l-70 -405h-8q-34 61 -129 61h-721v8l713 1495h-244q-131 0 -230.5 -69t-191.5 -215l-8 4l41 374h6q38 -61 138 -61h669v-6l-710 -1495h282q253 0 455 313z" />
    <glyph glyph-name="bracketleft" unicode="[" horiz-adv-x="403" 
d="M217 1604v-1794h160v-35h-297v1863h297v-34h-160z" />
    <glyph glyph-name="backslash" unicode="\" horiz-adv-x="614" 
d="M90 1536h43l389 -1751h-41z" />
    <glyph glyph-name="bracketright" unicode="]" horiz-adv-x="403" 
d="M184 1604h-157v34h295v-1863h-295v35h157v1794z" />
    <glyph glyph-name="asciicircum" unicode="^" horiz-adv-x="806" 
d="M145 1094l185 340q27 47 76 46t73 -46l187 -340l-9 -7l-249 242h-7l-249 -242z" />
    <glyph glyph-name="underscore" unicode="_" horiz-adv-x="804" 
d="M66 -209v41h673v-41h-673z" />
    <glyph glyph-name="grave" unicode="`" horiz-adv-x="1021" 
d="M393 1507q23 -26 81 -141.5t116 -208.5l-8 -6q-79 69 -183.5 147t-128.5 105q-23 28 -24 63t26 60q34 23 65 16t56 -35z" />
    <glyph glyph-name="a" unicode="a" horiz-adv-x="804" 
d="M37 197q0 138 132 255t376 164v242q0 77 -31 118.5t-88 41.5q-52 0 -88.5 -28.5t-56 -69t-37 -81.5t-42.5 -69.5t-61 -28.5q-27 0 -45 20t-18 50q0 55 53.5 112t138.5 93.5t170 36.5q113 0 178.5 -59t65.5 -158q0 -83 -3 -341.5t-3 -353.5q0 -52 14 -77t47 -25
q38 0 74 33l4 -6q-27 -42 -69.5 -69.5t-85.5 -27.5q-54 0 -87.5 40t-33.5 116v35h-2q-65 -82 -147.5 -135.5t-158.5 -53.5q-82 0 -139 65t-57 161zM182 242q0 -83 35 -128.5t100 -45.5q109 0 224 118q0 59 1 197.5t1 206.5q-106 -26 -179.5 -65t-111.5 -86.5t-54 -94.5
t-16 -102z" />
    <glyph glyph-name="b" unicode="b" horiz-adv-x="894" 
d="M168 92l-57 -104h-7v1366q0 120 -71 162v6q52 0 109 26t94 66h6v-658q0 -81 -2 -114h2q132 211 293 211q128 0 215.5 -132t87.5 -329q0 -93 -18.5 -182t-56.5 -167t-90.5 -136.5t-125 -92.5t-156.5 -34q-147 0 -223 112zM690 539q-1 188 -65 295.5t-168 109.5
q-60 0 -105.5 -27t-109.5 -98v-641q0 -83 38.5 -126.5t106.5 -43.5q129 0 216.5 150.5t86.5 380.5z" />
    <glyph glyph-name="c" unicode="c" horiz-adv-x="720" 
d="M498 1042q107 0 200 -49l-75 -307h-5q-21 146 -81 225.5t-134 79.5q-97 0 -159 -116t-62 -304q0 -135 29.5 -240.5t93.5 -171t156 -65.5q161 0 244 174l8 -4q-43 -142 -126 -218.5t-192 -76.5q-145 0 -246.5 137t-101.5 357q0 251 127 415t324 164z" />
    <glyph glyph-name="d" unicode="d" horiz-adv-x="901" 
d="M358 -33q-129 0 -217 133t-88 330q0 93 19 181.5t57 166t90.5 136t125 92.5t155.5 34q59 0 149 -24v338q0 115 -69 162v6q54 0 108.5 25.5t93.5 66.5h4v-1389q0 -125 72 -166v-6q-106 0 -203 -80h-6v93q0 44 4 106l-4 2q-141 -207 -291 -207zM438 78q57 0 103 27t108 92
v647q0 82 -39.5 125t-109.5 43q-126 0 -212 -149.5t-85 -379.5q1 -189 64.5 -297t170.5 -108z" />
    <glyph glyph-name="e" unicode="e" horiz-adv-x="798" 
d="M197 559q0 -128 30.5 -231t96.5 -168.5t157 -65.5q82 0 148 43.5t106 122.5l8 -4q-44 -137 -130.5 -212t-196.5 -75q-152 0 -257.5 134t-105.5 356q0 162 53 298.5t146 216t205 79.5q134 0 217.5 -115.5t83.5 -284.5v-28h-559q-2 -20 -2 -66zM420 1014q-83 0 -144 -91.5
t-75 -263.5h407q-2 163 -52.5 259t-135.5 96z" />
    <glyph glyph-name="f" unicode="f" horiz-adv-x="444" 
d="M59 6q82 65 82 162v811h-145v43h145v225q0 172 66.5 272.5t185.5 100.5q59 0 110.5 -35t51.5 -90q0 -33 -18 -54.5t-45 -21.5q-21 0 -37.5 13t-28.5 31.5t-25 36.5t-33.5 31t-48.5 13q-124 0 -124 -237v-2q0 -64 26 -150t58 -133h161v-43h-161v-813q0 -105 73 -160v-6
h-293v6z" />
    <glyph glyph-name="g" unicode="g" horiz-adv-x="868" 
d="M397 -440q-171 0 -278 56.5t-107 158.5q0 80 79.5 148t187.5 102q-165 54 -199 196l2 4q145 48 240 162q-104 29 -170 119t-66 205q0 137 93.5 236.5t226.5 99.5q131 0 225 -97q33 68 79 115t95 47q30 0 53 -25t23 -61q0 -37 -21.5 -61.5t-50.5 -24.5q-25 0 -52 25.5
t-42 25.5q-34 0 -72 -53q86 -96 86 -227q0 -138 -95 -237t-228 -99q-16 0 -44 4q-3 -3 -13.5 -13t-15 -14.5t-15 -14.5t-15.5 -16t-13 -15t-12.5 -16t-9 -15.5t-6.5 -16t-2 -14.5q0 -37 33.5 -60t86.5 -34.5t117.5 -20.5t129 -25t117.5 -40.5t86.5 -73t33.5 -117.5
q0 -93 -67 -166t-172.5 -110t-227.5 -37zM238 711q0 -139 43.5 -219t124.5 -80q82 0 128 80.5t46 218.5q0 142 -43.5 220.5t-130.5 78.5q-83 0 -125.5 -79.5t-42.5 -219.5zM133 -207q0 -93 77 -144.5t206 -51.5q137 2 233 64t96 155q0 49 -25 81t-74 49t-97.5 25.5
t-120 19.5t-117.5 23q-86 -33 -132 -92.5t-46 -128.5z" />
    <glyph glyph-name="h" unicode="h" horiz-adv-x="880" 
d="M43 6q72 59 72 154v1210q0 102 -74 146v6q54 0 110.5 25.5t94.5 66.5h6v-703q0 -73 -2 -98q71 102 160.5 171t173.5 69q83 0 132.5 -60t49.5 -155v-678q0 -95 68 -154v-6h-279v6q74 59 74 152v630q0 69 -32.5 111.5t-94.5 42.5q-47 0 -112 -37.5t-138 -116.5v-630
q0 -83 63 -152v-6h-272v6z" />
    <glyph glyph-name="i" unicode="i" horiz-adv-x="380" 
d="M182 1223q-38 0 -65 30.5t-27 73.5q0 44 27 75.5t65 31.5q40 0 68.5 -31.5t28.5 -75.5q0 -43 -28.5 -73.5t-68.5 -30.5zM55 0v6q70 45 70 158v624q0 127 -72 162v6q55 0 112 26.5t97 66.5h4v-885q0 -116 58 -158v-6h-269z" />
    <glyph glyph-name="j" unicode="j" horiz-adv-x="368" 
d="M88 1327q0 44 27 75.5t65 31.5q40 0 68 -31.5t28 -75.5q0 -43 -28 -73.5t-68 -30.5q-38 0 -65 30.5t-27 73.5zM-158 -299q0 36 19 61t49 25q28 0 46 -21t27.5 -46.5t34.5 -46.5t64 -21q53 0 89 53t36 125q0 55 -23 102.5t-61 67.5v788q0 126 -70 162v6q54 0 110.5 26.5
t96.5 66.5h4v-1147q0 -146 -71.5 -236t-188.5 -90q-69 0 -115.5 33.5t-46.5 91.5z" />
    <glyph glyph-name="k" unicode="k" horiz-adv-x="806" 
d="M252 1614v-1161l287 389q41 59 39 104t-46 70v6h279v-6q-137 -66 -236 -201l-141 -186l271 -482q35 -61 55.5 -88.5t50.5 -52.5v-6h-266v6q20 18 23 43t-3.5 45t-21.5 53l-199 363l-92 -123v-223q0 -113 63 -158v-6h-266v6q66 43 66 156v1192q0 114 -74 162v6
q55 0 111 26t92 66h8z" />
    <glyph glyph-name="l" unicode="l" horiz-adv-x="366" 
d="M254 1614v-1450q0 -114 65 -158v-6h-270v6q66 45 66 158v1190q0 114 -74 162v6q55 0 111.5 26t93.5 66h8z" />
    <glyph glyph-name="m" unicode="m" horiz-adv-x="1404" 
d="M45 6q80 64 80 158v641q0 58 -18.5 89.5t-61.5 55.5v6q57 0 115 25t98 68h4v-134q0 -75 -2 -100q72 101 162.5 169.5t171.5 68.5q84 0 134 -59.5t50 -153.5v-27q70 102 159.5 171t170.5 69q85 0 134.5 -60.5t49.5 -154.5v-674q0 -99 68 -158v-6h-279v6q74 57 74 156v626
q0 68 -32.5 111t-94.5 43q-49 0 -114 -35.5t-136 -113.5v-629q0 -99 68 -158v-6h-279v6q74 59 74 156v626q0 69 -32.5 111.5t-94.5 42.5q-115 0 -252 -149v-631q0 -97 74 -156v-6h-291v6z" />
    <glyph glyph-name="n" unicode="n" horiz-adv-x="890" 
d="M45 6q80 64 80 158v641q0 58 -18.5 89.5t-61.5 55.5v6q57 0 115 25t98 68h4v-134q0 -75 -2 -100h2q71 101 160.5 169.5t171.5 68.5q84 0 134 -60t50 -155v-674q0 -101 66 -158v-6h-277v6q74 62 74 156v626q0 69 -32.5 111.5t-94.5 42.5q-49 0 -114.5 -35.5t-137.5 -113.5
v-631q0 -94 74 -156v-6h-291v6z" />
    <glyph glyph-name="o" unicode="o" horiz-adv-x="876" 
d="M51 514q0 144 51.5 268t141 197.5t194.5 73.5q106 0 195 -73.5t139.5 -197t50.5 -268.5t-51.5 -270.5t-140.5 -200t-193 -74.5t-193.5 74.5t-141.5 200.5t-52 270zM211 514q0 -230 59.5 -371t167.5 -141q106 0 166 141t60 371q0 152 -24 263.5t-75.5 177t-126.5 65.5
q-74 0 -126 -65t-76.5 -177.5t-24.5 -263.5z" />
    <glyph glyph-name="p" unicode="p" horiz-adv-x="903" 
d="M45 -410v7q35 24 52.5 58.5t17.5 96.5v1036q0 66 -17 103t-57 59v6q53 0 109.5 26t93.5 67h6v-101v-106q139 211 295 211q128 0 215.5 -132t87.5 -329q0 -93 -19 -181.5t-57.5 -166t-91.5 -136t-126 -92.5t-157 -34q-59 0 -145 24v-254q0 -62 16.5 -96.5t50.5 -58.5v-7
h-274zM698 539q-1 190 -64.5 297.5t-170.5 107.5q-58 0 -105 -28t-106 -97v-641q0 -82 38 -125t107 -43q129 0 215.5 149t85.5 380z" />
    <glyph glyph-name="q" unicode="q" horiz-adv-x="888" 
d="M584 -410v7q65 59 65 155v314q0 77 2 108h-2q-139 -205 -293 -205q-128 0 -215.5 132t-87.5 329q0 117 30.5 226t86 195.5t142 138.5t190.5 52q145 0 221 -112l61 104h2v-1282q0 -93 72 -155v-7h-274zM438 78q57 0 103 27t108 92v647q0 83 -38 126.5t-107 43.5
q-128 0 -215 -150.5t-86 -380.5q1 -190 64.5 -297.5t170.5 -107.5z" />
    <glyph glyph-name="r" unicode="r" horiz-adv-x="595" 
d="M262 907q0 -17 -1 -48t-1 -38v-2q32 97 103 165.5t141 68.5q45 0 77.5 -32t32.5 -77q0 -39 -24 -64.5t-58 -25.5q-33 0 -73 36t-64 36q-67 0 -133 -138v-624q0 -94 74 -158v-6h-291v6q80 63 80 158v641q0 57 -18 89t-62 56v6q56 0 115 26t98 67h4v-142z" />
    <glyph glyph-name="s" unicode="s" horiz-adv-x="686" 
d="M659 301q0 -156 -104 -243t-264 -87q-127 0 -287 56l92 258h8q12 -132 75.5 -203.5t166.5 -71.5q93 0 149 58.5t56 158.5q0 46 -17 81t-53.5 61.5t-67 41.5t-84.5 38l-3 1.5t-3 1t-4 1.5q-45 19 -74 34t-65 41t-57 54t-36 70t-15 93q0 133 99 220.5t253 87.5
q78 0 178 -29l-55 -231h-6q-12 105 -63 162t-124 57q-81 0 -128.5 -59t-47.5 -142q0 -27 7 -50t16 -40.5t28.5 -34.5t34 -28t42.5 -25t44 -21.5t49 -21.5q41 -18 63.5 -28t58.5 -30t56 -40t41.5 -48t31 -64t9.5 -79z" />
    <glyph glyph-name="t" unicode="t" horiz-adv-x="512" 
d="M125 166v813h-127v10q188 83 264 299h6v-266h230v-43h-230v-799q0 -59 26.5 -92t76.5 -33q77 0 159 72l7 -6q-48 -66 -112.5 -109t-131.5 -43q-75 0 -121.5 52.5t-46.5 144.5z" />
    <glyph glyph-name="u" unicode="u" horiz-adv-x="882" 
d="M621 111q0 79 2 104h-2q-71 -104 -159 -175t-171 -71q-85 0 -133.5 59.5t-48.5 155.5v617q0 60 -17 93t-55 56v6q53 0 108.5 25.5t94.5 67.5h6v-816q0 -69 32 -111t95 -42q46 0 110.5 37t137.5 116v568q0 60 -16.5 93.5t-55.5 55.5v6q53 0 108.5 25.5t94.5 67.5h6v-844
q0 -59 18.5 -92.5t59.5 -57.5v-6q-124 0 -209 -76h-6v138z" />
    <glyph glyph-name="v" unicode="v" horiz-adv-x="724" 
d="M649 786l-209 -636l2 -3h-2l-55 -167h-27l-299 847q-32 91 -54.5 130t-51.5 59v6h305v-6q-41 -28 -55 -73.5t8 -115.5l213 -624l190 610q18 55 14 97.5t-17 67.5t-33 38v6h194v-6q-64 -44 -123 -230z" />
    <glyph glyph-name="w" unicode="w" horiz-adv-x="1198" 
d="M1124 791l-250 -811h-26l-246 684l-219 -684h-29l-301 854q-18 50 -28.5 76t-30.5 58.5t-43 47.5v6h297v-6q-42 -31 -53 -83t8 -102l213 -628l164 526l-41 117q-27 72 -50 111.5t-55 58.5v6h303v-6q-94 -63 -53 -182l221 -635l187 620q19 55 13.5 96.5t-19 64.5t-33.5 36
v6h192v-6q-65 -46 -121 -225z" />
    <glyph glyph-name="x" unicode="x" horiz-adv-x="800" 
d="M0 0v6q33 16 75 67.5t75 108.5l182 324l-182 344q-73 140 -125 166v6h315v-6q-45 -19 -54.5 -62.5t21.5 -103.5l129 -244l133 246q32 62 23 103.5t-53 60.5v6h219v-6q-65 -29 -144 -166l-155 -287l198 -379q77 -145 144 -178v-6h-309v6q36 18 40 62t-32 116l-148 281
l-157 -283q-29 -55 -21 -106.5t45 -69.5v-6h-219z" />
    <glyph glyph-name="y" unicode="y" horiz-adv-x="735" 
d="M61 -424q-73 0 -126.5 39t-53.5 92q0 34 20 58t50 24q31 0 49.5 -23t26.5 -50.5t29 -50.5t55 -23q67 0 123.5 73.5t97.5 206.5l26 78l-292 825q-32 91 -55.5 130t-53.5 61v6h305v-6q-92 -65 -47 -189l211 -614l201 612q40 123 -41 191v6h194v-6q-29 -15 -59 -73.5
t-51 -117.5l-301 -915q-56 -168 -130 -251t-178 -83z" />
    <glyph glyph-name="z" unicode="z" horiz-adv-x="722" 
d="M702 281l-34 -328h-11q-15 26 -42.5 36.5t-77.5 10.5h-517v6l476 979h-111q-125 0 -195.5 -57t-138.5 -189l-6 2l37 328h6q24 -47 123 -47h469v-6l-479 -979h159q118 0 200 68.5t132 177.5z" />
    <glyph glyph-name="braceleft" unicode="{" horiz-adv-x="464" 
d="M98 33q0 63 18.5 136.5t40 128.5t40 120t18.5 114q0 149 -158 154v47q158 11 158 162q0 49 -18.5 111.5t-40 115t-40 123.5t-18.5 133q0 112 80 186t197 74h37v-34h-35q-80 0 -128 -47t-48 -119q0 -52 25 -139t50 -185t25 -176q0 -93 -55 -152t-131 -69v-6
q79 -11 132.5 -71.5t53.5 -158.5q0 -78 -25 -178t-50 -188.5t-25 -139.5q0 -73 48 -120.5t128 -47.5h35v-34h-37q-117 0 -197 74t-80 186z" />
    <glyph glyph-name="bar" unicode="|" horiz-adv-x="536" 
d="M248 1536h39v-1751h-39v1751z" />
    <glyph glyph-name="braceright" unicode="}" horiz-adv-x="464" 
d="M367 33q0 -112 -83 -185t-196 -73h-39v32h37q81 0 128.5 47t47.5 121q0 51 -25 139.5t-50 188.5t-25 178q0 98 54 158.5t134 71.5v6q-77 10 -132.5 69t-55.5 152q0 78 25 176t50 185t25 139q0 72 -47.5 119t-128.5 47h-37v32h39q113 0 196 -73t83 -185q0 -62 -18.5 -133
t-41 -123.5t-41 -115t-18.5 -111.5q0 -151 155 -162v-47q-155 -5 -155 -154q0 -49 18.5 -114t41 -120t41 -128.5t18.5 -136.5z" />
    <glyph glyph-name="asciitilde" unicode="~" horiz-adv-x="806" 
d="M496 596q-34 0 -70 24t-60.5 52t-54 52t-53.5 24q-73 0 -98 -138l-8 2q7 118 49.5 180t111.5 62q35 0 71 -24t60.5 -53t54.5 -53t54 -24q73 0 94 142l8 -2q-15 -244 -159 -244z" />
    <glyph glyph-name="exclamdown" unicode="&#xa1;" horiz-adv-x="505" 
d="M352 1044q0 -43 -27.5 -73.5t-66.5 -30.5q-40 0 -69 30.5t-29 73.5t29 74t69 31q39 0 66.5 -31t27.5 -74zM352 -307q0 -54 -26 -92.5t-70 -38.5t-69 38.5t-25 92.5q0 79 20 227.5t40.5 372t21.5 481.5h26q1 -259 21.5 -482.5t40.5 -371.5t20 -227z" />
    <glyph glyph-name="cent" unicode="&#xa2;" horiz-adv-x="866" 
d="M57 709q0 234 105.5 405t273.5 209v213h37v-207q32 4 51 4q71 0 127.5 -22.5t88.5 -58t48.5 -73.5t16.5 -75q0 -43 -24 -73t-62 -30q-42 0 -66 37.5t-30 100.5q-12 149 -144 149h-6v-930q12 -2 37 -2q220 0 315 260l9 -4q-33 -194 -132 -295.5t-229 -111.5v-205h-37v203
q-159 5 -269 148.5t-110 357.5zM199 829q0 -181 62.5 -305.5t174.5 -156.5v917q-75 -15 -129.5 -81.5t-81 -163t-26.5 -210.5z" />
    <glyph glyph-name="sterling" unicode="&#xa3;" horiz-adv-x="937" 
d="M57 889h144q-66 142 -66 280q0 97 33 174t89.5 124t127.5 71.5t150 24.5q82 0 147.5 -23t102.5 -60t56 -77t19 -80q0 -45 -24.5 -74.5t-65.5 -29.5q-87 0 -100 149q-6 85 -38 121.5t-104 36.5q-110 0 -182 -81.5t-72 -227.5q0 -137 74 -328h291v-39h-277q73 -185 94 -270
q25 -102 25 -197q0 -51 -6 -98q18 -19 50 -55.5t52 -57.5t48.5 -45t57.5 -35.5t60 -11.5q66 0 112.5 44.5t68.5 121.5l10 -2q-20 -136 -87 -210.5t-161 -74.5q-75 0 -135.5 46t-122.5 128q-36 -74 -92.5 -113.5t-122.5 -39.5q-79 0 -136 62.5t-57 156.5q0 100 60.5 157.5
t155.5 57.5q92 0 180 -74q-1 71 -23 145t-44 120t-67 128t-63 117h-162v39zM180 362q-52 0 -88.5 -43t-36.5 -114q0 -82 46 -136.5t118 -54.5q65 0 110.5 42t67.5 118q-78 104 -108 133q-56 55 -109 55z" />
    <glyph glyph-name="yen" unicode="&#xa5;" horiz-adv-x="989" 
d="M188 346v39h240v166h-240v39h240v37l-303 645q-60 125 -95 180t-81 78v6h409v-6q-39 -17 -63.5 -53.5t-27.5 -89t26 -115.5l270 -576l256 580q35 93 11 160t-85 94v6h291v-6q-74 -40 -168 -252l-290 -645v-43h223v-39h-223v-166h223v-39h-223v-172q0 -54 20 -94t70 -74
v-6h-332v6q50 34 71 74t21 94v172h-240z" />
    <glyph glyph-name="brokenbar" unicode="&#xa6;" horiz-adv-x="536" 
d="M248 1536h39v-737h-39v737zM248 522h39v-737h-39v737z" />
    <glyph glyph-name="section" unicode="&#xa7;" horiz-adv-x="978" 
d="M457 -225q-156 0 -240 60.5t-84 139.5q0 39 23.5 69t62.5 30q45 0 72.5 -39.5t32.5 -102.5q6 -65 37 -91.5t118 -26.5q112 -1 175 73.5t63 186.5q0 70 -36 119.5t-93.5 78t-126.5 51t-138.5 47t-127 57t-93.5 90.5t-36 138q0 185 208 310q-118 87 -118 245
q0 87 42.5 165.5t126 129.5t189.5 51q150 0 231.5 -59.5t81.5 -136.5q0 -41 -25 -72t-67 -31t-67.5 40.5t-30.5 105.5q-6 63 -36 90t-112 27q-103 0 -164 -73.5t-61 -182.5q0 -55 22 -97.5t60 -70t86.5 -49t102.5 -38.5t107.5 -34.5t102 -42t86.5 -56.5t60 -81.5t22 -112.5
q0 -183 -204 -311q116 -85 116 -244q0 -139 -102.5 -245.5t-265.5 -106.5zM154 727q0 -65 35.5 -110t97.5 -72.5t128 -47.5t145 -49t130 -63q137 105 137 225q0 55 -26.5 96t-68 65.5t-99.5 47t-113.5 38.5t-119 41t-107.5 54q-139 -104 -139 -225z" />
    <glyph glyph-name="dieresis" unicode="&#xa8;" horiz-adv-x="1021" 
d="M377 1223q-38 0 -64 30t-26 72q0 43 26 74t64 31t65 -31t27 -74q0 -42 -27 -72t-65 -30zM647 1223q-36 0 -62 30t-26 72q0 43 25.5 74t62.5 31q38 0 65 -31t27 -74q0 -42 -27 -72t-65 -30z" />
    <glyph glyph-name="copyright" unicode="&#xa9;" horiz-adv-x="1304" 
d="M655 -31q-172 0 -308.5 103t-213 285t-76.5 409q0 228 76.5 411t213.5 286.5t308 103.5q127 0 237.5 -60.5t188 -166.5t122 -254.5t44.5 -319.5q0 -227 -75.5 -409t-211 -285t-305.5 -103zM655 6q162 0 289.5 101t196.5 274t69 385q0 213 -69 387t-196.5 275.5
t-289.5 101.5q-164 0 -292.5 -101.5t-198.5 -275.5t-70 -387q0 -212 70 -385t198.5 -274t292.5 -101zM727 1380q112 0 223 -53l-84 -266l-6 2q-17 127 -73 193.5t-136 66.5q-110 0 -185 -143.5t-75 -354.5q0 -234 79.5 -381t217.5 -147q178 0 262 225l8 -2
q-32 -173 -120 -258.5t-201 -85.5q-151 0 -258 160t-107 399q0 177 61 325.5t165.5 234t228.5 85.5z" />
    <glyph glyph-name="guillemotleft" unicode="&#xab;" horiz-adv-x="690" 
d="M377 201l-295 295q-33 36 -30 74t30 65l295 299l6 -6l-201 -359v-8l201 -354zM633 201l-295 295q-34 37 -31 74t31 65l295 299l4 -6l-201 -359v-8l201 -354z" />
    <glyph glyph-name="registered" unicode="&#xae;" horiz-adv-x="569" 
d="M285 915q-104 0 -173 93t-69 233t69 233t173 93q105 0 173 -93t68 -233t-68 -233t-173 -93zM285 940q96 0 157.5 87t61.5 214t-61.5 214t-157.5 87q-98 0 -158.5 -86.5t-60.5 -214.5t60.5 -214.5t158.5 -86.5zM170 1421q55 9 109 9q59 0 93 -28.5t34 -76.5
q0 -43 -22.5 -72.5t-55.5 -40.5q45 -116 98 -176l-4 -4q-48 22 -89.5 69t-62.5 107q-10 0 -22 6v-108q0 -35 22 -43v-8h-100v8q25 11 25 43v268q0 31 -25 45v2zM248 1368v-139q20 -4 24 -4q36 0 56 23.5t20 68.5t-17.5 71.5t-49.5 26.5q-33 0 -33 -47z" />
    <glyph glyph-name="macron" unicode="&#xaf;" horiz-adv-x="1021" 
d="M295 1278v70h434v-70h-434z" />
    <glyph glyph-name="macron" unicode="&#x2c9;" horiz-adv-x="1021" 
d="M295 1278v70h434v-70h-434z" />
    <glyph glyph-name="degree" unicode="&#xb0;" horiz-adv-x="507" 
d="M254 948q-92 0 -151.5 88t-59.5 221t59.5 221.5t151.5 88.5t152.5 -88.5t60.5 -221.5q0 -132 -60.5 -220.5t-152.5 -88.5zM254 985q77 0 124.5 79.5t47.5 192.5t-47.5 193t-124.5 80t-125.5 -80t-48.5 -193q0 -112 48.5 -192t125.5 -80z" />
    <glyph glyph-name="acute" unicode="&#xb4;" horiz-adv-x="1021" 
d="M600 1507q27 29 57 36t62 -17q27 -24 27 -60t-25 -63q-23 -27 -126.5 -105t-182.5 -149l-9 6q63 96 119.5 212t77.5 140z" />
    <glyph glyph-name="paragraph" unicode="&#xb6;" horiz-adv-x="1019" 
d="M500 -225q-86 0 -155.5 22.5t-110 58t-61.5 74t-21 74.5q0 41 25 69.5t65 28.5q44 0 69.5 -34t30.5 -93q8 -83 45.5 -123t118.5 -40q94 0 150.5 92t56.5 272v338q-64 -33 -162 -33q-70 0 -139 21t-131 65.5t-109.5 106.5t-75.5 150.5t-28 191.5q0 246 136 393t353 147
q140 0 401 -40v-7q-96 -49 -96 -161v-1172q0 -192 -102.5 -296.5t-259.5 -104.5z" />
    <glyph glyph-name="periodcentered" unicode="&#xb7;" horiz-adv-x="364" 
d="M180 565q-39 0 -66.5 32t-27.5 77t27.5 76.5t66.5 31.5q41 0 70 -32t29 -76q0 -45 -29 -77t-70 -32z" />
    <glyph glyph-name="periodcentered" unicode="&#x2219;" horiz-adv-x="364" 
d="M180 565q-39 0 -66.5 32t-27.5 77t27.5 76.5t66.5 31.5q41 0 70 -32t29 -76q0 -45 -29 -77t-70 -32z" />
    <glyph glyph-name="cedilla" unicode="&#xb8;" horiz-adv-x="1021" 
d="M457 -182l41 196l28 -4l-22 -88q85 -8 143 -57.5t58 -122.5q0 -80 -67 -133t-159 -53q-90 0 -148.5 31.5t-58.5 80.5q0 27 16 46.5t44 19.5q27 0 46.5 -20.5t27.5 -53.5q27 -78 88 -78q45 0 76.5 30t31.5 83q0 116 -141 123h-4z" />
    <glyph glyph-name="guillemotright" unicode="&#xbb;" horiz-adv-x="690" 
d="M315 201l-6 6l201 354v8l-201 359l6 6l295 -299q27 -27 30 -65t-30 -74zM59 201l-4 6l201 354v8l-201 359l4 6l297 -299q26 -28 28.5 -65t-28.5 -74z" />
    <glyph glyph-name="questiondown" unicode="&#xbf;" horiz-adv-x="837" 
d="M526 1149q42 0 69.5 -30.5t27.5 -74.5q0 -43 -27.5 -73.5t-69.5 -30.5q-40 0 -68 30.5t-28 73.5t28 74t68 31zM152 -51q0 -157 90.5 -249.5t228.5 -92.5q139 0 172 160q23 139 105 139q36 0 56.5 -26t20.5 -64q0 -93 -98 -169.5t-258 -76.5q-182 0 -311 126t-129 314
q0 292 323 430q92 47 130.5 100t37.5 160l-4 74h35l12 -131q14 -131 -24.5 -214.5t-147.5 -137.5q-116 -46 -177.5 -133t-61.5 -209z" />
    <glyph glyph-name="Agrave" unicode="&#xc0;" horiz-adv-x="1101" 
d="M432 2017q23 -26 81 -141.5t116 -208.5l-8 -6q-79 69 -183.5 147t-128.5 105q-23 28 -24 63t26 60q34 23 65 16t56 -35zM121 258l411 1288h23l426 -1284q38 -116 74.5 -174t81.5 -82v-6h-369v6q47 22 62.5 88.5t-15.5 169.5l-92 291h-463l-90 -295q-27 -89 3 -159.5
t85 -94.5v-6h-303v6q42 21 89 91t77 161zM272 596h437l-224 700z" />
    <glyph glyph-name="Aacute" unicode="&#xc1;" horiz-adv-x="1101" 
d="M639 2017q27 29 57 36t62 -17q27 -24 27 -60t-25 -63q-23 -27 -126.5 -105t-182.5 -149l-9 6q63 96 119.5 212t77.5 140zM121 258l411 1288h23l426 -1284q38 -116 74.5 -174t81.5 -82v-6h-369v6q47 22 62.5 88.5t-15.5 169.5l-92 291h-463l-90 -295q-27 -89 3 -159.5
t85 -94.5v-6h-303v6q42 21 89 91t77 161zM272 596h437l-224 700z" />
    <glyph glyph-name="Acircumflex" unicode="&#xc2;" horiz-adv-x="1101" 
d="M291 1661l186 340q27 47 75.5 46t72.5 -46l186 -340l-8 -6l-250 241h-4l-250 -241zM121 258l411 1288h23l426 -1284q38 -116 74.5 -174t81.5 -82v-6h-369v6q47 22 62.5 88.5t-15.5 169.5l-92 291h-463l-90 -295q-27 -89 3 -159.5t85 -94.5v-6h-303v6q42 21 89 91t77 161z
M272 596h437l-224 700z" />
    <glyph glyph-name="Atilde" unicode="&#xc3;" horiz-adv-x="1101" 
d="M643 1720q-34 0 -70 24t-60.5 52t-55 52t-54.5 24q-75 0 -96 -137l-10 2q9 118 52 179.5t112 61.5q34 0 69.5 -24t60.5 -52.5t55 -52.5t54 -24q75 0 93 141l10 -2q-18 -244 -160 -244zM121 258l411 1288h23l426 -1284q38 -116 74.5 -174t81.5 -82v-6h-369v6
q47 22 62.5 88.5t-15.5 169.5l-92 291h-463l-90 -295q-27 -89 3 -159.5t85 -94.5v-6h-303v6q42 21 89 91t77 161zM272 596h437l-224 700z" />
    <glyph glyph-name="Adieresis" unicode="&#xc4;" horiz-adv-x="1101" 
d="M416 1733q-38 0 -64 30t-26 72q0 43 26 73.5t64 30.5t65 -30.5t27 -73.5q0 -42 -27 -72t-65 -30zM686 1733q-36 0 -62 30t-26 72q0 43 25.5 73.5t62.5 30.5q38 0 65 -30.5t27 -73.5q0 -42 -27 -72t-65 -30zM121 258l411 1288h23l426 -1284q38 -116 74.5 -174t81.5 -82v-6
h-369v6q47 22 62.5 88.5t-15.5 169.5l-92 291h-463l-90 -295q-27 -89 3 -159.5t85 -94.5v-6h-303v6q42 21 89 91t77 161zM272 596h437l-224 700z" />
    <glyph glyph-name="Aring" unicode="&#xc5;" horiz-adv-x="1101" 
d="M344 1896q0 94 59.5 162t147.5 68q87 0 146 -67.5t59 -162.5q0 -94 -59.5 -161.5t-145.5 -67.5q-84 0 -145.5 68t-61.5 161zM449 1896q0 -95 26 -147.5t76 -52.5q100 0 100 200q0 201 -100 201q-102 0 -102 -201zM121 258l411 1288h23l426 -1284q38 -116 74.5 -174
t81.5 -82v-6h-369v6q47 22 62.5 88.5t-15.5 169.5l-92 291h-463l-90 -295q-27 -89 3 -159.5t85 -94.5v-6h-303v6q42 21 89 91t77 161zM272 596h437l-224 700z" />
    <glyph glyph-name="AE" unicode="&#xc6;" horiz-adv-x="1495" 
d="M-70 0v6q38 20 87.5 91.5t86.5 160.5l494 1217q-27 35 -72 55v6h695q98 0 135 61h6l39 -374l-6 -4q-93 142 -188.5 213t-229.5 71q-107 0 -148 -42.5t-41 -139.5v-451h299q133 0 207 158h4v-360h-4q-95 163 -204 163h-302v-616q0 -180 207 -180q83 0 154 24t128.5 70
t101 97t89.5 122l9 -4l-70 -405h-10q-34 61 -127 61h-727v6q96 53 96 178v305h-399l-93 -229q-34 -83 0 -152.5t89 -101.5v-6h-306zM639 1335q0 58 -18 101l-365 -906h383v805z" />
    <glyph glyph-name="Ccedilla" unicode="&#xc7;" horiz-adv-x="987" 
d="M502 -182l30 151q-130 2 -238.5 98t-172.5 265.5t-64 376.5q0 176 47.5 335.5t128 273.5t191.5 181.5t233 67.5q146 0 297 -70l-108 -352h-4q-24 179 -100 269.5t-187 90.5q-96 0 -176 -88t-126 -243.5t-46 -344.5q0 -204 47 -362.5t138 -249t214 -90.5q239 0 348 297
l11 -4q-21 -112 -62 -198t-96 -139.5t-117 -81.5t-131 -32l-10 -47q85 -8 143 -57.5t58 -122.5q0 -80 -68 -133t-160 -53q-90 0 -148.5 31.5t-58.5 80.5q0 27 16 46.5t44 19.5q27 0 47 -20.5t29 -53.5q23 -78 86 -78q45 0 76.5 30t31.5 83q0 116 -139 123h-4z" />
    <glyph glyph-name="Egrave" unicode="&#xc8;" horiz-adv-x="1007" 
d="M389 2021q24 -27 82 -142.5t115 -207.5l-8 -6q-79 68 -182 146t-128 106q-24 27 -24.5 63t26.5 60q33 23 63.5 16t55.5 -35zM53 1536h680q98 0 135 61h6l39 -374l-8 -4q-62 94 -116.5 152t-131.5 95t-170 37q-106 0 -147 -42.5t-41 -139.5v-451h301q134 0 205 158h6v-360
h-6q-92 163 -203 163h-303v-616q0 -180 209 -180q83 0 154 24t128.5 70t101 97t89.5 122l6 -4l-67 -405h-11q-37 61 -127 61h-729v6q97 51 97 178v1168q0 134 -97 178v6z" />
    <glyph glyph-name="Eacute" unicode="&#xc9;" horiz-adv-x="1007" 
d="M596 2021q27 29 57 36t62 -17q27 -24 27.5 -60.5t-23.5 -62.5q-23 -26 -126.5 -104t-184.5 -150l-9 6q63 96 119.5 212t77.5 140zM53 1536h680q98 0 135 61h6l39 -374l-8 -4q-62 94 -116.5 152t-131.5 95t-170 37q-106 0 -147 -42.5t-41 -139.5v-451h301q134 0 205 158h6
v-360h-6q-92 163 -203 163h-303v-616q0 -180 209 -180q83 0 154 24t128.5 70t101 97t89.5 122l6 -4l-67 -405h-11q-37 61 -127 61h-729v6q97 51 97 178v1168q0 134 -97 178v6z" />
    <glyph glyph-name="Ecircumflex" unicode="&#xca;" horiz-adv-x="1007" 
d="M248 1665l186 340q27 47 76 46t74 -46l184 -340l-6 -6l-252 242h-4l-250 -242zM53 1536h680q98 0 135 61h6l39 -374l-8 -4q-62 94 -116.5 152t-131.5 95t-170 37q-106 0 -147 -42.5t-41 -139.5v-451h301q134 0 205 158h6v-360h-6q-92 163 -203 163h-303v-616
q0 -180 209 -180q83 0 154 24t128.5 70t101 97t89.5 122l6 -4l-67 -405h-11q-37 61 -127 61h-729v6q97 51 97 178v1168q0 134 -97 178v6z" />
    <glyph glyph-name="Edieresis" unicode="&#xcb;" horiz-adv-x="1007" 
d="M373 1737q-38 0 -64 30t-26 72q0 43 26 74t64 31t65 -31t27 -74q0 -42 -27 -72t-65 -30zM645 1737q-38 0 -64 30t-26 72q0 43 26 74t64 31t65 -31t27 -74q0 -42 -27 -72t-65 -30zM53 1536h680q98 0 135 61h6l39 -374l-8 -4q-62 94 -116.5 152t-131.5 95t-170 37
q-106 0 -147 -42.5t-41 -139.5v-451h301q134 0 205 158h6v-360h-6q-92 163 -203 163h-303v-616q0 -180 209 -180q83 0 154 24t128.5 70t101 97t89.5 122l6 -4l-67 -405h-11q-37 61 -127 61h-729v6q97 51 97 178v1168q0 134 -97 178v6z" />
    <glyph glyph-name="Igrave" unicode="&#xcc;" horiz-adv-x="456" 
d="M109 2021q24 -27 81 -142.5t115 -207.5l-6 -6q-66 56 -136.5 110t-112 86.5t-62.5 55.5q-23 28 -24 63t26 60q34 23 65 16t54 -35zM399 0h-344v6q44 22 70.5 68.5t26.5 109.5v1168q0 55 -25 105.5t-72 72.5v6h344v-6q-46 -22 -70 -72t-24 -106v-1168q0 -61 26.5 -108
t67.5 -70v-6z" />
    <glyph glyph-name="Iacute" unicode="&#xcd;" horiz-adv-x="456" 
d="M317 2021q25 29 56.5 36t62.5 -17q27 -24 27 -60t-25 -63q-23 -27 -127 -105t-184 -149l-6 6q50 75 89.5 153t63.5 127.5t43 71.5zM399 0h-344v6q44 22 70.5 68.5t26.5 109.5v1168q0 55 -25 105.5t-72 72.5v6h344v-6q-46 -22 -70 -72t-24 -106v-1168q0 -61 26.5 -108
t67.5 -70v-6z" />
    <glyph glyph-name="Icircumflex" unicode="&#xce;" horiz-adv-x="456" 
d="M-31 1665l185 340q27 47 76 46t73 -46l186 -340l-8 -6l-250 242h-4l-252 -242zM399 0h-344v6q44 22 70.5 68.5t26.5 109.5v1168q0 55 -25 105.5t-72 72.5v6h344v-6q-46 -22 -70 -72t-24 -106v-1168q0 -61 26.5 -108t67.5 -70v-6z" />
    <glyph glyph-name="Idieresis" unicode="&#xcf;" horiz-adv-x="456" 
d="M92 1737q-36 0 -62 30t-26 72q0 43 25.5 74t62.5 31q38 0 65 -31t27 -74q0 -42 -27 -72t-65 -30zM365 1737q-38 0 -64.5 30t-26.5 72q0 43 26.5 74t64.5 31t65 -31t27 -74q0 -42 -27 -72t-65 -30zM399 0h-344v6q44 22 70.5 68.5t26.5 109.5v1168q0 55 -25 105.5t-72 72.5
v6h344v-6q-46 -22 -70 -72t-24 -106v-1168q0 -61 26.5 -108t67.5 -70v-6z" />
    <glyph glyph-name="Eth" unicode="&#xd0;" horiz-adv-x="1153" 
d="M453 -20q-182 0 -400 40v7q97 46 97 161v740h-111v39h111v381q0 49 -25 94t-72 67v7q238 40 367 40q216 0 368.5 -97.5t228 -271.5t75.5 -411q0 -197 -51.5 -352t-140.5 -250.5t-202.5 -144.5t-244.5 -49zM485 25q212 0 319 167.5t107 538.5q0 370 -113 576t-323 206
q-90 0 -132 -44t-42 -136v-366h262v-39h-262v-707q0 -93 47 -144.5t137 -51.5z" />
    <glyph glyph-name="Ntilde" unicode="&#xd1;" horiz-adv-x="1071" 
d="M664 1704q-34 0 -70 23.5t-60.5 52t-55 52t-54.5 23.5q-75 0 -96 -137l-11 2q9 118 52 180t112 62q34 0 70 -24t60.5 -53t55 -53t54.5 -24q74 0 92 142l10 -2q-18 -244 -159 -244zM926 -41h-6l-725 1403v-1165q0 -132 102 -191v-6h-244v6q97 56 97 191v1122q0 67 -25 128
t-72 83v6h234l596 -1178v981q0 62 -24 114.5t-77 76.5v6h234v-6q-44 -22 -67 -76t-23 -115v-1380z" />
    <glyph glyph-name="Ograve" unicode="&#xd2;" horiz-adv-x="1155" 
d="M457 2021q24 -27 81 -142.5t115 -207.5l-6 -6q-66 56 -136.5 110t-112 86.5t-62.5 55.5q-24 27 -24.5 63t26.5 60q34 23 65 16t54 -35zM57 768q0 215 65.5 397t185.5 292t270 110t269.5 -109.5t184 -291.5t64.5 -398q0 -215 -66 -397.5t-185.5 -292t-266.5 -109.5
q-146 0 -266.5 110t-187.5 293t-67 396zM238 768q0 -360 88 -561t252 -201q165 0 251 200t86 562q0 366 -83.5 564t-253.5 198q-169 0 -254.5 -199.5t-85.5 -562.5z" />
    <glyph glyph-name="Oacute" unicode="&#xd3;" horiz-adv-x="1155" 
d="M666 2021q26 29 55.5 36t62.5 -17q27 -26 26.5 -61t-24.5 -62q-23 -27 -127 -105t-184 -149l-6 6q61 95 118.5 211t78.5 141zM57 768q0 215 65.5 397t185.5 292t270 110t269.5 -109.5t184 -291.5t64.5 -398q0 -215 -66 -397.5t-185.5 -292t-266.5 -109.5
q-146 0 -266.5 110t-187.5 293t-67 396zM238 768q0 -360 88 -561t252 -201q165 0 251 200t86 562q0 366 -83.5 564t-253.5 198q-169 0 -254.5 -199.5t-85.5 -562.5z" />
    <glyph glyph-name="Ocircumflex" unicode="&#xd4;" horiz-adv-x="1155" 
d="M317 1665l185 340q27 47 76 46t73 -46l187 -340l-9 -6l-249 242h-7l-249 -242zM57 768q0 215 65.5 397t185.5 292t270 110t269.5 -109.5t184 -291.5t64.5 -398q0 -215 -66 -397.5t-185.5 -292t-266.5 -109.5q-146 0 -266.5 110t-187.5 293t-67 396zM238 768
q0 -360 88 -561t252 -201q165 0 251 200t86 562q0 366 -83.5 564t-253.5 198q-169 0 -254.5 -199.5t-85.5 -562.5z" />
    <glyph glyph-name="Otilde" unicode="&#xd5;" horiz-adv-x="1155" 
d="M668 1724q-34 0 -69.5 24t-60.5 52t-54.5 52t-53.5 24q-75 0 -96 -137l-10 2q7 118 50 179.5t113 61.5q34 0 69.5 -24t60 -52.5t55 -52.5t55.5 -24q71 0 92 141l10 -2q-18 -244 -161 -244zM57 768q0 215 65.5 397t185.5 292t270 110t269.5 -109.5t184 -291.5t64.5 -398
q0 -215 -66 -397.5t-185.5 -292t-266.5 -109.5q-146 0 -266.5 110t-187.5 293t-67 396zM238 768q0 -360 88 -561t252 -201q165 0 251 200t86 562q0 366 -83.5 564t-253.5 198q-169 0 -254.5 -199.5t-85.5 -562.5z" />
    <glyph glyph-name="Odieresis" unicode="&#xd6;" horiz-adv-x="1155" 
d="M440 1737q-38 0 -64 30t-26 72q0 43 26 74t64 31t65 -31t27 -74q0 -42 -27 -72t-65 -30zM713 1737q-38 0 -64 30t-26 72q0 43 26 74t64 31t65 -31t27 -74q0 -42 -27 -72t-65 -30zM57 768q0 215 65.5 397t185.5 292t270 110t269.5 -109.5t184 -291.5t64.5 -398
q0 -215 -66 -397.5t-185.5 -292t-266.5 -109.5q-146 0 -266.5 110t-187.5 293t-67 396zM238 768q0 -360 88 -561t252 -201q165 0 251 200t86 562q0 366 -83.5 564t-253.5 198q-169 0 -254.5 -199.5t-85.5 -562.5z" />
    <glyph glyph-name="multiply" unicode="&#xd7;" horiz-adv-x="804" 
d="M129 475l242 256l-258 258l30 31l258 -256l242 254l33 -31l-242 -256l256 -254l-33 -33l-254 254l-243 -254z" />
    <glyph glyph-name="Oslash" unicode="&#xd8;" horiz-adv-x="1155" 
d="M57 768q0 215 65.5 397t185.5 292t270 110q70 0 143 -29l31 141h43l-35 -159q154 -84 245 -289.5t91 -462.5q0 -215 -66 -397.5t-185.5 -292t-266.5 -109.5q-67 0 -140 27l-32 -160h-46l37 180q-152 85 -246 292t-94 460zM238 768q0 -521 174 -692l299 1413
q-59 41 -133 41q-169 0 -254.5 -199.5t-85.5 -562.5zM915 768q0 529 -167 690l-299 -1413q61 -39 129 -39q165 0 251 200t86 562z" />
    <glyph glyph-name="Ugrave" unicode="&#xd9;" horiz-adv-x="1122" 
d="M473 2021q24 -27 82 -142.5t115 -207.5l-8 -6q-79 68 -182 146t-128 106q-24 27 -24.5 63t26.5 60q33 23 63.5 16t55.5 -35zM297 455q0 -186 92.5 -297t231.5 -111t224 104.5t85 297.5v841q0 79 -32.5 144t-96.5 96v6h286v-6q-56 -28 -84 -94t-28 -146v-841
q0 -220 -110 -348t-292 -128q-190 0 -308 128t-118 348v903q0 135 -88 178v6h334v-6q-50 -25 -73 -66t-23 -112v-897z" />
    <glyph glyph-name="Uacute" unicode="&#xda;" horiz-adv-x="1122" 
d="M680 2021q27 29 57 36t62 -17q27 -24 27.5 -60.5t-23.5 -62.5q-23 -26 -126.5 -104t-184.5 -150l-9 6q63 96 119.5 212t77.5 140zM297 455q0 -186 92.5 -297t231.5 -111t224 104.5t85 297.5v841q0 79 -32.5 144t-96.5 96v6h286v-6q-56 -28 -84 -94t-28 -146v-841
q0 -220 -110 -348t-292 -128q-190 0 -308 128t-118 348v903q0 135 -88 178v6h334v-6q-50 -25 -73 -66t-23 -112v-897z" />
    <glyph glyph-name="Ucircumflex" unicode="&#xdb;" horiz-adv-x="1122" 
d="M332 1665l186 340q27 47 76 46t74 -46l184 -340l-6 -6l-252 242h-4l-250 -242zM297 455q0 -186 92.5 -297t231.5 -111t224 104.5t85 297.5v841q0 79 -32.5 144t-96.5 96v6h286v-6q-56 -28 -84 -94t-28 -146v-841q0 -220 -110 -348t-292 -128q-190 0 -308 128t-118 348
v903q0 135 -88 178v6h334v-6q-50 -25 -73 -66t-23 -112v-897z" />
    <glyph glyph-name="Udieresis" unicode="&#xdc;" horiz-adv-x="1122" 
d="M457 1737q-38 0 -64 30t-26 72q0 43 26 74t64 31t65 -31t27 -74q0 -42 -27 -72t-65 -30zM729 1737q-38 0 -64 30t-26 72q0 43 26 74t64 31t65 -31t27 -74q0 -42 -27 -72t-65 -30zM297 455q0 -186 92.5 -297t231.5 -111t224 104.5t85 297.5v841q0 79 -32.5 144t-96.5 96v6
h286v-6q-56 -28 -84 -94t-28 -146v-841q0 -220 -110 -348t-292 -128q-190 0 -308 128t-118 348v903q0 135 -88 178v6h334v-6q-50 -25 -73 -66t-23 -112v-897z" />
    <glyph glyph-name="Yacute" unicode="&#xdd;" horiz-adv-x="989" 
d="M635 2021q27 29 57 36t62 -17q27 -24 27 -60t-25 -63q-23 -27 -126.5 -105t-183.5 -149l-8 6q63 96 119.5 212t77.5 140zM578 174q0 -54 20 -94t70 -74v-6h-332v6q50 34 71 74t21 94v453l-303 645q-60 125 -95 180t-81 78v6h409v-6q-39 -17 -63.5 -53.5t-27.5 -89
t26 -115.5l270 -576l256 580q35 93 11 160t-85 94v6h291v-6q-74 -40 -168 -252l-290 -645v-459z" />
    <glyph glyph-name="Thorn" unicode="&#xde;" horiz-adv-x="966" 
d="M53 6q97 43 97 180v1164q0 136 -97 180v6h344v-6q-98 -45 -98 -178v-86q76 8 154 8q229 0 360 -129t131 -344q0 -98 -29 -181.5t-76 -141t-108 -98.5t-124.5 -60t-125.5 -19q-105 0 -182 41v-158q0 -133 98 -178v-6h-344v6zM778 778q0 206 -84 332.5t-225 126.5
q-170 0 -170 -178v-690q61 -25 135 -25q156 0 250 114t94 320z" />
    <glyph glyph-name="germandbls" unicode="&#xdf;" horiz-adv-x="1001" 
d="M25 0v6q81 67 81 162v1032q0 88 30 165.5t80 130t115.5 82.5t135.5 30q122 0 212.5 -87.5t108.5 -238.5q-136 -59 -212 -154t-76 -210q0 -43 13.5 -81.5t30 -64t52.5 -56.5t57.5 -46t67.5 -45q45 -30 70.5 -48.5t61.5 -52.5t55 -65t33.5 -76.5t14.5 -97.5
q0 -142 -90.5 -229t-222.5 -87q-121 0 -203 59.5t-82 127.5q0 30 19 51.5t49 21.5q28 0 46 -23t30.5 -55.5t28 -64.5t49.5 -55t86 -23q86 0 143 57t57 152q0 48 -14.5 87.5t-47 73t-60 54.5t-76.5 53q-39 26 -53 36t-48.5 36.5t-49.5 43.5t-39 47.5t-34.5 58t-19 65.5
t-8.5 80q0 226 241 385q3 330 -208 330q-205 0 -205 -316v-1085q0 -107 67 -160v-6h-286z" />
    <glyph glyph-name="agrave" unicode="&#xe0;" horiz-adv-x="804" 
d="M268 1507q24 -27 82 -142.5t115 -207.5l-6 -6q-66 56 -137 110t-112.5 86.5t-62.5 55.5q-24 27 -24 63.5t27 59.5q33 23 63 16t55 -35zM37 197q0 138 132 255t376 164v242q0 77 -31 118.5t-88 41.5q-52 0 -88.5 -28.5t-56 -69t-37 -81.5t-42.5 -69.5t-61 -28.5
q-27 0 -45 20t-18 50q0 55 53.5 112t138.5 93.5t170 36.5q113 0 178.5 -59t65.5 -158q0 -83 -3 -341.5t-3 -353.5q0 -52 14 -77t47 -25q38 0 74 33l4 -6q-27 -42 -69.5 -69.5t-85.5 -27.5q-54 0 -87.5 40t-33.5 116v35h-2q-65 -82 -147.5 -135.5t-158.5 -53.5q-82 0 -139 65
t-57 161zM182 242q0 -83 35 -128.5t100 -45.5q109 0 224 118q0 59 1 197.5t1 206.5q-106 -26 -179.5 -65t-111.5 -86.5t-54 -94.5t-16 -102z" />
    <glyph glyph-name="aacute" unicode="&#xe1;" horiz-adv-x="804" 
d="M477 1507q26 29 56 36t63 -17q27 -26 26.5 -61t-24.5 -62q-23 -27 -127 -105t-184 -149l-6 6q62 95 118.5 211t77.5 141zM37 197q0 138 132 255t376 164v242q0 77 -31 118.5t-88 41.5q-52 0 -88.5 -28.5t-56 -69t-37 -81.5t-42.5 -69.5t-61 -28.5q-27 0 -45 20t-18 50
q0 55 53.5 112t138.5 93.5t170 36.5q113 0 178.5 -59t65.5 -158q0 -83 -3 -341.5t-3 -353.5q0 -52 14 -77t47 -25q38 0 74 33l4 -6q-27 -42 -69.5 -69.5t-85.5 -27.5q-54 0 -87.5 40t-33.5 116v35h-2q-65 -82 -147.5 -135.5t-158.5 -53.5q-82 0 -139 65t-57 161zM182 242
q0 -83 35 -128.5t100 -45.5q109 0 224 118q0 59 1 197.5t1 206.5q-106 -26 -179.5 -65t-111.5 -86.5t-54 -94.5t-16 -102z" />
    <glyph glyph-name="acircumflex" unicode="&#xe2;" horiz-adv-x="804" 
d="M129 1151l184 340q27 47 76.5 46t73.5 -46l186 -340l-8 -6l-250 241h-6l-250 -241zM37 197q0 138 132 255t376 164v242q0 77 -31 118.5t-88 41.5q-52 0 -88.5 -28.5t-56 -69t-37 -81.5t-42.5 -69.5t-61 -28.5q-27 0 -45 20t-18 50q0 55 53.5 112t138.5 93.5t170 36.5
q113 0 178.5 -59t65.5 -158q0 -83 -3 -341.5t-3 -353.5q0 -52 14 -77t47 -25q38 0 74 33l4 -6q-27 -42 -69.5 -69.5t-85.5 -27.5q-54 0 -87.5 40t-33.5 116v35h-2q-65 -82 -147.5 -135.5t-158.5 -53.5q-82 0 -139 65t-57 161zM182 242q0 -83 35 -128.5t100 -45.5
q109 0 224 118q0 59 1 197.5t1 206.5q-106 -26 -179.5 -65t-111.5 -86.5t-54 -94.5t-16 -102z" />
    <glyph glyph-name="atilde" unicode="&#xe3;" horiz-adv-x="804" 
d="M479 1210q-34 0 -69.5 24t-60 52t-54 52t-53.5 24q-75 0 -99 -137l-8 2q7 118 50 179.5t112 61.5q35 0 71 -24t60.5 -52.5t54.5 -52.5t54 -24q73 0 94 141l8 -2q-15 -244 -160 -244zM37 197q0 138 132 255t376 164v242q0 77 -31 118.5t-88 41.5q-52 0 -88.5 -28.5
t-56 -69t-37 -81.5t-42.5 -69.5t-61 -28.5q-27 0 -45 20t-18 50q0 55 53.5 112t138.5 93.5t170 36.5q113 0 178.5 -59t65.5 -158q0 -83 -3 -341.5t-3 -353.5q0 -52 14 -77t47 -25q38 0 74 33l4 -6q-27 -42 -69.5 -69.5t-85.5 -27.5q-54 0 -87.5 40t-33.5 116v35h-2
q-65 -82 -147.5 -135.5t-158.5 -53.5q-82 0 -139 65t-57 161zM182 242q0 -83 35 -128.5t100 -45.5q109 0 224 118q0 59 1 197.5t1 206.5q-106 -26 -179.5 -65t-111.5 -86.5t-54 -94.5t-16 -102z" />
    <glyph glyph-name="adieresis" unicode="&#xe4;" horiz-adv-x="804" 
d="M252 1223q-38 0 -64 30t-26 72q0 43 26 74t64 31t65 -31t27 -74q0 -42 -27 -72t-65 -30zM524 1223q-38 0 -64 30t-26 72q0 43 26 74t64 31t65 -31t27 -74q0 -42 -27 -72t-65 -30zM37 197q0 138 132 255t376 164v242q0 77 -31 118.5t-88 41.5q-52 0 -88.5 -28.5t-56 -69
t-37 -81.5t-42.5 -69.5t-61 -28.5q-27 0 -45 20t-18 50q0 55 53.5 112t138.5 93.5t170 36.5q113 0 178.5 -59t65.5 -158q0 -83 -3 -341.5t-3 -353.5q0 -52 14 -77t47 -25q38 0 74 33l4 -6q-27 -42 -69.5 -69.5t-85.5 -27.5q-54 0 -87.5 40t-33.5 116v35h-2
q-65 -82 -147.5 -135.5t-158.5 -53.5q-82 0 -139 65t-57 161zM182 242q0 -83 35 -128.5t100 -45.5q109 0 224 118q0 59 1 197.5t1 206.5q-106 -26 -179.5 -65t-111.5 -86.5t-54 -94.5t-16 -102z" />
    <glyph glyph-name="aring" unicode="&#xe5;" horiz-adv-x="804" 
d="M180 1386q0 93 60 161.5t147 68.5t147 -67.5t60 -162.5t-60 -162t-147 -67q-84 0 -145.5 68t-61.5 161zM287 1386q0 -95 25.5 -147.5t74.5 -52.5q100 0 100 200q0 201 -100 201t-100 -201zM37 197q0 138 132 255t376 164v242q0 77 -31 118.5t-88 41.5q-52 0 -88.5 -28.5
t-56 -69t-37 -81.5t-42.5 -69.5t-61 -28.5q-27 0 -45 20t-18 50q0 55 53.5 112t138.5 93.5t170 36.5q113 0 178.5 -59t65.5 -158q0 -83 -3 -341.5t-3 -353.5q0 -52 14 -77t47 -25q38 0 74 33l4 -6q-27 -42 -69.5 -69.5t-85.5 -27.5q-54 0 -87.5 40t-33.5 116v35h-2
q-65 -82 -147.5 -135.5t-158.5 -53.5q-82 0 -139 65t-57 161zM182 242q0 -83 35 -128.5t100 -45.5q109 0 224 118q0 59 1 197.5t1 206.5q-106 -26 -179.5 -65t-111.5 -86.5t-54 -94.5t-16 -102z" />
    <glyph glyph-name="ae" unicode="&#xe6;" horiz-adv-x="1284" 
d="M244 -29q-88 0 -148.5 65t-60.5 161q0 150 132 266t378 151v244q0 77 -31 118.5t-88 41.5q-52 0 -88.5 -29.5t-56.5 -71.5t-37.5 -83.5t-43 -71t-61.5 -29.5q-26 0 -44.5 20.5t-18.5 49.5q0 55 54 114t140 97.5t170 38.5q92 0 152.5 -43.5t75.5 -116.5q114 160 274 160
q134 0 217.5 -115.5t83.5 -284.5v-28h-561v-66q0 -127 31 -230.5t97 -169t157 -65.5q80 0 147.5 43.5t106.5 122.5l8 -4q-44 -137 -131.5 -212t-198.5 -75q-98 0 -179 60.5t-126 169.5q-64 -97 -159.5 -162.5t-190.5 -65.5zM903 1014q-81 0 -142 -92t-75 -263h408
q-2 163 -53.5 259t-137.5 96zM180 248q0 -84 40 -130t112 -46q130 0 254 145q-41 103 -41 242v133q-107 -21 -181 -55.5t-113 -81t-55 -96t-16 -111.5z" />
    <glyph glyph-name="ccedilla" unicode="&#xe7;" horiz-adv-x="720" 
d="M354 -182l31 151q-142 5 -240 141.5t-98 352.5q0 251 127 415t324 164q107 0 200 -49l-75 -307h-5q-21 146 -81 225.5t-134 79.5q-97 0 -159 -116t-62 -304q0 -135 29.5 -240.5t93.5 -171t156 -65.5q161 0 244 174l8 -4q-41 -137 -119 -213t-182 -82l-11 -47
q85 -8 143 -57.5t58 -122.5q0 -80 -67.5 -133t-159.5 -53q-90 0 -148.5 31.5t-58.5 80.5q0 27 15.5 46.5t43.5 19.5q27 0 47 -20.5t29 -53.5q23 -78 86 -78q45 0 77 30t32 83q0 116 -140 123h-4z" />
    <glyph glyph-name="egrave" unicode="&#xe8;" horiz-adv-x="798" 
d="M303 1507q24 -27 82 -142.5t115 -207.5l-8 -6q-79 68 -182 146t-128 106q-24 27 -24.5 63t26.5 60q33 23 63.5 16t55.5 -35zM197 559q0 -128 30.5 -231t96.5 -168.5t157 -65.5q82 0 148 43.5t106 122.5l8 -4q-44 -137 -130.5 -212t-196.5 -75q-152 0 -257.5 134
t-105.5 356q0 162 53 298.5t146 216t205 79.5q134 0 217.5 -115.5t83.5 -284.5v-28h-559q-2 -20 -2 -66zM420 1014q-83 0 -144 -91.5t-75 -263.5h407q-2 163 -52.5 259t-135.5 96z" />
    <glyph glyph-name="eacute" unicode="&#xe9;" horiz-adv-x="798" 
d="M510 1507q27 29 57 36t62 -17q27 -24 27.5 -60.5t-23.5 -62.5q-23 -26 -126.5 -104t-184.5 -150l-9 6q63 96 119.5 212t77.5 140zM197 559q0 -128 30.5 -231t96.5 -168.5t157 -65.5q82 0 148 43.5t106 122.5l8 -4q-44 -137 -130.5 -212t-196.5 -75q-152 0 -257.5 134
t-105.5 356q0 162 53 298.5t146 216t205 79.5q134 0 217.5 -115.5t83.5 -284.5v-28h-559q-2 -20 -2 -66zM420 1014q-83 0 -144 -91.5t-75 -263.5h407q-2 163 -52.5 259t-135.5 96z" />
    <glyph glyph-name="ecircumflex" unicode="&#xea;" horiz-adv-x="798" 
d="M162 1151l186 340q27 47 76 46t74 -46l184 -340l-6 -6l-252 241h-4l-250 -241zM197 559q0 -128 30.5 -231t96.5 -168.5t157 -65.5q82 0 148 43.5t106 122.5l8 -4q-44 -137 -130.5 -212t-196.5 -75q-152 0 -257.5 134t-105.5 356q0 162 53 298.5t146 216t205 79.5
q134 0 217.5 -115.5t83.5 -284.5v-28h-559q-2 -20 -2 -66zM420 1014q-83 0 -144 -91.5t-75 -263.5h407q-2 163 -52.5 259t-135.5 96z" />
    <glyph glyph-name="edieresis" unicode="&#xeb;" horiz-adv-x="798" 
d="M287 1223q-38 0 -64 30t-26 72q0 43 26 74t64 31t65 -31t27 -74q0 -42 -27 -72t-65 -30zM559 1223q-38 0 -64 30t-26 72q0 43 26 74t64 31t65 -31t27 -74q0 -42 -27 -72t-65 -30zM197 559q0 -128 30.5 -231t96.5 -168.5t157 -65.5q82 0 148 43.5t106 122.5l8 -4
q-44 -137 -130.5 -212t-196.5 -75q-152 0 -257.5 134t-105.5 356q0 162 53 298.5t146 216t205 79.5q134 0 217.5 -115.5t83.5 -284.5v-28h-559q-2 -20 -2 -66zM420 1014q-83 0 -144 -91.5t-75 -263.5h407q-2 163 -52.5 259t-135.5 96z" />
    <glyph glyph-name="igrave" unicode="&#xec;" horiz-adv-x="380" 
d="M66 1507q24 -27 81 -142.5t115 -207.5l-8 -6q-78 68 -181 146t-128 106q-24 27 -24.5 63t26.5 60q33 23 63.5 16t55.5 -35zM55 0v6q70 45 70 158v624q0 127 -72 162v6q55 0 112 26.5t97 66.5h4v-885q0 -116 58 -158v-6h-269z" />
    <glyph glyph-name="iacute" unicode="&#xed;" horiz-adv-x="380" 
d="M272 1507q27 29 57 36t62 -17q27 -24 27.5 -60.5t-23.5 -62.5q-23 -26 -126.5 -104t-184.5 -150l-8 6q50 75 89.5 153t63.5 127.5t43 71.5zM55 0v6q70 45 70 158v624q0 127 -72 162v6q55 0 112 26.5t97 66.5h4v-885q0 -116 58 -158v-6h-269z" />
    <glyph glyph-name="icircumflex" unicode="&#xee;" horiz-adv-x="380" 
d="M-76 1151l187 340q27 47 75.5 46t73.5 -46l184 -340l-6 -6l-252 241h-4l-250 -241zM55 0v6q70 45 70 158v624q0 127 -72 162v6q55 0 112 26.5t97 66.5h4v-885q0 -116 58 -158v-6h-269z" />
    <glyph glyph-name="idieresis" unicode="&#xef;" horiz-adv-x="380" 
d="M49 1223q-38 0 -64 30t-26 72q0 43 26 74t64 31t65 -31t27 -74q0 -42 -27 -72t-65 -30zM322 1223q-38 0 -64.5 30t-26.5 72q0 43 26.5 74t64.5 31t65 -31t27 -74q0 -42 -27 -72t-65 -30zM55 0v6q70 45 70 158v624q0 127 -72 162v6q55 0 112 26.5t97 66.5h4v-885
q0 -116 58 -158v-6h-269z" />
    <glyph glyph-name="eth" unicode="&#xf0;" horiz-adv-x="890" 
d="M266 1176v43l228 75q-122 169 -322 265l2 8q238 -67 401 -244l216 72v-43l-185 -64q111 -133 169.5 -306t55.5 -366q0 -306 -115.5 -477.5t-285.5 -171.5q-107 0 -194 71t-135 189.5t-48 259.5q0 143 49 265.5t135.5 195t190.5 72.5q80 0 141 -46t99 -128
q-42 245 -152 414zM678 487q0 236 -61 365t-183 129q-110 0 -165.5 -128.5t-55.5 -365.5q0 -235 56.5 -362t172.5 -127q109 0 172.5 130.5t63.5 358.5z" />
    <glyph glyph-name="ntilde" unicode="&#xf1;" horiz-adv-x="890" 
d="M547 1210q-34 0 -70 24t-60.5 52t-54 52t-53.5 24q-77 0 -98 -137l-10 2q9 118 52 179.5t112 61.5q35 0 70.5 -24t60 -52.5t54.5 -52.5t54 -24q74 0 92 141l11 -2q-15 -244 -160 -244zM45 6q80 64 80 158v641q0 58 -18.5 89.5t-61.5 55.5v6q57 0 115 25t98 68h4v-134
q0 -75 -2 -100h2q71 101 160.5 169.5t171.5 68.5q84 0 134 -60t50 -155v-674q0 -101 66 -158v-6h-277v6q74 62 74 156v626q0 69 -32.5 111.5t-94.5 42.5q-49 0 -114.5 -35.5t-137.5 -113.5v-631q0 -94 74 -156v-6h-291v6z" />
    <glyph glyph-name="ograve" unicode="&#xf2;" horiz-adv-x="876" 
d="M317 1507q24 -27 82 -142.5t115 -207.5l-6 -6q-66 56 -136.5 110t-112 86.5t-62.5 55.5q-24 27 -24.5 63t26.5 60q34 23 64.5 16t53.5 -35zM51 514q0 144 51.5 268t141 197.5t194.5 73.5q106 0 195 -73.5t139.5 -197t50.5 -268.5t-51.5 -270.5t-140.5 -200t-193 -74.5
t-193.5 74.5t-141.5 200.5t-52 270zM211 514q0 -230 59.5 -371t167.5 -141q106 0 166 141t60 371q0 152 -24 263.5t-75.5 177t-126.5 65.5q-74 0 -126 -65t-76.5 -177.5t-24.5 -263.5z" />
    <glyph glyph-name="oacute" unicode="&#xf3;" horiz-adv-x="876" 
d="M526 1507q26 29 56 36t63 -17q27 -26 26.5 -61t-24.5 -62q-23 -27 -127 -105t-184 -149l-6 6q62 95 118.5 211t77.5 141zM51 514q0 144 51.5 268t141 197.5t194.5 73.5q106 0 195 -73.5t139.5 -197t50.5 -268.5t-51.5 -270.5t-140.5 -200t-193 -74.5t-193.5 74.5
t-141.5 200.5t-52 270zM211 514q0 -230 59.5 -371t167.5 -141q106 0 166 141t60 371q0 152 -24 263.5t-75.5 177t-126.5 65.5q-74 0 -126 -65t-76.5 -177.5t-24.5 -263.5z" />
    <glyph glyph-name="ocircumflex" unicode="&#xf4;" horiz-adv-x="876" 
d="M178 1151l184 340q27 47 76.5 46t73.5 -46l186 -340l-8 -6l-250 241h-6l-250 -241zM51 514q0 144 51.5 268t141 197.5t194.5 73.5q106 0 195 -73.5t139.5 -197t50.5 -268.5t-51.5 -270.5t-140.5 -200t-193 -74.5t-193.5 74.5t-141.5 200.5t-52 270zM211 514
q0 -230 59.5 -371t167.5 -141q106 0 166 141t60 371q0 152 -24 263.5t-75.5 177t-126.5 65.5q-74 0 -126 -65t-76.5 -177.5t-24.5 -263.5z" />
    <glyph glyph-name="otilde" unicode="&#xf5;" horiz-adv-x="876" 
d="M528 1210q-34 0 -69 24t-60 52t-54.5 52t-53.5 24q-75 0 -96 -137l-11 2q7 118 50.5 179.5t113.5 61.5q34 0 69.5 -24t60 -52.5t55 -52.5t55.5 -24q71 0 92 141l10 -2q-18 -244 -162 -244zM51 514q0 144 51.5 268t141 197.5t194.5 73.5q106 0 195 -73.5t139.5 -197
t50.5 -268.5t-51.5 -270.5t-140.5 -200t-193 -74.5t-193.5 74.5t-141.5 200.5t-52 270zM211 514q0 -230 59.5 -371t167.5 -141q106 0 166 141t60 371q0 152 -24 263.5t-75.5 177t-126.5 65.5q-74 0 -126 -65t-76.5 -177.5t-24.5 -263.5z" />
    <glyph glyph-name="odieresis" unicode="&#xf6;" horiz-adv-x="876" 
d="M301 1223q-38 0 -64 30t-26 72q0 43 26 74t64 31t65 -31t27 -74q0 -42 -27 -72t-65 -30zM573 1223q-38 0 -64 30t-26 72q0 43 26 74t64 31t65.5 -31t27.5 -74q0 -41 -27.5 -71.5t-65.5 -30.5zM51 514q0 144 51.5 268t141 197.5t194.5 73.5q106 0 195 -73.5t139.5 -197
t50.5 -268.5t-51.5 -270.5t-140.5 -200t-193 -74.5t-193.5 74.5t-141.5 200.5t-52 270zM211 514q0 -230 59.5 -371t167.5 -141q106 0 166 141t60 371q0 152 -24 263.5t-75.5 177t-126.5 65.5q-74 0 -126 -65t-76.5 -177.5t-24.5 -263.5z" />
    <glyph glyph-name="divide" unicode="&#xf7;" horiz-adv-x="804" 
d="M399 938q-27 0 -46 22t-19 52q0 32 18.5 55t46.5 23q29 0 50.5 -23t21.5 -55q0 -29 -21.5 -51.5t-50.5 -22.5zM66 713v41h673v-41h-673zM399 379q-28 0 -46.5 21.5t-18.5 52.5q0 32 18.5 54.5t46.5 22.5q29 0 50.5 -22.5t21.5 -54.5q0 -31 -21.5 -52.5t-50.5 -21.5z" />
    <glyph glyph-name="oslash" unicode="&#xf8;" horiz-adv-x="878" 
d="M51 514q0 144 51.5 268t141 197.5t194.5 73.5q65 0 129 -31l47 156h39l-53 -174q101 -67 162 -199.5t61 -290.5q0 -145 -51.5 -270.5t-140.5 -200t-193 -74.5q-73 0 -137 37l-37 -129h-41l45 150q-97 69 -157 201t-60 286zM211 514q0 -270 80 -414l260 871
q-46 49 -113 49q-74 0 -126 -65t-76.5 -177.5t-24.5 -263.5zM664 514q0 290 -84 420l-261 -873q50 -59 119 -59q106 0 166 141t60 371z" />
    <glyph glyph-name="ugrave" unicode="&#xf9;" horiz-adv-x="882" 
d="M313 1507q24 -27 82 -142.5t115 -207.5l-8 -6q-78 68 -181 146t-128 106q-24 27 -24.5 63t26.5 60q33 23 63 16t55 -35zM621 111q0 79 2 104h-2q-71 -104 -159 -175t-171 -71q-85 0 -133.5 59.5t-48.5 155.5v617q0 60 -17 93t-55 56v6q53 0 108.5 25.5t94.5 67.5h6v-816
q0 -69 32 -111t95 -42q46 0 110.5 37t137.5 116v568q0 60 -16.5 93.5t-55.5 55.5v6q53 0 108.5 25.5t94.5 67.5h6v-844q0 -59 18.5 -92.5t59.5 -57.5v-6q-124 0 -209 -76h-6v138z" />
    <glyph glyph-name="uacute" unicode="&#xfa;" horiz-adv-x="882" 
d="M520 1507q27 29 57 36t62 -17q27 -24 27.5 -60.5t-23.5 -62.5q-23 -26 -126.5 -104t-184.5 -150l-8 6q50 75 89.5 153t63.5 127.5t43 71.5zM621 111q0 79 2 104h-2q-71 -104 -159 -175t-171 -71q-85 0 -133.5 59.5t-48.5 155.5v617q0 60 -17 93t-55 56v6q53 0 108.5 25.5
t94.5 67.5h6v-816q0 -69 32 -111t95 -42q46 0 110.5 37t137.5 116v568q0 60 -16.5 93.5t-55.5 55.5v6q53 0 108.5 25.5t94.5 67.5h6v-844q0 -59 18.5 -92.5t59.5 -57.5v-6q-124 0 -209 -76h-6v138z" />
    <glyph glyph-name="ucircumflex" unicode="&#xfb;" horiz-adv-x="882" 
d="M172 1151l186 340q27 47 76 46t74 -46l184 -340l-6 -6l-252 241h-4l-250 -241zM621 111q0 79 2 104h-2q-71 -104 -159 -175t-171 -71q-85 0 -133.5 59.5t-48.5 155.5v617q0 60 -17 93t-55 56v6q53 0 108.5 25.5t94.5 67.5h6v-816q0 -69 32 -111t95 -42q46 0 110.5 37
t137.5 116v568q0 60 -16.5 93.5t-55.5 55.5v6q53 0 108.5 25.5t94.5 67.5h6v-844q0 -59 18.5 -92.5t59.5 -57.5v-6q-124 0 -209 -76h-6v138z" />
    <glyph glyph-name="udieresis" unicode="&#xfc;" horiz-adv-x="882" 
d="M297 1223q-38 0 -64 30t-26 72q0 43 26 74t64 31t65 -31t27 -74q0 -42 -27 -72t-65 -30zM569 1223q-38 0 -64 30t-26 72q0 43 26 74t64 31t65.5 -31t27.5 -74q0 -41 -27.5 -71.5t-65.5 -30.5zM621 111q0 79 2 104h-2q-71 -104 -159 -175t-171 -71q-85 0 -133.5 59.5
t-48.5 155.5v617q0 60 -17 93t-55 56v6q53 0 108.5 25.5t94.5 67.5h6v-816q0 -69 32 -111t95 -42q46 0 110.5 37t137.5 116v568q0 60 -16.5 93.5t-55.5 55.5v6q53 0 108.5 25.5t94.5 67.5h6v-844q0 -59 18.5 -92.5t59.5 -57.5v-6q-124 0 -209 -76h-6v138z" />
    <glyph glyph-name="yacute" unicode="&#xfd;" horiz-adv-x="735" 
d="M498 1507q27 29 56.5 36t61.5 -17q27 -24 27 -60t-25 -63q-23 -27 -126.5 -105t-182.5 -149l-8 6q63 96 119.5 212t77.5 140zM61 -424q-73 0 -126.5 39t-53.5 92q0 34 20 58t50 24q31 0 49.5 -23t26.5 -50.5t29 -50.5t55 -23q67 0 123.5 73.5t97.5 206.5l26 78l-292 825
q-32 91 -55.5 130t-53.5 61v6h305v-6q-92 -65 -47 -189l211 -614l201 612q40 123 -41 191v6h194v-6q-29 -15 -59 -73.5t-51 -117.5l-301 -915q-56 -168 -130 -251t-178 -83z" />
    <glyph glyph-name="thorn" unicode="&#xfe;" horiz-adv-x="890" 
d="M37 -403q34 24 50.5 58.5t16.5 96.5v1602q0 119 -71 162v6q53 0 109.5 26t93.5 66h6v-666q0 -75 -2 -106h2q135 211 293 211q127 0 214 -132t87 -329q0 -93 -19 -181.5t-57 -166t-90.5 -136t-125 -92.5t-155.5 -34q-61 0 -147 24v-254q0 -62 17 -96.5t52 -58.5v-7h-274v7
zM688 539q-1 190 -64.5 297.5t-168.5 107.5q-59 0 -105.5 -28t-107.5 -97v-641q0 -81 38.5 -124.5t104.5 -43.5q130 0 217 149t86 380z" />
    <glyph glyph-name="ydieresis" unicode="&#xff;" horiz-adv-x="735" 
d="M274 1223q-38 0 -64 30t-26 72q0 43 26 74t64 31t65.5 -31t27.5 -74q0 -41 -27.5 -71.5t-65.5 -30.5zM545 1223q-36 0 -62 30t-26 72q0 43 25.5 74t62.5 31q38 0 65 -31t27 -74q0 -42 -27 -72t-65 -30zM61 -424q-73 0 -126.5 39t-53.5 92q0 34 20 58t50 24q31 0 49.5 -23
t26.5 -50.5t29 -50.5t55 -23q67 0 123.5 73.5t97.5 206.5l26 78l-292 825q-32 91 -55.5 130t-53.5 61v6h305v-6q-92 -65 -47 -189l211 -614l201 612q40 123 -41 191v6h194v-6q-29 -15 -59 -73.5t-51 -117.5l-301 -915q-56 -168 -130 -251t-178 -83z" />
    <glyph glyph-name="Amacron" unicode="&#x100;" horiz-adv-x="1101" 
d="M334 1788v70h434v-70h-434zM121 258l411 1288h23l426 -1284q38 -116 74.5 -174t81.5 -82v-6h-369v6q47 22 62.5 88.5t-15.5 169.5l-92 291h-463l-90 -295q-27 -89 3 -159.5t85 -94.5v-6h-303v6q42 21 89 91t77 161zM272 596h437l-224 700z" />
    <glyph glyph-name="amacron" unicode="&#x101;" horiz-adv-x="804" 
d="M170 1278v70h436v-70h-436zM37 197q0 138 132 255t376 164v242q0 77 -31 118.5t-88 41.5q-52 0 -88.5 -28.5t-56 -69t-37 -81.5t-42.5 -69.5t-61 -28.5q-27 0 -45 20t-18 50q0 55 53.5 112t138.5 93.5t170 36.5q113 0 178.5 -59t65.5 -158q0 -83 -3 -341.5t-3 -353.5
q0 -52 14 -77t47 -25q38 0 74 33l4 -6q-27 -42 -69.5 -69.5t-85.5 -27.5q-54 0 -87.5 40t-33.5 116v35h-2q-65 -82 -147.5 -135.5t-158.5 -53.5q-82 0 -139 65t-57 161zM182 242q0 -83 35 -128.5t100 -45.5q109 0 224 118q0 59 1 197.5t1 206.5q-106 -26 -179.5 -65
t-111.5 -86.5t-54 -94.5t-16 -102z" />
    <glyph glyph-name="Abreve" unicode="&#x102;" horiz-adv-x="1101" 
d="M551 1712q-104 0 -168 85.5t-64 232.5l11 2q13 -95 75.5 -143t145.5 -48q85 0 146 47t75 144l10 -2q0 -147 -63.5 -232.5t-167.5 -85.5zM121 258l411 1288h23l426 -1284q38 -116 74.5 -174t81.5 -82v-6h-369v6q47 22 62.5 88.5t-15.5 169.5l-92 291h-463l-90 -295
q-27 -89 3 -159.5t85 -94.5v-6h-303v6q42 21 89 91t77 161zM272 596h437l-224 700z" />
    <glyph glyph-name="abreve" unicode="&#x103;" horiz-adv-x="804" 
d="M387 1202q-103 0 -167 85.5t-64 232.5l10 2q14 -95 76 -143t145 -48q85 0 146.5 47t74.5 144l13 -2q0 -147 -65 -232.5t-169 -85.5zM37 197q0 138 132 255t376 164v242q0 77 -31 118.5t-88 41.5q-52 0 -88.5 -28.5t-56 -69t-37 -81.5t-42.5 -69.5t-61 -28.5q-27 0 -45 20
t-18 50q0 55 53.5 112t138.5 93.5t170 36.5q113 0 178.5 -59t65.5 -158q0 -83 -3 -341.5t-3 -353.5q0 -52 14 -77t47 -25q38 0 74 33l4 -6q-27 -42 -69.5 -69.5t-85.5 -27.5q-54 0 -87.5 40t-33.5 116v35h-2q-65 -82 -147.5 -135.5t-158.5 -53.5q-82 0 -139 65t-57 161z
M182 242q0 -83 35 -128.5t100 -45.5q109 0 224 118q0 59 1 197.5t1 206.5q-106 -26 -179.5 -65t-111.5 -86.5t-54 -94.5t-16 -102z" />
    <glyph glyph-name="Aogonek" unicode="&#x104;" horiz-adv-x="1101" 
d="M121 258l411 1288h23l426 -1284q38 -116 74.5 -174t81.5 -82v-6h-193q-106 -100 -106 -217q0 -64 37.5 -103.5t95.5 -39.5q109 0 188 81l6 -6q-108 -176 -258 -176q-81 0 -137.5 50.5t-56.5 127.5q0 148 211 283h-156v6q47 22 62.5 88.5t-15.5 169.5l-92 291h-463
l-90 -295q-27 -89 3 -159.5t85 -94.5v-6h-303v6q42 21 89 91t77 161zM272 596h437l-224 700z" />
    <glyph glyph-name="aogonek" unicode="&#x105;" horiz-adv-x="804" 
d="M37 197q0 138 132 255t376 164v242q0 77 -31 118.5t-88 41.5q-52 0 -88.5 -28.5t-56 -69t-37 -81.5t-42.5 -69.5t-61 -28.5q-27 0 -45 20t-18 50q0 55 53.5 112t138.5 93.5t170 36.5q113 0 178.5 -59t65.5 -158q0 -83 -3 -341.5t-3 -353.5q0 -52 14 -77t47 -25
q38 0 74 33l4 -6q-27 -42 -69.5 -69.5t-85.5 -27.5q-38 0 -68 21q-94 -97 -94 -207q0 -64 37.5 -103.5t95.5 -39.5q107 0 186 81l6 -6q-108 -176 -258 -176q-80 0 -137 50.5t-57 127.5q0 145 211 283q-43 40 -43 125v35h-2q-65 -82 -147.5 -135.5t-158.5 -53.5
q-82 0 -139 65t-57 161zM182 242q0 -83 35 -128.5t100 -45.5q109 0 224 118q0 59 1 197.5t1 206.5q-106 -26 -179.5 -65t-111.5 -86.5t-54 -94.5t-16 -102z" />
    <glyph glyph-name="Cacute" unicode="&#x106;" horiz-adv-x="987" 
d="M664 2021q26 29 55.5 36t62.5 -17q27 -26 26.5 -61t-24.5 -62q-23 -27 -127 -105t-184 -149l-6 6q61 95 118.5 211t78.5 141zM539 -31q-98 0 -186.5 56.5t-153.5 153.5t-103.5 235.5t-38.5 294.5q0 176 47.5 335.5t128 273.5t191.5 181.5t233 67.5q146 0 297 -70
l-108 -352h-4q-24 179 -100 269.5t-187 90.5q-96 0 -176 -88t-126 -243.5t-46 -344.5q0 -204 47 -362.5t138 -249t214 -90.5q239 0 348 297l11 -4q-21 -116 -64.5 -204.5t-101 -141.5t-123 -79t-137.5 -26z" />
    <glyph glyph-name="cacute" unicode="&#x107;" horiz-adv-x="720" 
d="M506 1507q26 29 56 36t63 -17q27 -26 26.5 -61t-24.5 -62q-23 -27 -127.5 -104.5t-184.5 -149.5l-6 6q61 95 118.5 211t78.5 141zM498 1042q107 0 200 -49l-75 -307h-5q-21 146 -81 225.5t-134 79.5q-97 0 -159 -116t-62 -304q0 -135 29.5 -240.5t93.5 -171t156 -65.5
q161 0 244 174l8 -4q-43 -142 -126 -218.5t-192 -76.5q-145 0 -246.5 137t-101.5 357q0 251 127 415t324 164z" />
    <glyph glyph-name="Ccircumflex" unicode="&#x108;" horiz-adv-x="987" 
d="M315 1665l185 340q27 47 76 46t73 -46l187 -340l-9 -6l-249 242h-7l-249 -242zM539 -31q-98 0 -186.5 56.5t-153.5 153.5t-103.5 235.5t-38.5 294.5q0 176 47.5 335.5t128 273.5t191.5 181.5t233 67.5q146 0 297 -70l-108 -352h-4q-24 179 -100 269.5t-187 90.5
q-96 0 -176 -88t-126 -243.5t-46 -344.5q0 -204 47 -362.5t138 -249t214 -90.5q239 0 348 297l11 -4q-21 -116 -64.5 -204.5t-101 -141.5t-123 -79t-137.5 -26z" />
    <glyph glyph-name="ccircumflex" unicode="&#x109;" horiz-adv-x="720" 
d="M158 1151l184 340q27 47 76.5 46t73.5 -46l186 -340l-8 -6l-250 241h-6l-250 -241zM498 1042q107 0 200 -49l-75 -307h-5q-21 146 -81 225.5t-134 79.5q-97 0 -159 -116t-62 -304q0 -135 29.5 -240.5t93.5 -171t156 -65.5q161 0 244 174l8 -4q-43 -142 -126 -218.5
t-192 -76.5q-145 0 -246.5 137t-101.5 357q0 251 127 415t324 164z" />
    <glyph glyph-name="Cdotaccent" unicode="&#x10a;" horiz-adv-x="987" 
d="M575 1737q-39 0 -66.5 30.5t-27.5 73.5q0 44 27 75.5t67 31.5q38 0 65.5 -31.5t27.5 -75.5q0 -43 -27.5 -73.5t-65.5 -30.5zM539 -31q-98 0 -186.5 56.5t-153.5 153.5t-103.5 235.5t-38.5 294.5q0 176 47.5 335.5t128 273.5t191.5 181.5t233 67.5q146 0 297 -70
l-108 -352h-4q-24 179 -100 269.5t-187 90.5q-96 0 -176 -88t-126 -243.5t-46 -344.5q0 -204 47 -362.5t138 -249t214 -90.5q239 0 348 297l11 -4q-21 -116 -64.5 -204.5t-101 -141.5t-123 -79t-137.5 -26z" />
    <glyph glyph-name="cdotaccent" unicode="&#x10b;" horiz-adv-x="720" 
d="M416 1223q-38 0 -65 30.5t-27 73.5q0 44 27 75.5t65 31.5q40 0 67 -31.5t27 -75.5q0 -43 -27.5 -73.5t-66.5 -30.5zM498 1042q107 0 200 -49l-75 -307h-5q-21 146 -81 225.5t-134 79.5q-97 0 -159 -116t-62 -304q0 -135 29.5 -240.5t93.5 -171t156 -65.5q161 0 244 174
l8 -4q-43 -142 -126 -218.5t-192 -76.5q-145 0 -246.5 137t-101.5 357q0 251 127 415t324 164z" />
    <glyph glyph-name="Ccaron" unicode="&#x10c;" horiz-adv-x="987" 
d="M838 2101l-185 -340q-27 -47 -76 -46t-73 46l-187 340l9 6l249 -241h7l249 241zM539 -31q-98 0 -186.5 56.5t-153.5 153.5t-103.5 235.5t-38.5 294.5q0 176 47.5 335.5t128 273.5t191.5 181.5t233 67.5q146 0 297 -70l-108 -352h-4q-24 179 -100 269.5t-187 90.5
q-96 0 -176 -88t-126 -243.5t-46 -344.5q0 -204 47 -362.5t138 -249t214 -90.5q239 0 348 297l11 -4q-21 -116 -64.5 -204.5t-101 -141.5t-123 -79t-137.5 -26z" />
    <glyph glyph-name="ccaron" unicode="&#x10d;" horiz-adv-x="720" 
d="M680 1587l-184 -340q-27 -47 -76.5 -46t-73.5 46l-186 340l8 6l250 -241h6l250 241zM498 1042q107 0 200 -49l-75 -307h-5q-21 146 -81 225.5t-134 79.5q-97 0 -159 -116t-62 -304q0 -135 29.5 -240.5t93.5 -171t156 -65.5q161 0 244 174l8 -4q-43 -142 -126 -218.5
t-192 -76.5q-145 0 -246.5 137t-101.5 357q0 251 127 415t324 164z" />
    <glyph glyph-name="Dcaron" unicode="&#x10e;" horiz-adv-x="1153" 
d="M756 2101l-185 -340q-27 -47 -76 -46t-73 46l-186 340l8 6l250 -241h6l250 241zM453 -20q-182 0 -400 40v7q97 46 97 161v1160q0 49 -25 94t-72 67v7q238 40 367 40q216 0 368.5 -97.5t228 -271.5t75.5 -411q0 -197 -51.5 -352t-140.5 -250.5t-202.5 -144.5t-244.5 -49z
M485 25q212 0 319 167.5t107 538.5q0 370 -113 576t-323 206q-90 0 -132 -44t-42 -136v-1112q0 -93 47 -144.5t137 -51.5z" />
    <glyph glyph-name="dcaron" unicode="&#x10f;" horiz-adv-x="901" 
d="M903 1565q8 29 31 44.5t53 8.5q24 -7 33.5 -36.5t-0.5 -55.5q-8 -26 -25.5 -62.5t-53 -104.5t-64.5 -128l-7 4q11 86 18 193t15 137zM358 -33q-129 0 -217 133t-88 330q0 93 19 181.5t57 166t90.5 136t125 92.5t155.5 34q59 0 149 -24v338q0 115 -69 162v6
q54 0 108.5 25.5t93.5 66.5h4v-1389q0 -125 72 -166v-6q-106 0 -203 -80h-6v93q0 44 4 106l-4 2q-141 -207 -291 -207zM438 78q57 0 103 27t108 92v647q0 82 -39.5 125t-109.5 43q-126 0 -212 -149.5t-85 -379.5q1 -189 64.5 -297t170.5 -108z" />
    <glyph glyph-name="Dcroat" unicode="&#x110;" horiz-adv-x="1153" 
d="M453 -20q-182 0 -400 40v7q97 46 97 161v740h-111v39h111v381q0 49 -25 94t-72 67v7q238 40 367 40q216 0 368.5 -97.5t228 -271.5t75.5 -411q0 -197 -51.5 -352t-140.5 -250.5t-202.5 -144.5t-244.5 -49zM485 25q212 0 319 167.5t107 538.5q0 370 -113 576t-323 206
q-90 0 -132 -44t-42 -136v-366h262v-39h-262v-707q0 -93 47 -144.5t137 -51.5z" />
    <glyph glyph-name="dcroat" unicode="&#x111;" horiz-adv-x="901" 
d="M358 -33q-129 0 -217 133t-88 330q0 93 19 181.5t57 166t90.5 136t125 92.5t155.5 34q59 0 149 -24v227h-235v39h235v72q0 115 -69 162v6q54 0 108.5 25.5t93.5 66.5h4v-332h84v-39h-84v-1018q0 -125 72 -166v-6q-106 0 -203 -80h-6v93q0 44 4 106l-4 2
q-141 -207 -291 -207zM438 78q57 0 103 27t108 92v647q0 82 -39.5 125t-109.5 43q-126 0 -212 -149.5t-85 -379.5q1 -189 64.5 -297t170.5 -108z" />
    <glyph glyph-name="Emacron" unicode="&#x112;" horiz-adv-x="1007" 
d="M291 1792v70h434v-70h-434zM53 1536h680q98 0 135 61h6l39 -374l-8 -4q-62 94 -116.5 152t-131.5 95t-170 37q-106 0 -147 -42.5t-41 -139.5v-451h301q134 0 205 158h6v-360h-6q-92 163 -203 163h-303v-616q0 -180 209 -180q83 0 154 24t128.5 70t101 97t89.5 122l6 -4
l-67 -405h-11q-37 61 -127 61h-729v6q97 51 97 178v1168q0 134 -97 178v6z" />
    <glyph glyph-name="emacron" unicode="&#x113;" horiz-adv-x="798" 
d="M205 1278v70h434v-70h-434zM197 559q0 -128 30.5 -231t96.5 -168.5t157 -65.5q82 0 148 43.5t106 122.5l8 -4q-44 -137 -130.5 -212t-196.5 -75q-152 0 -257.5 134t-105.5 356q0 162 53 298.5t146 216t205 79.5q134 0 217.5 -115.5t83.5 -284.5v-28h-559q-2 -20 -2 -66z
M420 1014q-83 0 -144 -91.5t-75 -263.5h407q-2 163 -52.5 259t-135.5 96z" />
    <glyph glyph-name="Ebreve" unicode="&#x114;" horiz-adv-x="1007" 
d="M508 1716q-103 0 -167.5 85.5t-64.5 232.5l11 2q14 -95 76 -143t145 -48q85 0 146.5 47t74.5 144l10 -2q0 -147 -63.5 -232.5t-167.5 -85.5zM53 1536h680q98 0 135 61h6l39 -374l-8 -4q-62 94 -116.5 152t-131.5 95t-170 37q-106 0 -147 -42.5t-41 -139.5v-451h301
q134 0 205 158h6v-360h-6q-92 163 -203 163h-303v-616q0 -180 209 -180q83 0 154 24t128.5 70t101 97t89.5 122l6 -4l-67 -405h-11q-37 61 -127 61h-729v6q97 51 97 178v1168q0 134 -97 178v6z" />
    <glyph glyph-name="ebreve" unicode="&#x115;" horiz-adv-x="798" 
d="M422 1202q-103 0 -167.5 85.5t-64.5 232.5l11 2q14 -95 76 -143t145 -48q85 0 146.5 47t74.5 144l10 -2q0 -147 -63.5 -232.5t-167.5 -85.5zM197 559q0 -128 30.5 -231t96.5 -168.5t157 -65.5q82 0 148 43.5t106 122.5l8 -4q-44 -137 -130.5 -212t-196.5 -75
q-152 0 -257.5 134t-105.5 356q0 162 53 298.5t146 216t205 79.5q134 0 217.5 -115.5t83.5 -284.5v-28h-559q-2 -20 -2 -66zM420 1014q-83 0 -144 -91.5t-75 -263.5h407q-2 163 -52.5 259t-135.5 96z" />
    <glyph glyph-name="Edotaccent" unicode="&#x116;" horiz-adv-x="1007" 
d="M508 1737q-39 0 -65.5 30.5t-26.5 73.5q0 45 26.5 76t65.5 31q40 0 67 -31.5t27 -75.5q0 -43 -27.5 -73.5t-66.5 -30.5zM53 1536h680q98 0 135 61h6l39 -374l-8 -4q-62 94 -116.5 152t-131.5 95t-170 37q-106 0 -147 -42.5t-41 -139.5v-451h301q134 0 205 158h6v-360h-6
q-92 163 -203 163h-303v-616q0 -180 209 -180q83 0 154 24t128.5 70t101 97t89.5 122l6 -4l-67 -405h-11q-37 61 -127 61h-729v6q97 51 97 178v1168q0 134 -97 178v6z" />
    <glyph glyph-name="edotaccent" unicode="&#x117;" horiz-adv-x="798" 
d="M422 1223q-39 0 -65.5 30.5t-26.5 73.5q0 45 26.5 76t65.5 31q40 0 67 -31.5t27 -75.5q0 -43 -27.5 -73.5t-66.5 -30.5zM197 559q0 -128 30.5 -231t96.5 -168.5t157 -65.5q82 0 148 43.5t106 122.5l8 -4q-44 -137 -130.5 -212t-196.5 -75q-152 0 -257.5 134t-105.5 356
q0 162 53 298.5t146 216t205 79.5q134 0 217.5 -115.5t83.5 -284.5v-28h-559q-2 -20 -2 -66zM420 1014q-83 0 -144 -91.5t-75 -263.5h407q-2 163 -52.5 259t-135.5 96z" />
    <glyph glyph-name="Eogonek" unicode="&#x118;" horiz-adv-x="1007" 
d="M725 -461q-80 0 -136.5 50.5t-56.5 127.5q0 147 209 283h-688v6q97 51 97 178v1168q0 134 -97 178v6h680q98 0 135 61h6l39 -374l-8 -4q-62 94 -116.5 152t-131.5 95t-170 37q-106 0 -147 -42.5t-41 -139.5v-451h301q134 0 205 158h6v-360h-6q-92 163 -203 163h-303v-616
q0 -180 209 -180q83 0 154 24t128.5 70t101 97t89.5 122l6 -4l-67 -405h-11q-37 61 -127 61h-18q-107 -101 -107 -217q0 -64 38 -103.5t96 -39.5q110 0 186 81l8 -6q-111 -176 -260 -176z" />
    <glyph glyph-name="eogonek" unicode="&#x119;" horiz-adv-x="798" 
d="M197 559q0 -128 30.5 -231t96.5 -168.5t157 -65.5q82 0 148 43.5t106 122.5l8 -4q-58 -183 -190 -254q-111 -100 -111 -219q0 -64 37.5 -103.5t95.5 -39.5q110 0 189 81l6 -6q-108 -176 -258 -176q-81 0 -138 50.5t-57 127.5q0 137 183 265q-44 -13 -84 -13
q-152 0 -257.5 134t-105.5 356q0 162 53 298.5t146 216t205 79.5q134 0 217.5 -115.5t83.5 -284.5v-28h-559q-2 -20 -2 -66zM420 1014q-83 0 -144 -91.5t-75 -263.5h407q-2 163 -52.5 259t-135.5 96z" />
    <glyph glyph-name="Ecaron" unicode="&#x11a;" horiz-adv-x="1007" 
d="M772 2101l-184 -340q-27 -47 -76.5 -46t-73.5 46l-186 340l8 6l250 -241h4l252 241zM53 1536h680q98 0 135 61h6l39 -374l-8 -4q-62 94 -116.5 152t-131.5 95t-170 37q-106 0 -147 -42.5t-41 -139.5v-451h301q134 0 205 158h6v-360h-6q-92 163 -203 163h-303v-616
q0 -180 209 -180q83 0 154 24t128.5 70t101 97t89.5 122l6 -4l-67 -405h-11q-37 61 -127 61h-729v6q97 51 97 178v1168q0 134 -97 178v6z" />
    <glyph glyph-name="ecaron" unicode="&#x11b;" horiz-adv-x="798" 
d="M686 1587l-184 -340q-27 -47 -76.5 -46t-73.5 46l-186 340l8 6l250 -241h4l252 241zM197 559q0 -128 30.5 -231t96.5 -168.5t157 -65.5q82 0 148 43.5t106 122.5l8 -4q-44 -137 -130.5 -212t-196.5 -75q-152 0 -257.5 134t-105.5 356q0 162 53 298.5t146 216t205 79.5
q134 0 217.5 -115.5t83.5 -284.5v-28h-559q-2 -20 -2 -66zM420 1014q-83 0 -144 -91.5t-75 -263.5h407q-2 163 -52.5 259t-135.5 96z" />
    <glyph glyph-name="Gcircumflex" unicode="&#x11c;" horiz-adv-x="1126" 
d="M350 1665l185 340q27 47 76 46t73 -46l186 -340l-8 -6l-250 242h-4l-252 -242zM633 -20q-112 0 -214 50.5t-183.5 145t-130 245t-48.5 335.5q0 239 72 421.5t212 286t331 103.5q158 0 317 -64l-88 -309h-4q-26 148 -102 233.5t-201 85.5q-361 0 -361 -720
q0 -381 101.5 -578t302.5 -197q95 0 147 53t52 146v561q0 129 -99 178v7h346v-7q-96 -45 -96 -178v-588q0 -128 78 -163v-7q-222 -40 -432 -40z" />
    <glyph glyph-name="gcircumflex" unicode="&#x11d;" horiz-adv-x="868" 
d="M152 1151l186 340q27 47 75 46t72 -46l187 -340l-8 -6l-250 241h-4l-250 -241zM397 -440q-171 0 -278 56.5t-107 158.5q0 80 79.5 148t187.5 102q-165 54 -199 196l2 4q145 48 240 162q-104 29 -170 119t-66 205q0 137 93.5 236.5t226.5 99.5q131 0 225 -97q33 68 79 115
t95 47q30 0 53 -25t23 -61q0 -37 -21.5 -61.5t-50.5 -24.5q-25 0 -52 25.5t-42 25.5q-34 0 -72 -53q86 -96 86 -227q0 -138 -95 -237t-228 -99q-16 0 -44 4q-3 -3 -13.5 -13t-15 -14.5t-15 -14.5t-15.5 -16t-13 -15t-12.5 -16t-9 -15.5t-6.5 -16t-2 -14.5q0 -37 33.5 -60
t86.5 -34.5t117.5 -20.5t129 -25t117.5 -40.5t86.5 -73t33.5 -117.5q0 -93 -67 -166t-172.5 -110t-227.5 -37zM238 711q0 -139 43.5 -219t124.5 -80q82 0 128 80.5t46 218.5q0 142 -43.5 220.5t-130.5 78.5q-83 0 -125.5 -79.5t-42.5 -219.5zM133 -207q0 -93 77 -144.5
t206 -51.5q137 2 233 64t96 155q0 49 -25 81t-74 49t-97.5 25.5t-120 19.5t-117.5 23q-86 -33 -132 -92.5t-46 -128.5z" />
    <glyph glyph-name="Gbreve" unicode="&#x11e;" horiz-adv-x="1126" 
d="M610 1716q-104 0 -167.5 85.5t-63.5 232.5l10 2q13 -95 75.5 -143t145.5 -48q85 0 146 47t75 144l11 -2q0 -147 -64.5 -232.5t-167.5 -85.5zM633 -20q-112 0 -214 50.5t-183.5 145t-130 245t-48.5 335.5q0 239 72 421.5t212 286t331 103.5q158 0 317 -64l-88 -309h-4
q-26 148 -102 233.5t-201 85.5q-361 0 -361 -720q0 -381 101.5 -578t302.5 -197q95 0 147 53t52 146v561q0 129 -99 178v7h346v-7q-96 -45 -96 -178v-588q0 -128 78 -163v-7q-222 -40 -432 -40z" />
    <glyph glyph-name="gbreve" unicode="&#x11f;" horiz-adv-x="868" 
d="M412 1202q-104 0 -168 85.5t-64 232.5l10 2q13 -95 75.5 -143t146.5 -48q85 0 146 47t75 144l10 -2q0 -147 -63.5 -232.5t-167.5 -85.5zM397 -440q-171 0 -278 56.5t-107 158.5q0 80 79.5 148t187.5 102q-165 54 -199 196l2 4q145 48 240 162q-104 29 -170 119t-66 205
q0 137 93.5 236.5t226.5 99.5q131 0 225 -97q33 68 79 115t95 47q30 0 53 -25t23 -61q0 -37 -21.5 -61.5t-50.5 -24.5q-25 0 -52 25.5t-42 25.5q-34 0 -72 -53q86 -96 86 -227q0 -138 -95 -237t-228 -99q-16 0 -44 4q-3 -3 -13.5 -13t-15 -14.5t-15 -14.5t-15.5 -16t-13 -15
t-12.5 -16t-9 -15.5t-6.5 -16t-2 -14.5q0 -37 33.5 -60t86.5 -34.5t117.5 -20.5t129 -25t117.5 -40.5t86.5 -73t33.5 -117.5q0 -93 -67 -166t-172.5 -110t-227.5 -37zM238 711q0 -139 43.5 -219t124.5 -80q82 0 128 80.5t46 218.5q0 142 -43.5 220.5t-130.5 78.5
q-83 0 -125.5 -79.5t-42.5 -219.5zM133 -207q0 -93 77 -144.5t206 -51.5q137 2 233 64t96 155q0 49 -25 81t-74 49t-97.5 25.5t-120 19.5t-117.5 23q-86 -33 -132 -92.5t-46 -128.5z" />
    <glyph glyph-name="Gdotaccent" unicode="&#x120;" horiz-adv-x="1126" 
d="M610 1737q-39 0 -66.5 30.5t-27.5 73.5q0 44 27 75.5t67 31.5q39 0 65.5 -31t26.5 -76q0 -43 -26.5 -73.5t-65.5 -30.5zM633 -20q-112 0 -214 50.5t-183.5 145t-130 245t-48.5 335.5q0 239 72 421.5t212 286t331 103.5q158 0 317 -64l-88 -309h-4q-26 148 -102 233.5
t-201 85.5q-361 0 -361 -720q0 -381 101.5 -578t302.5 -197q95 0 147 53t52 146v561q0 129 -99 178v7h346v-7q-96 -45 -96 -178v-588q0 -128 78 -163v-7q-222 -40 -432 -40z" />
    <glyph glyph-name="gdotaccent" unicode="&#x121;" horiz-adv-x="868" 
d="M412 1223q-39 0 -66 30.5t-27 73.5q0 45 27 76t66 31q40 0 67 -31.5t27 -75.5q0 -43 -27.5 -73.5t-66.5 -30.5zM397 -440q-171 0 -278 56.5t-107 158.5q0 80 79.5 148t187.5 102q-165 54 -199 196l2 4q145 48 240 162q-104 29 -170 119t-66 205q0 137 93.5 236.5
t226.5 99.5q131 0 225 -97q33 68 79 115t95 47q30 0 53 -25t23 -61q0 -37 -21.5 -61.5t-50.5 -24.5q-25 0 -52 25.5t-42 25.5q-34 0 -72 -53q86 -96 86 -227q0 -138 -95 -237t-228 -99q-16 0 -44 4q-3 -3 -13.5 -13t-15 -14.5t-15 -14.5t-15.5 -16t-13 -15t-12.5 -16
t-9 -15.5t-6.5 -16t-2 -14.5q0 -37 33.5 -60t86.5 -34.5t117.5 -20.5t129 -25t117.5 -40.5t86.5 -73t33.5 -117.5q0 -93 -67 -166t-172.5 -110t-227.5 -37zM238 711q0 -139 43.5 -219t124.5 -80q82 0 128 80.5t46 218.5q0 142 -43.5 220.5t-130.5 78.5q-83 0 -125.5 -79.5
t-42.5 -219.5zM133 -207q0 -93 77 -144.5t206 -51.5q137 2 233 64t96 155q0 49 -25 81t-74 49t-97.5 25.5t-120 19.5t-117.5 23q-86 -33 -132 -92.5t-46 -128.5z" />
    <glyph glyph-name="Gcommaaccent" unicode="&#x122;" horiz-adv-x="1126" 
d="M633 -20q-112 0 -214 50.5t-183.5 145t-130 245t-48.5 335.5q0 239 72 421.5t212 286t331 103.5q158 0 317 -64l-88 -309h-4q-26 148 -102 233.5t-201 85.5q-361 0 -361 -720q0 -381 101.5 -578t302.5 -197q95 0 147 53t52 146v561q0 129 -99 178v7h346v-7
q-96 -45 -96 -178v-588q0 -128 78 -163v-7q-222 -40 -432 -40zM705 -289q0 -71 -47.5 -143t-139.5 -125l-2 4q88 101 113 195q-47 5 -78 30t-31 64q0 38 25.5 62t64.5 24t67 -32t28 -79z" />
    <glyph glyph-name="gcommaaccent" unicode="&#x123;" horiz-adv-x="868" 
d="M328 1331q0 71 47.5 143t138.5 125l2 -4q-86 -99 -115 -194q49 -5 80 -30t31 -64q0 -38 -25.5 -62t-64.5 -24t-66.5 31.5t-27.5 78.5zM397 -440q-171 0 -278 56.5t-107 158.5q0 80 79.5 148t187.5 102q-165 54 -199 196l2 4q145 48 240 162q-104 29 -170 119t-66 205
q0 137 93.5 236.5t226.5 99.5q131 0 225 -97q33 68 79 115t95 47q30 0 53 -25t23 -61q0 -37 -21.5 -61.5t-50.5 -24.5q-25 0 -52 25.5t-42 25.5q-34 0 -72 -53q86 -96 86 -227q0 -138 -95 -237t-228 -99q-16 0 -44 4q-3 -3 -13.5 -13t-15 -14.5t-15 -14.5t-15.5 -16t-13 -15
t-12.5 -16t-9 -15.5t-6.5 -16t-2 -14.5q0 -37 33.5 -60t86.5 -34.5t117.5 -20.5t129 -25t117.5 -40.5t86.5 -73t33.5 -117.5q0 -93 -67 -166t-172.5 -110t-227.5 -37zM238 711q0 -139 43.5 -219t124.5 -80q82 0 128 80.5t46 218.5q0 142 -43.5 220.5t-130.5 78.5
q-83 0 -125.5 -79.5t-42.5 -219.5zM133 -207q0 -93 77 -144.5t206 -51.5q137 2 233 64t96 155q0 49 -25 81t-74 49t-97.5 25.5t-120 19.5t-117.5 23q-86 -33 -132 -92.5t-46 -128.5z" />
    <glyph glyph-name="Hcircumflex" unicode="&#x124;" horiz-adv-x="1157" 
d="M317 1665l187 340q27 47 75 46t72 -46l187 -340l-9 -6l-249 242h-5l-249 -242zM397 0h-344v6q43 23 70 70t27 108v1168q0 56 -24.5 106t-72.5 72v6h344v-6q-47 -22 -71.5 -72.5t-24.5 -105.5v-385h551v385q0 55 -24.5 105.5t-69.5 72.5v6h344v-6q-47 -22 -72.5 -72.5
t-25.5 -105.5v-1168q0 -61 27.5 -108t70.5 -70v-6h-344v6q41 23 67.5 70.5t26.5 107.5v744h-551v-744q0 -61 26.5 -108t69.5 -70v-6z" />
    <glyph glyph-name="hcircumflex" unicode="&#x125;" horiz-adv-x="880" 
d="M-70 1665l185 340q27 47 76 46t73 -46l187 -340l-9 -6l-249 242h-7l-249 -242zM43 6q72 59 72 154v1210q0 102 -74 146v6q54 0 110.5 25.5t94.5 66.5h6v-703q0 -73 -2 -98q71 102 160.5 171t173.5 69q83 0 132.5 -60t49.5 -155v-678q0 -95 68 -154v-6h-279v6
q74 59 74 152v630q0 69 -32.5 111.5t-94.5 42.5q-47 0 -112 -37.5t-138 -116.5v-630q0 -83 63 -152v-6h-272v6z" />
    <glyph glyph-name="Hbar" unicode="&#x126;" horiz-adv-x="1157" 
d="M397 0h-344v6q43 23 70 70t27 108v901h-111v39h111v228q0 56 -24.5 106t-72.5 72v6h344v-6q-47 -22 -71.5 -72.5t-24.5 -105.5v-228h551v228q0 55 -24.5 105.5t-69.5 72.5v6h344v-6q-47 -22 -72.5 -72.5t-25.5 -105.5v-228h114v-39h-114v-901q0 -61 27.5 -108t70.5 -70
v-6h-344v6q41 23 67.5 70.5t26.5 107.5v553h-551v-553q0 -61 26.5 -108t69.5 -70v-6zM301 776h551v309h-551v-309z" />
    <glyph glyph-name="hbar" unicode="&#x127;" horiz-adv-x="880" 
d="M43 6q72 59 72 154v1083h-86v39h86v88q0 102 -74 146v6q54 0 110.5 25.5t94.5 66.5h6v-332h231v-39h-231v-332q0 -73 -2 -98q71 102 160.5 171t173.5 69q83 0 132.5 -60t49.5 -155v-678q0 -95 68 -154v-6h-279v6q74 59 74 152v630q0 69 -32.5 111.5t-94.5 42.5
q-47 0 -112 -37.5t-138 -116.5v-630q0 -83 63 -152v-6h-272v6z" />
    <glyph glyph-name="Itilde" unicode="&#x128;" horiz-adv-x="456" 
d="M319 1724q-34 0 -69 24t-60 52t-54.5 52t-53.5 24q-75 0 -96 -137l-11 2q9 118 52 179.5t112 61.5q34 0 70 -24t60.5 -52.5t55 -52.5t54.5 -24q74 0 92 141l10 -2q-18 -244 -162 -244zM399 0h-344v6q44 22 70.5 68.5t26.5 109.5v1168q0 55 -25 105.5t-72 72.5v6h344v-6
q-46 -22 -70 -72t-24 -106v-1168q0 -61 26.5 -108t67.5 -70v-6z" />
    <glyph glyph-name="itilde" unicode="&#x129;" horiz-adv-x="380" 
d="M276 1210q-34 0 -69.5 24t-60 52t-54 52t-53.5 24q-77 0 -98 -137l-11 2q9 118 52 179.5t112 61.5q35 0 71 -24t60.5 -52.5t54.5 -52.5t54 -24q74 0 92 141l10 -2q-15 -244 -160 -244zM55 0v6q70 45 70 158v624q0 127 -72 162v6q55 0 112 26.5t97 66.5h4v-885
q0 -116 58 -158v-6h-269z" />
    <glyph glyph-name="Imacron" unicode="&#x12a;" horiz-adv-x="456" 
d="M12 1792v70h434v-70h-434zM399 0h-344v6q44 22 70.5 68.5t26.5 109.5v1168q0 55 -25 105.5t-72 72.5v6h344v-6q-46 -22 -70 -72t-24 -106v-1168q0 -61 26.5 -108t67.5 -70v-6z" />
    <glyph glyph-name="imacron" unicode="&#x12b;" horiz-adv-x="380" 
d="M-33 1278v70h434v-70h-434zM55 0v6q70 45 70 158v624q0 127 -72 162v6q55 0 112 26.5t97 66.5h4v-885q0 -116 58 -158v-6h-269z" />
    <glyph glyph-name="Ibreve" unicode="&#x12c;" horiz-adv-x="456" 
d="M229 1716q-104 0 -167.5 85.5t-63.5 232.5l10 2q13 -95 75.5 -143t145.5 -48q85 0 146.5 47t75.5 144l10 -2q0 -147 -64.5 -232.5t-167.5 -85.5zM399 0h-344v6q44 22 70.5 68.5t26.5 109.5v1168q0 55 -25 105.5t-72 72.5v6h344v-6q-46 -22 -70 -72t-24 -106v-1168
q0 -61 26.5 -108t67.5 -70v-6z" />
    <glyph glyph-name="ibreve" unicode="&#x12d;" horiz-adv-x="380" 
d="M184 1202q-103 0 -167 85.5t-64 232.5l10 2q14 -95 76 -143t145 -48q85 0 147 47t75 144l10 -2q0 -147 -64 -232.5t-168 -85.5zM55 0v6q70 45 70 158v624q0 127 -72 162v6q55 0 112 26.5t97 66.5h4v-885q0 -116 58 -158v-6h-269z" />
    <glyph glyph-name="Iogonek" unicode="&#x12e;" horiz-adv-x="456" 
d="M399 0h-159q-107 -99 -107 -217q0 -64 37.5 -103.5t95.5 -39.5q108 0 187 81l6 -6q-108 -176 -258 -176q-80 0 -137.5 51t-57.5 127q0 145 211 283h-162v6q44 22 70.5 68.5t26.5 109.5v1168q0 55 -25 105.5t-72 72.5v6h344v-6q-46 -22 -70 -72t-24 -106v-1168
q0 -61 26.5 -108t67.5 -70v-6z" />
    <glyph glyph-name="iogonek" unicode="&#x12f;" horiz-adv-x="380" 
d="M182 1223q-38 0 -65 30.5t-27 73.5q0 44 27 75.5t65 31.5q40 0 68.5 -31.5t28.5 -75.5q0 -43 -28.5 -73.5t-68.5 -30.5zM55 0v6q70 45 70 158v624q0 127 -72 162v6q55 0 112 26.5t97 66.5h4v-885q0 -116 58 -158q4 1 8.5 4.5t5.5 3.5l6 -8q-113 -102 -113 -223
q0 -64 37.5 -103.5t96.5 -39.5q107 0 186 81l6 -6q-108 -176 -258 -176q-80 0 -137.5 51t-57.5 127q0 145 211 283h-260z" />
    <glyph glyph-name="Idotaccent" unicode="&#x130;" horiz-adv-x="456" 
d="M229 1737q-39 0 -66.5 30.5t-27.5 73.5q0 44 27 75.5t67 31.5q39 0 66 -31t27 -76q0 -43 -27 -73.5t-66 -30.5zM399 0h-344v6q44 22 70.5 68.5t26.5 109.5v1168q0 55 -25 105.5t-72 72.5v6h344v-6q-46 -22 -70 -72t-24 -106v-1168q0 -61 26.5 -108t67.5 -70v-6z" />
    <glyph glyph-name="dotlessi" unicode="&#x131;" horiz-adv-x="380" 
d="M55 0v6q70 45 70 158v624q0 127 -72 162v6q55 0 112 26.5t97 66.5h4v-885q0 -116 58 -158v-6h-269z" />
    <glyph glyph-name="IJ" unicode="&#x132;" horiz-adv-x="995" 
d="M506 -31q-83 0 -149.5 23.5t-104.5 60t-58 76t-20 76.5q0 43 25 72.5t65 29.5q45 0 72.5 -36.5t32.5 -98.5q8 -86 39.5 -125t103.5 -39q88 0 141.5 93t53.5 274v944q0 75 -28.5 130t-82.5 81v6h358v-6q-48 -23 -73 -78.5t-25 -132.5v-944q0 -193 -99 -299.5t-251 -106.5z
M37 504v6q43 23 69.5 69.5t26.5 108.5v664q0 55 -24.5 105.5t-71.5 72.5v6h344v-6q-48 -22 -72 -72t-24 -106v-664q0 -62 27 -108.5t69 -69.5v-6h-344z" />
    <glyph glyph-name="ij" unicode="&#x133;" horiz-adv-x="735" 
d="M457 1327q0 44 27 75.5t65 31.5q40 0 67 -31.5t27 -75.5q0 -43 -27.5 -73.5t-66.5 -30.5q-38 0 -65 30.5t-27 73.5zM182 1223q-38 0 -65 30.5t-27 73.5q0 44 27 75.5t65 31.5q40 0 68.5 -31.5t28.5 -75.5q0 -43 -28.5 -73.5t-68.5 -30.5zM209 -299q0 36 20 61t50 25
q23 0 38.5 -14t25 -33.5t20.5 -39.5t32.5 -34t53.5 -14q54 0 89 52.5t35 125.5q0 55 -22.5 102.5t-58.5 67.5v788q0 127 -72 162v6q55 0 112 26.5t97 66.5h4v-1147q0 -146 -71.5 -236t-188.5 -90q-69 0 -116.5 33.5t-47.5 91.5zM55 0v6q70 45 70 158v624q0 127 -72 162v6
q55 0 112 26.5t97 66.5h4v-885q0 -116 58 -158v-6h-269z" />
    <glyph glyph-name="Jcircumflex" unicode="&#x134;" horiz-adv-x="786" 
d="M328 1665l184 340q27 47 76.5 46t73.5 -46l186 -340l-8 -6l-250 242h-6l-250 -242zM319 -31q-81 0 -146.5 23.5t-103.5 60.5t-57.5 77.5t-19.5 78.5q0 44 25 75t63 31q44 0 69.5 -37t30.5 -102q8 -87 40.5 -127.5t103.5 -40.5q86 0 138 92.5t52 274.5v944q0 159 -111 211
v6h359v-6q-96 -44 -96 -211v-944q0 -193 -99 -299.5t-248 -106.5z" />
    <glyph glyph-name="jcircumflex" unicode="&#x135;" horiz-adv-x="368" 
d="M-78 1151l187 340q27 47 75 46t72 -46l186 -340l-8 -6l-250 241h-4l-250 -241zM-158 -299q0 36 19 61t49 25q28 0 46 -21t27.5 -46.5t34.5 -46.5t64 -21q53 0 89 53t36 125q0 55 -23 102.5t-61 67.5v788q0 124 -70 162v6q54 0 110.5 26.5t96.5 66.5h4v-1147
q0 -146 -71.5 -236t-188.5 -90q-69 0 -115.5 33.5t-46.5 91.5z" />
    <glyph glyph-name="Kcommaaccent" unicode="&#x136;" horiz-adv-x="1046" 
d="M397 0h-344v6q44 23 70.5 69t26.5 109v1168q0 58 -24.5 107t-72.5 71v6h344v-6q-48 -22 -73 -71t-25 -107v-633l420 555q56 76 55.5 148t-53.5 108v6h321v-6q-64 -40 -144.5 -116.5t-158.5 -178.5l-200 -264l391 -774q32 -64 69.5 -117t63.5 -72v-8h-326v8q36 30 46 62.5
t1 64.5t-36 84l-312 619l-137 -181v-473q0 -63 27 -109t71 -69v-6zM702 -289q0 -71 -47.5 -143t-138.5 -125l-2 4q89 106 113 195q-47 5 -78 30t-31 64q0 38 25.5 62t64.5 24t66.5 -32t27.5 -79z" />
    <glyph glyph-name="kcommaaccent" unicode="&#x137;" horiz-adv-x="806" 
d="M252 1614v-1161l287 389q41 59 39 104t-46 70v6h279v-6q-137 -66 -236 -201l-141 -186l271 -482q35 -61 55.5 -88.5t50.5 -52.5v-6h-266v6q20 18 23 43t-3.5 45t-21.5 53l-199 363l-92 -123v-223q0 -113 63 -158v-6h-266v6q66 43 66 156v1192q0 114 -74 162v6
q55 0 111 26t92 66h8zM506 -289q0 -71 -47.5 -143t-139.5 -125l-4 4q91 104 115 195q-47 5 -77.5 30t-30.5 64q0 38 25.5 62t62.5 24q40 0 68 -32t28 -79z" />
    <glyph glyph-name="Lacute" unicode="&#x139;" horiz-adv-x="843" 
d="M311 2021q26 29 56 36t63 -17q27 -26 26.5 -61t-24.5 -62q-23 -27 -127 -105t-184 -149l-6 6q62 95 118.5 211t77.5 141zM655 0h-602v6q97 45 97 178v1168q0 129 -97 178v6h344v-6q-96 -49 -96 -178v-1137q0 -97 32.5 -139.5t117.5 -42.5q59 0 111.5 20.5t100 63t86 90
t85.5 117.5l8 -5l-49 -380h-7q-34 61 -131 61z" />
    <glyph glyph-name="lacute" unicode="&#x13a;" horiz-adv-x="366" 
d="M283 2021q27 29 56.5 36t61.5 -17q27 -24 28 -60.5t-23 -62.5q-23 -26 -127 -104t-185 -150l-8 6q63 96 119.5 212t77.5 140zM254 1614v-1450q0 -114 65 -158v-6h-270v6q66 45 66 158v1190q0 114 -74 162v6q55 0 111.5 26t93.5 66h8z" />
    <glyph glyph-name="Lcommaaccent" unicode="&#x13b;" horiz-adv-x="843" 
d="M655 0h-602v6q97 45 97 178v1168q0 129 -97 178v6h344v-6q-96 -49 -96 -178v-1137q0 -97 32.5 -139.5t117.5 -42.5q59 0 111.5 20.5t100 63t86 90t85.5 117.5l8 -5l-49 -380h-7q-34 61 -131 61zM520 -289q0 -71 -47.5 -143t-138.5 -125l-2 4q88 104 112 195
q-47 5 -77.5 30t-30.5 64q0 38 25.5 62t64.5 24t66.5 -32t27.5 -79z" />
    <glyph glyph-name="lcommaaccent" unicode="&#x13c;" horiz-adv-x="366" 
d="M254 1614v-1450q0 -114 65 -158v-6h-270v6q66 45 66 158v1190q0 114 -74 162v6q55 0 111.5 26t93.5 66h8zM279 -289q0 -71 -47.5 -143t-139.5 -125l-2 4q89 106 113 195q-47 5 -78 30t-31 64q0 38 25.5 62t64.5 24t67 -32t28 -79z" />
    <glyph glyph-name="Lcaron" unicode="&#x13d;" horiz-adv-x="843" 
d="M592 1503q8 29 31 44.5t51 8.5q25 -7 34.5 -36.5t-1.5 -55.5q-7 -26 -25 -63t-53 -103.5t-64 -128.5l-8 5q12 86 19 192.5t16 136.5zM655 0h-602v6q97 45 97 178v1168q0 129 -97 178v6h344v-6q-96 -49 -96 -178v-1137q0 -97 32.5 -139.5t117.5 -42.5q59 0 111.5 20.5
t100 63t86 90t85.5 117.5l8 -5l-49 -380h-7q-34 61 -131 61z" />
    <glyph glyph-name="lcaron" unicode="&#x13e;" horiz-adv-x="366" 
d="M369 1565q9 29 32 44.5t52 8.5q24 -7 33 -36.5t-1 -55.5q-7 -26 -25 -62.5t-52.5 -103.5t-63.5 -129l-8 4q11 86 18 193t15 137zM254 1614v-1450q0 -114 65 -158v-6h-270v6q66 45 66 158v1190q0 114 -74 162v6q55 0 111.5 26t93.5 66h8z" />
    <glyph glyph-name="Ldot" unicode="&#x13f;" horiz-adv-x="843" 
d="M655 0h-602v6q97 45 97 178v1168q0 129 -97 178v6h344v-6q-96 -49 -96 -178v-1137q0 -97 32.5 -139.5t117.5 -42.5q59 0 111.5 20.5t100 63t86 90t85.5 117.5l8 -5l-49 -380h-7q-34 61 -131 61zM625 672q-39 0 -66 30.5t-27 73.5q0 45 27 76t66 31q40 0 67 -31.5
t27 -75.5q0 -43 -27.5 -73.5t-66.5 -30.5z" />
    <glyph glyph-name="ldot" unicode="&#x140;" horiz-adv-x="495" 
d="M254 1614v-1450q0 -114 65 -158v-6h-270v6q66 45 66 158v1190q0 114 -74 162v6q55 0 111.5 26t93.5 66h8zM432 520q-39 0 -66.5 31t-27.5 74q0 44 27 75t67 31q38 0 65 -31t27 -75q0 -43 -27 -74t-65 -31z" />
    <glyph glyph-name="Lslash" unicode="&#x141;" horiz-adv-x="843" 
d="M655 0h-602v6q97 45 97 178v510l-97 -30v45l97 30v613q0 129 -97 178v6h344v-6q-96 -49 -96 -178v-561l279 94v-45l-279 -95v-530q0 -97 32.5 -139.5t117.5 -42.5q59 0 111.5 20.5t100 63t86 90t85.5 117.5l8 -5l-49 -380h-7q-34 61 -131 61z" />
    <glyph glyph-name="lslash" unicode="&#x142;" horiz-adv-x="366" 
d="M29 639v41l86 29v645q0 114 -74 162v6q55 0 111.5 26t93.5 66h8v-860l90 28v-41l-90 -28v-549q0 -114 65 -158v-6h-270v6q66 45 66 158v502z" />
    <glyph glyph-name="Nacute" unicode="&#x143;" horiz-adv-x="1071" 
d="M659 2001q27 29 57 35.5t62 -17.5q27 -24 27 -60t-25 -63q-23 -27 -126.5 -105t-182.5 -149l-8 7q50 75 89.5 153t63.5 127.5t43 71.5zM926 -41h-6l-725 1403v-1165q0 -132 102 -191v-6h-244v6q97 56 97 191v1122q0 67 -25 128t-72 83v6h234l596 -1178v981
q0 62 -24 114.5t-77 76.5v6h234v-6q-44 -22 -67 -76t-23 -115v-1380z" />
    <glyph glyph-name="nacute" unicode="&#x144;" horiz-adv-x="890" 
d="M543 1507q27 29 57 36t62 -17q27 -24 27.5 -60.5t-23.5 -62.5q-23 -26 -127 -104t-185 -150l-8 6q63 96 119.5 212t77.5 140zM45 6q80 64 80 158v641q0 58 -18.5 89.5t-61.5 55.5v6q57 0 115 25t98 68h4v-134q0 -75 -2 -100h2q71 101 160.5 169.5t171.5 68.5
q84 0 134 -60t50 -155v-674q0 -101 66 -158v-6h-277v6q74 62 74 156v626q0 69 -32.5 111.5t-94.5 42.5q-49 0 -114.5 -35.5t-137.5 -113.5v-631q0 -94 74 -156v-6h-291v6z" />
    <glyph glyph-name="Ncommaaccent" unicode="&#x145;" horiz-adv-x="1071" 
d="M926 -41h-6l-725 1403v-1165q0 -132 102 -191v-6h-244v6q97 56 97 191v1122q0 67 -25 128t-72 83v6h234l596 -1178v981q0 62 -24 114.5t-77 76.5v6h234v-6q-44 -22 -67 -76t-23 -115v-1380zM651 -289q0 -71 -47.5 -143t-138.5 -125l-2 4q87 100 112 195q-47 5 -77.5 30
t-30.5 64q0 38 25.5 62t64.5 24t66.5 -32t27.5 -79z" />
    <glyph glyph-name="ncommaaccent" unicode="&#x146;" horiz-adv-x="890" 
d="M45 6q80 64 80 158v641q0 58 -18.5 89.5t-61.5 55.5v6q57 0 115 25t98 68h4v-134q0 -75 -2 -100h2q71 101 160.5 169.5t171.5 68.5q84 0 134 -60t50 -155v-674q0 -101 66 -158v-6h-277v6q74 62 74 156v626q0 69 -32.5 111.5t-94.5 42.5q-49 0 -114.5 -35.5t-137.5 -113.5
v-631q0 -94 74 -156v-6h-291v6zM543 -289q0 -71 -48.5 -142.5t-140.5 -125.5l-2 4q86 98 115 195q-48 5 -78.5 30t-30.5 64q0 38 25 62t63 24q40 0 68.5 -32t28.5 -79z" />
    <glyph glyph-name="Ncaron" unicode="&#x147;" horiz-adv-x="1071" 
d="M836 2081l-187 -340q-27 -47 -75 -46t-72 46l-187 340l9 6l249 -242h5l249 242zM926 -41h-6l-725 1403v-1165q0 -132 102 -191v-6h-244v6q97 56 97 191v1122q0 67 -25 128t-72 83v6h234l596 -1178v981q0 62 -24 114.5t-77 76.5v6h234v-6q-44 -22 -67 -76t-23 -115v-1380z
" />
    <glyph glyph-name="ncaron" unicode="&#x148;" horiz-adv-x="890" 
d="M719 1587l-184 -340q-27 -47 -76.5 -46t-73.5 46l-186 340l8 6l250 -241h4l252 241zM45 6q80 64 80 158v641q0 58 -18.5 89.5t-61.5 55.5v6q57 0 115 25t98 68h4v-134q0 -75 -2 -100h2q71 101 160.5 169.5t171.5 68.5q84 0 134 -60t50 -155v-674q0 -101 66 -158v-6h-277
v6q74 62 74 156v626q0 69 -32.5 111.5t-94.5 42.5q-49 0 -114.5 -35.5t-137.5 -113.5v-631q0 -94 74 -156v-6h-291v6z" />
    <glyph glyph-name="Eng" unicode="&#x14a;" horiz-adv-x="1071" 
d="M725 -422q-72 0 -121 38.5t-49 96.5q0 31 20 53.5t48 22.5q32 0 51.5 -24.5t27 -54.5t25.5 -54.5t47 -24.5q109 0 109 203v193l-688 1339v-1169q0 -132 102 -191v-6h-244v6q97 56 97 191v1122q0 67 -25 128t-72 83v6h234l596 -1184v987q0 62 -24 114.5t-77 76.5v6h234v-6
q-44 -22 -67 -76t-23 -115v-1507q0 -123 -53 -188.5t-148 -65.5z" />
    <glyph glyph-name="eng" unicode="&#x14b;" horiz-adv-x="888" 
d="M45 0v6q80 64 80 158v641q0 58 -18.5 89.5t-61.5 55.5v6q57 0 115 25t98 68h4v-134q0 -21 -1 -55t-1 -45h2q70 102 159.5 170t172.5 68q84 0 134 -60t50 -155v-936q0 -146 -71.5 -236t-188.5 -90q-69 0 -115.5 33.5t-46.5 91.5q0 36 19.5 61t50.5 25q22 0 37.5 -14
t25 -33.5t20.5 -39.5t33 -34t54 -14q52 0 88.5 48t36.5 103q0 47 -21.5 87.5t-58.5 60.5v837q0 69 -32.5 111.5t-94.5 42.5q-49 0 -114.5 -35.5t-137.5 -113.5v-631q0 -94 74 -156v-6h-291z" />
    <glyph glyph-name="Omacron" unicode="&#x14c;" horiz-adv-x="1155" 
d="M358 1792v70h437v-70h-437zM57 768q0 215 65.5 397t185.5 292t270 110t269.5 -109.5t184 -291.5t64.5 -398q0 -215 -66 -397.5t-185.5 -292t-266.5 -109.5q-146 0 -266.5 110t-187.5 293t-67 396zM238 768q0 -360 88 -561t252 -201q165 0 251 200t86 562q0 366 -83.5 564
t-253.5 198q-169 0 -254.5 -199.5t-85.5 -562.5z" />
    <glyph glyph-name="omacron" unicode="&#x14d;" horiz-adv-x="876" 
d="M219 1278v70h436v-70h-436zM51 514q0 144 51.5 268t141 197.5t194.5 73.5q106 0 195 -73.5t139.5 -197t50.5 -268.5t-51.5 -270.5t-140.5 -200t-193 -74.5t-193.5 74.5t-141.5 200.5t-52 270zM211 514q0 -230 59.5 -371t167.5 -141q106 0 166 141t60 371q0 152 -24 263.5
t-75.5 177t-126.5 65.5q-74 0 -126 -65t-76.5 -177.5t-24.5 -263.5z" />
    <glyph glyph-name="Obreve" unicode="&#x14e;" horiz-adv-x="1155" 
d="M578 1716q-104 0 -169 85.5t-65 232.5l10 2q14 -95 77 -143t147 -48t145.5 47t75.5 144l10 -2q0 -147 -64 -232.5t-167 -85.5zM57 768q0 215 65.5 397t185.5 292t270 110t269.5 -109.5t184 -291.5t64.5 -398q0 -215 -66 -397.5t-185.5 -292t-266.5 -109.5
q-146 0 -266.5 110t-187.5 293t-67 396zM238 768q0 -360 88 -561t252 -201q165 0 251 200t86 562q0 366 -83.5 564t-253.5 198q-169 0 -254.5 -199.5t-85.5 -562.5z" />
    <glyph glyph-name="obreve" unicode="&#x14f;" horiz-adv-x="876" 
d="M438 1202q-104 0 -168.5 85.5t-64.5 232.5l10 2q14 -95 77 -143t146 -48q84 0 145.5 47t75.5 144l11 -2q0 -147 -64.5 -232.5t-167.5 -85.5zM51 514q0 144 51.5 268t141 197.5t194.5 73.5q106 0 195 -73.5t139.5 -197t50.5 -268.5t-51.5 -270.5t-140.5 -200t-193 -74.5
t-193.5 74.5t-141.5 200.5t-52 270zM211 514q0 -230 59.5 -371t167.5 -141q106 0 166 141t60 371q0 152 -24 263.5t-75.5 177t-126.5 65.5q-74 0 -126 -65t-76.5 -177.5t-24.5 -263.5z" />
    <glyph glyph-name="Ohungarumlaut" unicode="&#x150;" horiz-adv-x="1155" 
d="M743 2032q13 31 40.5 44.5t58.5 0.5q27 -12 34 -44t-8 -59q-12 -25 -42 -66.5t-80.5 -110t-92.5 -132.5l-8 4q21 72 40.5 155.5t32 132.5t25.5 75zM465 2032q14 31 40.5 44.5t57.5 0.5q28 -11 36 -43.5t-5 -59.5q-15 -30 -90.5 -130.5t-126.5 -178.5l-8 4
q20 72 39.5 155.5t31.5 132.5t25 75zM57 768q0 215 65.5 397t185.5 292t270 110t269.5 -109.5t184 -291.5t64.5 -398q0 -215 -66 -397.5t-185.5 -292t-266.5 -109.5q-146 0 -266.5 110t-187.5 293t-67 396zM238 768q0 -360 88 -561t252 -201q165 0 251 200t86 562
q0 366 -83.5 564t-253.5 198q-169 0 -254.5 -199.5t-85.5 -562.5z" />
    <glyph glyph-name="ohungarumlaut" unicode="&#x151;" horiz-adv-x="876" 
d="M604 1518q13 31 40 44.5t58 0.5q27 -12 34 -44t-7 -59q-12 -25 -42 -66.5t-80.5 -110t-92.5 -132.5l-8 4q21 72 40.5 155.5t32 132.5t25.5 75zM326 1518q14 31 40.5 44.5t57.5 0.5q28 -11 36 -43.5t-5 -59.5q-15 -30 -90.5 -130.5t-126.5 -178.5l-9 4q20 71 39.5 155
t32 133t25.5 75zM51 514q0 144 51.5 268t141 197.5t194.5 73.5q106 0 195 -73.5t139.5 -197t50.5 -268.5t-51.5 -270.5t-140.5 -200t-193 -74.5t-193.5 74.5t-141.5 200.5t-52 270zM211 514q0 -230 59.5 -371t167.5 -141q106 0 166 141t60 371q0 152 -24 263.5t-75.5 177
t-126.5 65.5q-74 0 -126 -65t-76.5 -177.5t-24.5 -263.5z" />
    <glyph glyph-name="OE" unicode="&#x152;" horiz-adv-x="1671" 
d="M1446 0h-428q-204 -12 -318 -12q-200 0 -346.5 101t-221.5 279t-75 412q0 162 34 293t92 218.5t138.5 146t170 84.5t190.5 26q58 0 159.5 -5.5t139.5 -6.5h416q99 0 133 61h6l41 -374l-8 -4q-91 141 -187.5 212.5t-230.5 71.5q-95 0 -141.5 -37.5t-46.5 -144.5v-451h301
q130 0 204 158h7v-360h-7q-95 163 -202 163h-303v-616q0 -180 208 -180q83 0 154.5 24t129 70t101 97t89.5 122l8 -4l-70 -405h-10q-37 61 -127 61zM813 188v1155q0 73 -39.5 118.5t-118.5 45.5q-102 0 -178.5 -38.5t-132 -121.5t-83.5 -218.5t-28 -323.5q0 -362 114 -568
t310 -208q156 3 156 159z" />
    <glyph glyph-name="oe" unicode="&#x153;" horiz-adv-x="1417" 
d="M53 514q0 143 51.5 267.5t140.5 198t193 73.5q99 0 182 -66t134 -178q56 113 139 178.5t182 65.5q135 0 218 -115t83 -285v-28h-557q-2 -20 -2 -66q0 -128 30.5 -231t96 -168.5t156.5 -65.5q82 0 148 43.5t106 122.5l10 -4q-45 -137 -132.5 -212t-195.5 -75
q-93 0 -172.5 56t-126.5 157q-54 -99 -132 -156t-167 -57q-103 0 -192 74.5t-141 200.5t-52 270zM666 514q0 231 -58 368.5t-170 137.5q-109 0 -167 -138t-58 -368q0 -231 59 -371.5t166 -140.5q108 0 168 141t60 371zM1038 1014q-82 0 -142.5 -92t-74.5 -263h406
q0 162 -52 258.5t-137 96.5z" />
    <glyph glyph-name="Racute" unicode="&#x154;" horiz-adv-x="1028" 
d="M602 2021q27 29 57 36t62 -17q27 -24 27 -60t-25 -63q-23 -27 -126.5 -105t-182.5 -149l-8 6q50 75 89.5 153t63.5 127.5t43 71.5zM53 1516q261 40 410 40q233 0 367.5 -119.5t134.5 -316.5q0 -93 -28.5 -172t-78 -134t-109.5 -91.5t-128 -54.5q186 -487 426 -727l-5 -7
q-182 101 -339.5 289t-241.5 432q-86 9 -162 45v-516q0 -133 98 -178v-6h-344v6q97 44 97 178v1164q0 115 -97 161v7zM299 1333v-608q96 -29 166 -29q155 0 243.5 105.5t88.5 296.5q0 192 -82.5 306t-229.5 114q-186 0 -186 -185z" />
    <glyph glyph-name="racute" unicode="&#x155;" horiz-adv-x="595" 
d="M410 1507q25 29 56 36t62 -17q27 -24 27 -60t-25 -63q-23 -27 -127 -105t-184 -149l-6 6q63 96 119.5 212t77.5 140zM262 907q0 -17 -1 -48t-1 -38v-2q32 97 103 165.5t141 68.5q45 0 77.5 -32t32.5 -77q0 -39 -24 -64.5t-58 -25.5q-33 0 -73 36t-64 36q-67 0 -133 -138
v-624q0 -94 74 -158v-6h-291v6q80 63 80 158v641q0 57 -18 89t-62 56v6q56 0 115 26t98 67h4v-142z" />
    <glyph glyph-name="Rcommaaccent" unicode="&#x156;" horiz-adv-x="1028" 
d="M53 1516q261 40 410 40q233 0 367.5 -119.5t134.5 -316.5q0 -93 -28.5 -172t-78 -134t-109.5 -91.5t-128 -54.5q186 -487 426 -727l-5 -7q-182 101 -339.5 289t-241.5 432q-86 9 -162 45v-516q0 -133 98 -178v-6h-344v6q97 44 97 178v1164q0 115 -97 161v7zM299 1333
v-608q96 -29 166 -29q155 0 243.5 105.5t88.5 296.5q0 192 -82.5 306t-229.5 114q-186 0 -186 -185zM641 -289q0 -71 -48 -143t-140 -125l-2 4q84 97 114 195q-48 5 -78 30t-30 64q0 38 25 62t63 24q40 0 68 -32t28 -79z" />
    <glyph glyph-name="rcommaaccent" unicode="&#x157;" horiz-adv-x="595" 
d="M262 907q0 -17 -1 -48t-1 -38v-2q32 97 103 165.5t141 68.5q45 0 77.5 -32t32.5 -77q0 -39 -24 -64.5t-58 -25.5q-33 0 -73 36t-64 36q-67 0 -133 -138v-624q0 -94 74 -158v-6h-291v6q80 63 80 158v641q0 57 -18 89t-62 56v6q56 0 115 26t98 67h4v-142zM287 -289
q0 -71 -47.5 -143t-139.5 -125l-2 4q89 106 113 195q-47 5 -78 30t-31 64q0 38 26 62t65 24t66.5 -32t27.5 -79z" />
    <glyph glyph-name="Rcaron" unicode="&#x158;" horiz-adv-x="1028" 
d="M778 2101l-186 -340q-27 -47 -75.5 -46t-72.5 46l-186 340l8 6l250 -241h4l250 241zM53 1516q261 40 410 40q233 0 367.5 -119.5t134.5 -316.5q0 -93 -28.5 -172t-78 -134t-109.5 -91.5t-128 -54.5q186 -487 426 -727l-5 -7q-182 101 -339.5 289t-241.5 432
q-86 9 -162 45v-516q0 -133 98 -178v-6h-344v6q97 44 97 178v1164q0 115 -97 161v7zM299 1333v-608q96 -29 166 -29q155 0 243.5 105.5t88.5 296.5q0 192 -82.5 306t-229.5 114q-186 0 -186 -185z" />
    <glyph glyph-name="rcaron" unicode="&#x159;" horiz-adv-x="595" 
d="M586 1587l-187 -340q-27 -47 -75.5 -46t-73.5 46l-184 340l6 6l252 -241h4l250 241zM262 907q0 -17 -1 -48t-1 -38v-2q32 97 103 165.5t141 68.5q45 0 77.5 -32t32.5 -77q0 -39 -24 -64.5t-58 -25.5q-33 0 -73 36t-64 36q-67 0 -133 -138v-624q0 -94 74 -158v-6h-291v6
q80 63 80 158v641q0 57 -18 89t-62 56v6q56 0 115 26t98 67h4v-142z" />
    <glyph glyph-name="Sacute" unicode="&#x15a;" horiz-adv-x="944" 
d="M561 2021q25 29 56.5 36t62.5 -17q27 -24 27 -60t-25 -63q-23 -27 -127 -105t-184 -149l-6 6q50 75 89.5 153t63.5 127.5t43 71.5zM891 432q0 -197 -139 -330t-367 -133q-192 0 -391 88l112 344h11q5 -186 83 -287.5t222 -101.5q101 0 183 49.5t125.5 126.5t43.5 164
q0 45 -10 84t-24.5 69t-41.5 58.5t-49.5 48t-61.5 42.5t-65 36t-71 35q-47 23 -76 38t-71 40.5t-68 48t-56 55.5t-46.5 67.5t-28 80t-11.5 96.5q0 116 49 209.5t146.5 150t226.5 56.5q139 0 307 -41l-92 -336h-8q-6 156 -75 245t-187 89q-113 0 -181.5 -82.5t-68.5 -218.5
q0 -67 23 -119.5t77 -95t93 -65.5t121 -63l12 -6q64 -31 105 -55t93.5 -64.5t82.5 -82.5t51.5 -104.5t21.5 -135.5z" />
    <glyph glyph-name="sacute" unicode="&#x15b;" horiz-adv-x="686" 
d="M430 1507q25 29 56.5 36t62.5 -17q27 -24 27 -60t-25 -63q-23 -27 -127 -105t-184 -149l-7 6q63 96 119.5 212t77.5 140zM659 301q0 -156 -104 -243t-264 -87q-127 0 -287 56l92 258h8q12 -132 75.5 -203.5t166.5 -71.5q93 0 149 58.5t56 158.5q0 46 -17 81t-53.5 61.5
t-67 41.5t-84.5 38l-3 1.5t-3 1t-4 1.5q-45 19 -74 34t-65 41t-57 54t-36 70t-15 93q0 133 99 220.5t253 87.5q78 0 178 -29l-55 -231h-6q-12 105 -63 162t-124 57q-81 0 -128.5 -59t-47.5 -142q0 -27 7 -50t16 -40.5t28.5 -34.5t34 -28t42.5 -25t44 -21.5t49 -21.5
q41 -18 63.5 -28t58.5 -30t56 -40t41.5 -48t31 -64t9.5 -79z" />
    <glyph glyph-name="Scircumflex" unicode="&#x15c;" horiz-adv-x="944" 
d="M213 1665l184 340q27 47 76.5 46t73.5 -46l186 -340l-8 -6l-250 242h-4l-252 -242zM891 432q0 -197 -139 -330t-367 -133q-192 0 -391 88l112 344h11q5 -186 83 -287.5t222 -101.5q101 0 183 49.5t125.5 126.5t43.5 164q0 45 -10 84t-24.5 69t-41.5 58.5t-49.5 48
t-61.5 42.5t-65 36t-71 35q-47 23 -76 38t-71 40.5t-68 48t-56 55.5t-46.5 67.5t-28 80t-11.5 96.5q0 116 49 209.5t146.5 150t226.5 56.5q139 0 307 -41l-92 -336h-8q-6 156 -75 245t-187 89q-113 0 -181.5 -82.5t-68.5 -218.5q0 -67 23 -119.5t77 -95t93 -65.5t121 -63
l12 -6q64 -31 105 -55t93.5 -64.5t82.5 -82.5t51.5 -104.5t21.5 -135.5z" />
    <glyph glyph-name="scircumflex" unicode="&#x15d;" horiz-adv-x="686" 
d="M82 1151l184 340q27 47 76.5 46t73.5 -46l186 -340l-8 -6l-250 241h-4l-252 -241zM659 301q0 -156 -104 -243t-264 -87q-127 0 -287 56l92 258h8q12 -132 75.5 -203.5t166.5 -71.5q93 0 149 58.5t56 158.5q0 46 -17 81t-53.5 61.5t-67 41.5t-84.5 38l-3 1.5t-3 1t-4 1.5
q-45 19 -74 34t-65 41t-57 54t-36 70t-15 93q0 133 99 220.5t253 87.5q78 0 178 -29l-55 -231h-6q-12 105 -63 162t-124 57q-81 0 -128.5 -59t-47.5 -142q0 -27 7 -50t16 -40.5t28.5 -34.5t34 -28t42.5 -25t44 -21.5t49 -21.5q41 -18 63.5 -28t58.5 -30t56 -40t41.5 -48
t31 -64t9.5 -79z" />
    <glyph glyph-name="Scedilla" unicode="&#x15e;" horiz-adv-x="944" 
d="M367 -182l32 151h-14q-192 0 -391 88l112 344h11q5 -182 79.5 -283.5t211.5 -105.5v2l18 -2q99 1 180 50t124.5 126.5t43.5 163.5q0 45 -10 84t-24.5 69t-41.5 58.5t-49.5 48t-61.5 42.5t-65 36t-71 35q-47 23 -76 38t-71 40.5t-68 48t-56 55.5t-46.5 67.5t-28 80
t-11.5 96.5q0 116 49 209.5t146.5 150t226.5 56.5q139 0 307 -41l-92 -336h-8q-6 156 -75 245t-187 89q-113 0 -181.5 -82.5t-68.5 -218.5q0 -67 23 -119.5t77 -95t93 -65.5t121 -63l12 -6q64 -31 105 -55t93.5 -64.5t82.5 -82.5t51.5 -104.5t21.5 -135.5q0 -187 -127 -318
t-338 -143l-10 -49q84 -8 141 -57.5t57 -122.5q0 -80 -66.5 -133t-158.5 -53q-90 0 -148.5 31.5t-58.5 80.5q0 27 16 46.5t44 19.5q54 0 75 -74q23 -78 86 -78q45 0 77 30t32 83q0 116 -139 123h-6z" />
    <glyph glyph-name="scedilla" unicode="&#x15f;" horiz-adv-x="686" 
d="M287 -199l37 170h-33q-127 0 -287 56l92 258h8q12 -132 75.5 -203.5t166.5 -71.5q93 0 149 58.5t56 158.5q0 46 -17 81t-53.5 61.5t-67 41.5t-84.5 38l-3 1.5t-3 1t-4 1.5q-45 19 -74 34t-65 41t-57 54t-36 70t-15 93q0 133 99 220.5t253 87.5q78 0 178 -29l-55 -231h-6
q-12 105 -63 162t-124 57q-81 0 -128.5 -59t-47.5 -142q0 -27 7 -50t16 -40.5t28.5 -34.5t34 -28t42.5 -25t44 -21.5t49 -21.5q41 -18 63.5 -28t58.5 -30t56 -40t41.5 -48t31 -64t9.5 -79q0 -141 -85 -225.5t-224 -100.5l-16 -69q85 -8 143 -57.5t58 -122.5
q0 -80 -67.5 -133.5t-158.5 -53.5q-90 0 -148.5 32t-58.5 81q0 26 16 45.5t44 19.5q27 0 46.5 -20t27.5 -53q27 -78 88 -78q45 0 76.5 29.5t31.5 82.5q0 116 -141 123h-4z" />
    <glyph glyph-name="Scaron" unicode="&#x160;" horiz-adv-x="944" 
d="M737 2101l-186 -340q-27 -47 -76 -46t-74 46l-184 340l6 6l252 -241h4l250 241zM891 432q0 -197 -139 -330t-367 -133q-192 0 -391 88l112 344h11q5 -186 83 -287.5t222 -101.5q101 0 183 49.5t125.5 126.5t43.5 164q0 45 -10 84t-24.5 69t-41.5 58.5t-49.5 48
t-61.5 42.5t-65 36t-71 35q-47 23 -76 38t-71 40.5t-68 48t-56 55.5t-46.5 67.5t-28 80t-11.5 96.5q0 116 49 209.5t146.5 150t226.5 56.5q139 0 307 -41l-92 -336h-8q-6 156 -75 245t-187 89q-113 0 -181.5 -82.5t-68.5 -218.5q0 -67 23 -119.5t77 -95t93 -65.5t121 -63
l12 -6q64 -31 105 -55t93.5 -64.5t82.5 -82.5t51.5 -104.5t21.5 -135.5z" />
    <glyph glyph-name="scaron" unicode="&#x161;" horiz-adv-x="686" 
d="M606 1587l-186 -340q-27 -47 -76 -46t-74 46l-184 340l6 6l252 -241h4l250 241zM659 301q0 -156 -104 -243t-264 -87q-127 0 -287 56l92 258h8q12 -132 75.5 -203.5t166.5 -71.5q93 0 149 58.5t56 158.5q0 46 -17 81t-53.5 61.5t-67 41.5t-84.5 38l-3 1.5t-3 1t-4 1.5
q-45 19 -74 34t-65 41t-57 54t-36 70t-15 93q0 133 99 220.5t253 87.5q78 0 178 -29l-55 -231h-6q-12 105 -63 162t-124 57q-81 0 -128.5 -59t-47.5 -142q0 -27 7 -50t16 -40.5t28.5 -34.5t34 -28t42.5 -25t44 -21.5t49 -21.5q41 -18 63.5 -28t58.5 -30t56 -40t41.5 -48
t31 -64t9.5 -79z" />
    <glyph glyph-name="Tcedilla" unicode="&#x162;" horiz-adv-x="952" 
d="M420 -182l39 182h-148v6q90 62 90 168v1212q0 59 -27 86t-87 27q-39 0 -78 -22t-76 -64t-67.5 -87t-65.5 -107l-12 6l73 372h9q30 -61 125 -61h563q90 0 127 61h6l74 -372l-11 -6q-73 128 -144 204t-144 76q-57 0 -85 -27.5t-28 -85.5v-1212q0 -105 88 -168v-6h-154
l-18 -78q84 -8 141.5 -57.5t57.5 -122.5q0 -80 -67 -133t-159 -53q-90 0 -148 31.5t-58 80.5q0 27 15.5 46.5t43.5 19.5q27 0 47 -20.5t29 -53.5q23 -78 86 -78q45 0 76.5 30t31.5 83q0 116 -139 123h-6z" />
    <glyph glyph-name="tcedilla" unicode="&#x163;" horiz-adv-x="512" 
d="M125 166v813h-127v10q188 83 264 299h6v-266h230v-43h-230v-799q0 -59 26.5 -92t76.5 -33q77 0 159 72l7 -6q-43 -62 -102.5 -103t-121.5 -47l-12 -49q85 -8 143 -57.5t58 -122.5q0 -80 -68 -133t-158 -53t-149 31.5t-59 80.5q0 27 16 46.5t45 19.5q53 0 74 -74
q23 -78 88 -78q45 0 75.5 30t30.5 83q0 116 -139 123h-4l31 151q-72 3 -116 55.5t-44 141.5z" />
    <glyph glyph-name="Tcaron" unicode="&#x164;" horiz-adv-x="952" 
d="M739 2105l-184 -340q-27 -47 -76 -46t-73 46l-187 340l8 6l250 -241h4l252 241zM195 1536h563q90 0 127 61h6l74 -372l-11 -6q-73 128 -144 204t-144 76q-57 0 -85 -27.5t-28 -85.5v-1212q0 -105 88 -168v-6h-330v6q90 62 90 168v1212q0 59 -27 86t-87 27q-39 0 -78 -22
t-76 -64t-67.5 -87t-65.5 -107l-12 6l73 372h9q30 -61 125 -61z" />
    <glyph glyph-name="tcaron" unicode="&#x165;" horiz-adv-x="512" 
d="M428 1516q8 29 31 44.5t51 8.5q25 -7 34.5 -36.5t-1.5 -55.5q-7 -26 -25 -63t-53 -103.5t-64 -128.5l-8 4q12 86 19 193t16 137zM125 166v813h-127v10q188 83 264 299h6v-266h230v-43h-230v-799q0 -59 26.5 -92t76.5 -33q77 0 159 72l7 -6q-48 -66 -112.5 -109
t-131.5 -43q-75 0 -121.5 52.5t-46.5 144.5z" />
    <glyph glyph-name="Tbar" unicode="&#x166;" horiz-adv-x="952" 
d="M203 803v39h198v544q0 59 -27 86t-87 27q-39 0 -78 -22t-76 -64t-67.5 -87t-65.5 -107l-12 6l73 372h9q30 -61 125 -61h563q90 0 127 61h6l74 -372l-11 -6q-73 128 -144 204t-144 76q-57 0 -85 -27.5t-28 -85.5v-544h197v-39h-197v-629q0 -105 88 -168v-6h-330v6
q90 62 90 168v629h-198z" />
    <glyph glyph-name="tbar" unicode="&#x167;" horiz-adv-x="512" 
d="M125 166v405h-119v39h119v369h-127v10q188 83 264 299h6v-266h230v-43h-230v-369h230v-39h-230v-391q0 -59 26.5 -92t76.5 -33q77 0 159 72l7 -6q-48 -66 -112.5 -109t-131.5 -43q-75 0 -121.5 52.5t-46.5 144.5z" />
    <glyph glyph-name="Utilde" unicode="&#x168;" horiz-adv-x="1122" 
d="M684 1724q-34 0 -70 24t-60.5 52t-54 52t-53.5 24q-77 0 -98 -137l-10 2q9 118 52 179.5t112 61.5q35 0 70.5 -24t60 -52.5t54.5 -52.5t54 -24q75 0 93 141l10 -2q-15 -244 -160 -244zM297 455q0 -186 92.5 -297t231.5 -111t224 104.5t85 297.5v841q0 79 -32.5 144
t-96.5 96v6h286v-6q-56 -28 -84 -94t-28 -146v-841q0 -220 -110 -348t-292 -128q-190 0 -308 128t-118 348v903q0 135 -88 178v6h334v-6q-50 -25 -73 -66t-23 -112v-897z" />
    <glyph glyph-name="utilde" unicode="&#x169;" horiz-adv-x="882" 
d="M524 1210q-34 0 -69.5 24t-60 52t-54 52t-53.5 24q-78 0 -99 -137l-10 2q9 118 52 179.5t112 61.5q35 0 71 -24t60.5 -52.5t54.5 -52.5t54 -24q74 0 92 141l10 -2q-15 -244 -160 -244zM621 111q0 79 2 104h-2q-71 -104 -159 -175t-171 -71q-85 0 -133.5 59.5t-48.5 155.5
v617q0 60 -17 93t-55 56v6q53 0 108.5 25.5t94.5 67.5h6v-816q0 -69 32 -111t95 -42q46 0 110.5 37t137.5 116v568q0 60 -16.5 93.5t-55.5 55.5v6q53 0 108.5 25.5t94.5 67.5h6v-844q0 -59 18.5 -92.5t59.5 -57.5v-6q-124 0 -209 -76h-6v138z" />
    <glyph glyph-name="Umacron" unicode="&#x16a;" horiz-adv-x="1122" 
d="M375 1792v70h434v-70h-434zM297 455q0 -186 92.5 -297t231.5 -111t224 104.5t85 297.5v841q0 79 -32.5 144t-96.5 96v6h286v-6q-56 -28 -84 -94t-28 -146v-841q0 -220 -110 -348t-292 -128q-190 0 -308 128t-118 348v903q0 135 -88 178v6h334v-6q-50 -25 -73 -66
t-23 -112v-897z" />
    <glyph glyph-name="umacron" unicode="&#x16b;" horiz-adv-x="882" 
d="M215 1278v70h434v-70h-434zM621 111q0 79 2 104h-2q-71 -104 -159 -175t-171 -71q-85 0 -133.5 59.5t-48.5 155.5v617q0 60 -17 93t-55 56v6q53 0 108.5 25.5t94.5 67.5h6v-816q0 -69 32 -111t95 -42q46 0 110.5 37t137.5 116v568q0 60 -16.5 93.5t-55.5 55.5v6
q53 0 108.5 25.5t94.5 67.5h6v-844q0 -59 18.5 -92.5t59.5 -57.5v-6q-124 0 -209 -76h-6v138z" />
    <glyph glyph-name="Ubreve" unicode="&#x16c;" horiz-adv-x="1122" 
d="M592 1716q-103 0 -167.5 85.5t-64.5 232.5l11 2q14 -95 76 -143t145 -48q85 0 146.5 47t74.5 144l10 -2q0 -147 -63.5 -232.5t-167.5 -85.5zM297 455q0 -186 92.5 -297t231.5 -111t224 104.5t85 297.5v841q0 79 -32.5 144t-96.5 96v6h286v-6q-56 -28 -84 -94t-28 -146
v-841q0 -220 -110 -348t-292 -128q-190 0 -308 128t-118 348v903q0 135 -88 178v6h334v-6q-50 -25 -73 -66t-23 -112v-897z" />
    <glyph glyph-name="ubreve" unicode="&#x16d;" horiz-adv-x="882" 
d="M432 1202q-103 0 -167 85.5t-64 232.5l10 2q14 -95 76 -143t145 -48q85 0 146.5 47t74.5 144l11 -2q0 -147 -64 -232.5t-168 -85.5zM621 111q0 79 2 104h-2q-71 -104 -159 -175t-171 -71q-85 0 -133.5 59.5t-48.5 155.5v617q0 60 -17 93t-55 56v6q53 0 108.5 25.5
t94.5 67.5h6v-816q0 -69 32 -111t95 -42q46 0 110.5 37t137.5 116v568q0 60 -16.5 93.5t-55.5 55.5v6q53 0 108.5 25.5t94.5 67.5h6v-844q0 -59 18.5 -92.5t59.5 -57.5v-6q-124 0 -209 -76h-6v138z" />
    <glyph glyph-name="Uring" unicode="&#x16e;" horiz-adv-x="1122" 
d="M385 1901q0 93 60 161t147 68t146 -67t59 -162t-59 -162.5t-146 -67.5q-84 0 -145.5 68.5t-61.5 161.5zM489 1901q0 -94 27 -147.5t76 -53.5q100 0 100 201q0 200 -100 200q-50 0 -76.5 -52.5t-26.5 -147.5zM297 455q0 -186 92.5 -297t231.5 -111t224 104.5t85 297.5v841
q0 79 -32.5 144t-96.5 96v6h286v-6q-56 -28 -84 -94t-28 -146v-841q0 -220 -110 -348t-292 -128q-190 0 -308 128t-118 348v903q0 135 -88 178v6h334v-6q-50 -25 -73 -66t-23 -112v-897z" />
    <glyph glyph-name="uring" unicode="&#x16f;" horiz-adv-x="882" 
d="M225 1386q0 93 60 161.5t147 68.5t146 -67.5t59 -162.5t-59 -162t-146 -67q-84 0 -145.5 68t-61.5 161zM330 1386q0 -95 26.5 -147.5t75.5 -52.5q100 0 100 200q0 201 -100 201q-50 0 -76 -53t-26 -148zM621 111q0 79 2 104h-2q-71 -104 -159 -175t-171 -71
q-85 0 -133.5 59.5t-48.5 155.5v617q0 60 -17 93t-55 56v6q53 0 108.5 25.5t94.5 67.5h6v-816q0 -69 32 -111t95 -42q46 0 110.5 37t137.5 116v568q0 60 -16.5 93.5t-55.5 55.5v6q53 0 108.5 25.5t94.5 67.5h6v-844q0 -59 18.5 -92.5t59.5 -57.5v-6q-124 0 -209 -76h-6v138z
" />
    <glyph glyph-name="Uhungarumlaut" unicode="&#x170;" horiz-adv-x="1122" 
d="M758 2032q13 31 40.5 44.5t59.5 0.5q26 -12 33.5 -44t-6.5 -59q-12 -25 -42 -66.5t-80.5 -110t-92.5 -132.5l-8 4q20 72 39.5 155.5t31.5 132.5t25 75zM481 2032q14 31 41 44.5t58 0.5q28 -11 35.5 -43.5t-7.5 -59.5q-12 -25 -42 -66.5t-81 -110t-94 -132.5l-8 4
q21 72 40.5 155.5t32 132.5t25.5 75zM297 455q0 -186 92.5 -297t231.5 -111t224 104.5t85 297.5v841q0 79 -32.5 144t-96.5 96v6h286v-6q-56 -28 -84 -94t-28 -146v-841q0 -220 -110 -348t-292 -128q-190 0 -308 128t-118 348v903q0 135 -88 178v6h334v-6q-50 -25 -73 -66
t-23 -112v-897z" />
    <glyph glyph-name="uhungarumlaut" unicode="&#x171;" horiz-adv-x="882" 
d="M598 1518q13 31 40.5 44.5t59.5 0.5q26 -12 33.5 -44t-6.5 -59q-12 -25 -42 -66.5t-80.5 -110t-92.5 -132.5l-8 4q20 72 39.5 155.5t31.5 132.5t25 75zM322 1518q14 31 40.5 44.5t57.5 0.5q28 -12 36 -44t-7 -59q-12 -25 -42.5 -66.5t-81.5 -110t-94 -132.5l-8 4
q21 72 40.5 155.5t32.5 132.5t26 75zM621 111q0 79 2 104h-2q-71 -104 -159 -175t-171 -71q-85 0 -133.5 59.5t-48.5 155.5v617q0 60 -17 93t-55 56v6q53 0 108.5 25.5t94.5 67.5h6v-816q0 -69 32 -111t95 -42q46 0 110.5 37t137.5 116v568q0 60 -16.5 93.5t-55.5 55.5v6
q53 0 108.5 25.5t94.5 67.5h6v-844q0 -59 18.5 -92.5t59.5 -57.5v-6q-124 0 -209 -76h-6v138z" />
    <glyph glyph-name="Uogonek" unicode="&#x172;" horiz-adv-x="1122" 
d="M297 455q0 -186 92.5 -297t231.5 -111t224 104.5t85 297.5v841q0 79 -32.5 144t-96.5 96v6h286v-6q-56 -28 -84 -94t-28 -146v-841q0 -213 -102.5 -340t-274.5 -136q-80 -89 -80 -190q0 -64 37.5 -103.5t95.5 -39.5q108 0 187 81l6 -6q-108 -176 -258 -176
q-80 0 -137.5 51t-57.5 127q0 131 172 256q-185 3 -300.5 131t-115.5 345v903q0 135 -88 178v6h334v-6q-50 -25 -73 -66t-23 -112v-897z" />
    <glyph glyph-name="uogonek" unicode="&#x173;" horiz-adv-x="882" 
d="M621 111q0 79 2 104h-2q-71 -104 -159 -175t-171 -71q-85 0 -133.5 59.5t-48.5 155.5v617q0 60 -17 93t-55 56v6q53 0 108.5 25.5t94.5 67.5h6v-816q0 -69 32 -111t95 -42q46 0 110.5 37t137.5 116v568q0 60 -16.5 93.5t-55.5 55.5v6q53 0 108.5 25.5t94.5 67.5h6v-844
q0 -59 18.5 -92.5t59.5 -57.5v-6q-88 0 -164 -43h2q-113 -102 -113 -223q0 -64 37 -103.5t96 -39.5q108 0 187 81l6 -6q-108 -176 -258 -176q-80 0 -137.5 51t-57.5 127q0 136 187 267v127z" />
    <glyph glyph-name="Wcircumflex" unicode="&#x174;" horiz-adv-x="1570" 
d="M543 1665l186 340q27 47 75.5 46t72.5 -46l186 -340l-8 -6l-250 242h-4l-250 -242zM1444 1278l-352 -1288h-23l-276 1032l-291 -1032h-25l-348 1286q-31 115 -65.5 174t-77.5 80v6h383v-6q-130 -70 -80 -258l254 -993l227 825l-47 172q-21 80 -49 134t-51.5 78t-55.5 42
v6h383v-6q-32 -18 -51 -49t-25 -84t13 -125l248 -989l262 993q23 90 -10 158t-93 96v6h305v-6q-101 -56 -155 -252z" />
    <glyph glyph-name="wcircumflex" unicode="&#x175;" horiz-adv-x="1198" 
d="M342 1151l184 340q27 47 76.5 46t73.5 -46l186 -340l-8 -6l-250 241h-6l-250 -241zM1124 791l-250 -811h-26l-246 684l-219 -684h-29l-301 854q-18 50 -28.5 76t-30.5 58.5t-43 47.5v6h297v-6q-42 -31 -53 -83t8 -102l213 -628l164 526l-41 117q-27 72 -50 111.5
t-55 58.5v6h303v-6q-94 -63 -53 -182l221 -635l187 620q19 55 13.5 96.5t-19 64.5t-33.5 36v6h192v-6q-65 -46 -121 -225z" />
    <glyph glyph-name="Ycircumflex" unicode="&#x176;" horiz-adv-x="989" 
d="M287 1665l186 340q27 47 75.5 46t72.5 -46l186 -340l-8 -6l-250 242h-4l-250 -242zM578 174q0 -54 20 -94t70 -74v-6h-332v6q50 34 71 74t21 94v453l-303 645q-60 125 -95 180t-81 78v6h409v-6q-39 -17 -63.5 -53.5t-27.5 -89t26 -115.5l270 -576l256 580q35 93 11 160
t-85 94v6h291v-6q-74 -40 -168 -252l-290 -645v-459z" />
    <glyph glyph-name="ycircumflex" unicode="&#x177;" horiz-adv-x="735" 
d="M150 1151l186 340q27 47 75 46t72 -46l187 -340l-8 -6l-250 241h-4l-250 -241zM61 -424q-73 0 -126.5 39t-53.5 92q0 34 20 58t50 24q31 0 49.5 -23t26.5 -50.5t29 -50.5t55 -23q67 0 123.5 73.5t97.5 206.5l26 78l-292 825q-32 91 -55.5 130t-53.5 61v6h305v-6
q-92 -65 -47 -189l211 -614l201 612q40 123 -41 191v6h194v-6q-29 -15 -59 -73.5t-51 -117.5l-301 -915q-56 -168 -130 -251t-178 -83z" />
    <glyph glyph-name="Ydieresis" unicode="&#x178;" horiz-adv-x="989" 
d="M412 1737q-38 0 -64 30t-26 72q0 43 26 74t64 31t65 -31t27 -74q0 -42 -27 -72t-65 -30zM682 1737q-36 0 -62 30t-26 72q0 43 25.5 74t62.5 31q38 0 65 -31t27 -74q0 -42 -27 -72t-65 -30zM578 174q0 -54 20 -94t70 -74v-6h-332v6q50 34 71 74t21 94v453l-303 645
q-60 125 -95 180t-81 78v6h409v-6q-39 -17 -63.5 -53.5t-27.5 -89t26 -115.5l270 -576l256 580q35 93 11 160t-85 94v6h291v-6q-74 -40 -168 -252l-290 -645v-459z" />
    <glyph glyph-name="Zacute" unicode="&#x179;" horiz-adv-x="942" 
d="M580 2021q27 29 56.5 36t61.5 -17q27 -24 27 -60t-25 -63q-23 -27 -126.5 -105t-182.5 -149l-8 6q63 96 119.5 212t77.5 140zM942 344l-70 -405h-8q-34 61 -129 61h-721v8l713 1495h-244q-131 0 -230.5 -69t-191.5 -215l-8 4l41 374h6q38 -61 138 -61h669v-6l-710 -1495
h282q253 0 455 313z" />
    <glyph glyph-name="zacute" unicode="&#x17a;" horiz-adv-x="722" 
d="M467 1507q27 29 57 36t62 -17q27 -24 27.5 -60.5t-23.5 -62.5q-23 -26 -126.5 -104t-184.5 -150l-9 6q63 96 119.5 212t77.5 140zM702 281l-34 -328h-11q-15 26 -42.5 36.5t-77.5 10.5h-517v6l476 979h-111q-125 0 -195.5 -57t-138.5 -189l-6 2l37 328h6q24 -47 123 -47
h469v-6l-479 -979h159q118 0 200 68.5t132 177.5z" />
    <glyph glyph-name="Zdotaccent" unicode="&#x17b;" horiz-adv-x="942" 
d="M492 1737q-39 0 -66 30.5t-27 73.5q0 45 27 76t66 31q40 0 67 -31.5t27 -75.5q0 -43 -27.5 -73.5t-66.5 -30.5zM942 344l-70 -405h-8q-34 61 -129 61h-721v8l713 1495h-244q-131 0 -230.5 -69t-191.5 -215l-8 4l41 374h6q38 -61 138 -61h669v-6l-710 -1495h282
q253 0 455 313z" />
    <glyph glyph-name="zdotaccent" unicode="&#x17c;" horiz-adv-x="722" 
d="M379 1223q-39 0 -65.5 30.5t-26.5 73.5q0 45 26.5 76t65.5 31q40 0 67 -31.5t27 -75.5q0 -43 -27.5 -73.5t-66.5 -30.5zM702 281l-34 -328h-11q-15 26 -42.5 36.5t-77.5 10.5h-517v6l476 979h-111q-125 0 -195.5 -57t-138.5 -189l-6 2l37 328h6q24 -47 123 -47h469v-6
l-479 -979h159q118 0 200 68.5t132 177.5z" />
    <glyph glyph-name="Zcaron" unicode="&#x17d;" horiz-adv-x="942" 
d="M756 2101l-187 -340q-27 -47 -75 -46t-72 46l-186 340l8 6l250 -241h4l250 241zM942 344l-70 -405h-8q-34 61 -129 61h-721v8l713 1495h-244q-131 0 -230.5 -69t-191.5 -215l-8 4l41 374h6q38 -61 138 -61h669v-6l-710 -1495h282q253 0 455 313z" />
    <glyph glyph-name="zcaron" unicode="&#x17e;" horiz-adv-x="722" 
d="M643 1587l-184 -340q-27 -47 -76.5 -46t-73.5 46l-186 340l8 6l250 -241h4l252 241zM702 281l-34 -328h-11q-15 26 -42.5 36.5t-77.5 10.5h-517v6l476 979h-111q-125 0 -195.5 -57t-138.5 -189l-6 2l37 328h6q24 -47 123 -47h469v-6l-479 -979h159q118 0 200 68.5
t132 177.5z" />
    <glyph glyph-name="Ohorn" unicode="&#x1a0;" horiz-adv-x="1159" 
d="M57 768q0 215 65.5 397t185.5 292t270 110q120 0 221 -71.5t172 -199.5q74 92 90 166q-44 3 -74.5 29t-30.5 65q0 36 26 61t62 25q37 0 65 -32.5t28 -79.5q0 -63 -41 -129.5t-119 -116.5q119 -218 119 -516q0 -215 -66 -397.5t-185.5 -292t-266.5 -109.5
q-146 0 -266.5 110t-187.5 293t-67 396zM238 768q0 -360 88 -561t252 -201q165 0 251 200t86 562q0 366 -83.5 564t-253.5 198q-169 0 -254.5 -199.5t-85.5 -562.5z" />
    <glyph glyph-name="ohorn" unicode="&#x1a1;" horiz-adv-x="899" 
d="M51 514q0 144 51.5 268t141 197.5t194.5 73.5q90 0 169 -54.5t134 -150.5q72 89 88 166q-45 3 -74.5 28t-29.5 64q0 37 25.5 61.5t62.5 24.5t64.5 -33t27.5 -78q0 -64 -40.5 -129t-119.5 -114q78 -143 78 -324q0 -145 -51.5 -270.5t-140.5 -200t-193 -74.5t-193.5 74.5
t-141.5 200.5t-52 270zM211 514q0 -230 59.5 -371t167.5 -141q106 0 166 141t60 371q0 152 -24 263.5t-75.5 177t-126.5 65.5q-74 0 -126 -65t-76.5 -177.5t-24.5 -263.5z" />
    <glyph glyph-name="Uhorn" unicode="&#x1af;" horiz-adv-x="1126" 
d="M573 -27q-190 0 -308 128t-118 348v903q0 135 -88 178v6h334v-6q-52 -25 -75 -66t-23 -112v-897q0 -186 93.5 -297t232.5 -111t224 104.5t85 297.5v841q0 79 -32.5 144t-96.5 96v6h266q60 80 72 145q-45 3 -75 29.5t-30 65.5q0 37 24.5 60.5t61.5 23.5t64.5 -32t27.5 -79
q0 -63 -43 -129t-118 -121q-76 -55 -76 -209v-841q0 -220 -110 -348t-292 -128z" />
    <glyph glyph-name="uhorn" unicode="&#x1b0;" horiz-adv-x="899" 
d="M621 111q0 79 2 104h-2q-71 -104 -159 -175t-171 -71q-85 0 -133.5 59.5t-48.5 155.5v617q0 60 -17 93t-55 56v6q53 0 108.5 25.5t94.5 67.5h6v-816q0 -69 32 -111t95 -42q46 0 110.5 37t137.5 116v568q0 60 -16.5 93.5t-55.5 55.5v6q53 0 108.5 25.5t94.5 67.5h6v-181
q80 95 100 179q-45 3 -74.5 28t-29.5 64q0 37 25.5 61.5t62.5 24.5t64.5 -33t27.5 -78q0 -70 -46 -140.5t-130 -115.5v-653q0 -59 18.5 -92.5t59.5 -57.5v-6q-124 0 -209 -76h-6v138z" />
    <glyph glyph-name="Scommaaccent" unicode="&#x218;" horiz-adv-x="944" 
d="M891 432q0 -197 -139 -330t-367 -133q-192 0 -391 88l112 344h11q5 -186 83 -287.5t222 -101.5q101 0 183 49.5t125.5 126.5t43.5 164q0 45 -10 84t-24.5 69t-41.5 58.5t-49.5 48t-61.5 42.5t-65 36t-71 35q-47 23 -76 38t-71 40.5t-68 48t-56 55.5t-46.5 67.5t-28 80
t-11.5 96.5q0 116 49 209.5t146.5 150t226.5 56.5q139 0 307 -41l-92 -336h-8q-6 156 -75 245t-187 89q-113 0 -181.5 -82.5t-68.5 -218.5q0 -67 23 -119.5t77 -95t93 -65.5t121 -63l12 -6q64 -31 105 -55t93.5 -64.5t82.5 -82.5t51.5 -104.5t21.5 -135.5zM518 -289
q0 -71 -48 -143t-140 -125l-2 4q84 97 114 195q-48 5 -78 30t-30 64q0 38 25 62t63 24q40 0 68 -32t28 -79z" />
    <glyph glyph-name="scommaaccent" unicode="&#x219;" horiz-adv-x="686" 
d="M659 301q0 -156 -104 -243t-264 -87q-127 0 -287 56l92 258h8q12 -132 75.5 -203.5t166.5 -71.5q93 0 149 58.5t56 158.5q0 46 -17 81t-53.5 61.5t-67 41.5t-84.5 38l-3 1.5t-3 1t-4 1.5q-45 19 -74 34t-65 41t-57 54t-36 70t-15 93q0 133 99 220.5t253 87.5
q78 0 178 -29l-55 -231h-6q-12 105 -63 162t-124 57q-81 0 -128.5 -59t-47.5 -142q0 -27 7 -50t16 -40.5t28.5 -34.5t34 -28t42.5 -25t44 -21.5t49 -21.5q41 -18 63.5 -28t58.5 -30t56 -40t41.5 -48t31 -64t9.5 -79zM436 -305q0 -71 -47.5 -143t-138.5 -125l-2 4
q85 97 114 194q-48 5 -79 30t-31 64q0 38 25.5 62t64.5 24t66.5 -31.5t27.5 -78.5z" />
    <glyph glyph-name="Tcommaaccent" unicode="&#x21a;" horiz-adv-x="952" 
d="M195 1536h563q90 0 127 61h6l74 -372l-11 -6q-73 128 -144 204t-144 76q-57 0 -85 -27.5t-28 -85.5v-1212q0 -105 88 -168v-6h-330v6q90 62 90 168v1212q0 59 -27 86t-87 27q-39 0 -78 -22t-76 -64t-67.5 -87t-65.5 -107l-12 6l73 372h9q30 -61 125 -61zM571 -289
q0 -71 -48 -143t-140 -125l-2 4q86 98 115 195q-48 5 -78.5 30t-30.5 64q0 38 25 62t63 24q40 0 68 -32t28 -79z" />
    <glyph glyph-name="tcommaaccent" unicode="&#x21b;" horiz-adv-x="512" 
d="M125 166v813h-127v10q188 83 264 299h6v-266h230v-43h-230v-799q0 -59 26.5 -92t76.5 -33q77 0 159 72l7 -6q-48 -66 -112.5 -109t-131.5 -43q-75 0 -121.5 52.5t-46.5 144.5zM403 -289q0 -71 -47.5 -143t-138.5 -125l-2 4q88 101 113 195q-47 5 -78 30t-31 64
q0 38 25.5 62t64.5 24t66.5 -32t27.5 -79z" />
    <glyph glyph-name="dotlessj" unicode="&#x237;" horiz-adv-x="368" 
d="M-158 -299q0 36 19 61t49 25q28 0 46 -21t27.5 -46.5t34.5 -46.5t64 -21q53 0 89 53t36 125q0 55 -23 102.5t-61 67.5v788q0 124 -70 162v6q54 0 110.5 26.5t96.5 66.5h4v-1147q0 -146 -71.5 -236t-188.5 -90q-69 0 -115.5 33.5t-46.5 91.5z" />
    <glyph glyph-name="schwa" unicode="&#x259;" horiz-adv-x="792" 
d="M596 463q0 127 -31 230.5t-97 169t-157 65.5q-82 0 -148 -43.5t-104 -122.5l-10 4q44 137 131 212t197 75q152 0 257 -134t105 -356q0 -162 -52.5 -298.5t-145.5 -216t-205 -79.5q-134 0 -217.5 115.5t-83.5 284.5v28h559q2 20 2 66zM375 8q82 0 142.5 91.5t74.5 262.5
h-408q1 -163 53 -258.5t138 -95.5z" />
    <glyph glyph-name="quoteleft" unicode="&#x2bb;" horiz-adv-x="364" 
d="M86 1311q0 82 54 167.5t155 145.5l2 -2q-102 -120 -131 -240q48 -3 80.5 -30.5t32.5 -69.5q0 -40 -26.5 -66t-66.5 -26q-41 0 -70.5 35t-29.5 86z" />
    <glyph glyph-name="quoteleft" unicode="&#x2018;" horiz-adv-x="364" 
d="M86 1311q0 82 54 167.5t155 145.5l2 -2q-102 -120 -131 -240q48 -3 80.5 -30.5t32.5 -69.5q0 -40 -26.5 -66t-66.5 -26q-41 0 -70.5 35t-29.5 86z" />
    <glyph glyph-name="quoteright" unicode="&#x2bc;" horiz-adv-x="364" 
d="M279 1454q0 -76 -55 -160.5t-156 -144.5l-2 4q105 120 131 238q-48 5 -79.5 32t-31.5 68q0 39 26.5 65.5t65.5 26.5q42 0 71.5 -36t29.5 -93z" />
    <glyph glyph-name="quoteright" unicode="&#x2019;" horiz-adv-x="364" 
d="M279 1454q0 -76 -55 -160.5t-156 -144.5l-2 4q105 120 131 238q-48 5 -79.5 32t-31.5 68q0 39 26.5 65.5t65.5 26.5q42 0 71.5 -36t29.5 -93z" />
    <glyph glyph-name="circumflex" unicode="&#x2c6;" horiz-adv-x="1021" 
d="M252 1151l186 340q27 47 75.5 46t72.5 -46l186 -340l-8 -6l-250 241h-4l-250 -241z" />
    <glyph glyph-name="caron" unicode="&#x2c7;" horiz-adv-x="1021" 
d="M776 1587l-186 -340q-27 -47 -75.5 -46t-72.5 46l-186 340l8 6l250 -241h4l250 241z" />
    <glyph glyph-name="breve" unicode="&#x2d8;" horiz-adv-x="1021" 
d="M512 1202q-104 0 -167.5 85.5t-63.5 232.5l10 2q13 -95 75.5 -143t145.5 -48q85 0 146 47t75 144l10 -2q0 -147 -63.5 -232.5t-167.5 -85.5z" />
    <glyph glyph-name="dotaccent" unicode="&#x2d9;" horiz-adv-x="1021" 
d="M512 1223q-39 0 -65.5 30.5t-26.5 73.5q0 45 26.5 76t65.5 31q40 0 67 -31.5t27 -75.5q0 -43 -27.5 -73.5t-66.5 -30.5z" />
    <glyph glyph-name="ring" unicode="&#x2da;" horiz-adv-x="1021" 
d="M305 1386q0 94 59.5 162t147.5 68q87 0 146 -67.5t59 -162.5q0 -94 -59.5 -161.5t-145.5 -67.5q-84 0 -145.5 68t-61.5 161zM410 1386q0 -95 26 -147.5t76 -52.5q100 0 100 200q0 201 -100 201q-102 0 -102 -201z" />
    <glyph glyph-name="ogonek" unicode="&#x2db;" horiz-adv-x="1021" 
d="M483 -461q-79 0 -135.5 50.5t-56.5 127.5q0 73 57 149t176 148l4 -8q-112 -101 -112 -223q0 -64 37.5 -103.5t95.5 -39.5q110 0 186 81l8 -6q-111 -176 -260 -176z" />
    <glyph glyph-name="tilde" unicode="&#x2dc;" horiz-adv-x="1021" 
d="M604 1210q-34 0 -69.5 24t-60.5 52t-55 52t-54 24q-76 0 -97 -137l-10 2q9 118 52 179.5t112 61.5q34 0 70 -24t60.5 -52.5t55 -52.5t54.5 -24q74 0 92 141l10 -2q-18 -244 -160 -244z" />
    <glyph glyph-name="hungarumlaut" unicode="&#x2dd;" horiz-adv-x="1021" 
d="M678 1518q13 31 40 44.5t58 0.5q27 -12 35 -44t-6 -59q-12 -25 -42 -66.5t-80.5 -110t-92.5 -132.5l-8 4q20 72 39.5 155.5t31.5 132.5t25 75zM401 1518q13 31 40 44.5t59 0.5q27 -12 34.5 -44t-6.5 -59q-12 -25 -42 -66.5t-81 -110t-94 -132.5l-8 4q21 72 40.5 155.5
t32 132.5t25.5 75z" />
    <glyph glyph-name="gravecmb" unicode="&#x300;" 
d="M-119 1507q23 -26 81 -141.5t116 -208.5l-8 -6q-79 69 -183.5 147t-128.5 105q-23 28 -24 63t26 60q34 23 65 16t56 -35z" />
    <glyph glyph-name="acutecmb" unicode="&#x301;" 
d="M88 1507q27 29 57 36t62 -17q27 -24 27 -60t-25 -63q-23 -27 -126.5 -105t-182.5 -149l-9 6q63 96 119.5 212t77.5 140z" />
    <glyph glyph-name="circumflexcmb" unicode="&#x302;" 
d="M-260 1151l186 340q27 47 75.5 46t72.5 -46l186 -340l-8 -6l-250 241h-4l-250 -241z" />
    <glyph glyph-name="tildecmb" unicode="&#x303;" 
d="M92 1210q-34 0 -69.5 24t-60.5 52t-55 52t-54 24q-76 0 -97 -137l-10 2q9 118 52 179.5t112 61.5q34 0 70 -24t60.5 -52.5t55 -52.5t54.5 -24q74 0 92 141l10 -2q-18 -244 -160 -244z" />
    <glyph glyph-name="macroncmb" unicode="&#x304;" 
d="M-217 1278v70h434v-70h-434z" />
    <glyph glyph-name="brevecmb" unicode="&#x306;" 
d="M0 1202q-104 0 -167.5 85.5t-63.5 232.5l10 2q13 -95 75.5 -143t145.5 -48q85 0 146 47t75 144l10 -2q0 -147 -63.5 -232.5t-167.5 -85.5z" />
    <glyph glyph-name="dotaccentcmb" unicode="&#x307;" 
d="M0 1223q-39 0 -65.5 30.5t-26.5 73.5q0 45 26.5 76t65.5 31q40 0 67 -31.5t27 -75.5q0 -43 -27.5 -73.5t-66.5 -30.5z" />
    <glyph glyph-name="dieresiscmb" unicode="&#x308;" 
d="M-135 1223q-38 0 -64 30t-26 72q0 43 26 74t64 31t65 -31t27 -74q0 -42 -27 -72t-65 -30zM135 1223q-36 0 -62 30t-26 72q0 43 25.5 74t62.5 31q38 0 65 -31t27 -74q0 -42 -27 -72t-65 -30z" />
    <glyph glyph-name="ringcmb" unicode="&#x30a;" 
d="M-207 1386q0 94 59.5 162t147.5 68q87 0 146 -67.5t59 -162.5q0 -94 -59.5 -161.5t-145.5 -67.5q-84 0 -145.5 68t-61.5 161zM-102 1386q0 -95 26 -147.5t76 -52.5q100 0 100 200q0 201 -100 201q-102 0 -102 -201z" />
    <glyph glyph-name="hungarumlautcmb" unicode="&#x30b;" 
d="M166 1518q13 31 40 44.5t58 0.5q27 -12 35 -44t-6 -59q-12 -25 -42 -66.5t-80.5 -110t-92.5 -132.5l-8 4q20 72 39.5 155.5t31.5 132.5t25 75zM-111 1518q13 31 40 44.5t59 0.5q27 -12 34.5 -44t-6.5 -59q-12 -25 -42 -66.5t-81 -110t-94 -132.5l-8 4q21 72 40.5 155.5
t32 132.5t25.5 75z" />
    <glyph glyph-name="caroncmb" unicode="&#x30c;" 
d="M264 1587l-186 -340q-27 -47 -75.5 -46t-72.5 46l-186 340l8 6l250 -241h4l250 241z" />
    <glyph glyph-name="commaturnedabovecmb" unicode="&#x312;" 
d="M-84 1331q0 71 47.5 143t138.5 125l2 -4q-85 -97 -114 -194q48 -5 79 -30t31 -64q0 -38 -25.5 -62t-64.5 -24t-66.5 31.5t-27.5 78.5z" />
    <glyph glyph-name="horncmb" unicode="&#x31b;" 
d="M160 1081q0 -70 -48.5 -141t-140.5 -121l-2 2q94 102 115 193q-45 3 -74.5 28t-29.5 64q0 36 25 61t61 25q38 0 66 -32.5t28 -78.5z" />
    <glyph glyph-name="dotbelowcmb" unicode="&#x323;" 
d="M0 -381q-39 0 -65.5 29.5t-26.5 70.5q0 43 26.5 73t65.5 30q40 0 67 -30t27 -73q0 -40 -27.5 -70t-66.5 -30z" />
    <glyph glyph-name="commabelowcmb" unicode="&#x326;" 
d="M94 -289q0 -71 -47.5 -143t-138.5 -125l-2 4q84 97 114 195q-48 5 -79 30t-31 64q0 38 25.5 62t64.5 24t66.5 -32t27.5 -79z" />
    <glyph glyph-name="cedillacmb" unicode="&#x327;" 
d="M-55 -182l41 196l28 -4l-22 -88q85 -8 143 -57.5t58 -122.5q0 -80 -67 -133t-159 -53q-90 0 -148.5 31.5t-58.5 80.5q0 27 16 46.5t44 19.5q27 0 46.5 -20.5t27.5 -53.5q27 -78 88 -78q45 0 76.5 30t31.5 83q0 116 -141 123h-4z" />
    <glyph glyph-name="ogonekcmb" unicode="&#x328;" 
d="M-29 -461q-79 0 -135.5 50.5t-56.5 127.5q0 73 57 149t176 148l4 -8q-112 -101 -112 -223q0 -64 37.5 -103.5t95.5 -39.5q110 0 186 81l8 -6q-111 -176 -260 -176z" />
    <glyph glyph-name="brevebelowcmb" unicode="&#x32e;" 
d="M0 -420q-105 0 -168 82.5t-63 231.5l10 2q13 -81 77 -129t144 -48q82 0 145 47t76 130l10 -2q0 -149 -63 -231.5t-168 -82.5z" />
    <glyph glyph-name="Ddotbelow" unicode="&#x1e0c;" horiz-adv-x="1153" 
d="M453 -20q-182 0 -400 40v7q97 46 97 161v1160q0 49 -25 94t-72 67v7q238 40 367 40q216 0 368.5 -97.5t228 -271.5t75.5 -411q0 -197 -51.5 -352t-140.5 -250.5t-202.5 -144.5t-244.5 -49zM485 25q212 0 319 167.5t107 538.5q0 370 -113 576t-323 206q-90 0 -132 -44
t-42 -136v-1112q0 -93 47 -144.5t137 -51.5zM494 -381q-39 0 -67 30t-28 70q0 43 27.5 73t67.5 30q38 0 65 -30t27 -73q0 -40 -27 -70t-65 -30z" />
    <glyph glyph-name="ddotbelow" unicode="&#x1e0d;" horiz-adv-x="901" 
d="M358 -33q-129 0 -217 133t-88 330q0 93 19 181.5t57 166t90.5 136t125 92.5t155.5 34q59 0 149 -24v338q0 115 -69 162v6q54 0 108.5 25.5t93.5 66.5h4v-1389q0 -125 72 -166v-6q-106 0 -203 -80h-6v93q0 44 4 106l-4 2q-141 -207 -291 -207zM438 78q57 0 103 27t108 92
v647q0 82 -39.5 125t-109.5 43q-126 0 -212 -149.5t-85 -379.5q1 -189 64.5 -297t170.5 -108zM432 -381q-38 0 -65 30t-27 70q0 43 27 73t65 30q40 0 67 -30t27 -73q0 -40 -27.5 -70t-66.5 -30z" />
    <glyph glyph-name="Dlinebelow" unicode="&#x1e0e;" horiz-adv-x="1153" 
d="M453 -20q-182 0 -400 40v7q97 46 97 161v1160q0 49 -25 94t-72 67v7q238 40 367 40q216 0 368.5 -97.5t228 -271.5t75.5 -411q0 -197 -51.5 -352t-140.5 -250.5t-202.5 -144.5t-244.5 -49zM485 25q212 0 319 167.5t107 538.5q0 370 -113 576t-323 206q-90 0 -132 -44
t-42 -136v-1112q0 -93 47 -144.5t137 -51.5zM274 -264v80h437v-80h-437z" />
    <glyph glyph-name="dlinebelow" unicode="&#x1e0f;" horiz-adv-x="901" 
d="M358 -33q-129 0 -217 133t-88 330q0 93 19 181.5t57 166t90.5 136t125 92.5t155.5 34q59 0 149 -24v338q0 115 -69 162v6q54 0 108.5 25.5t93.5 66.5h4v-1389q0 -125 72 -166v-6q-106 0 -203 -80h-6v93q0 44 4 106l-4 2q-141 -207 -291 -207zM438 78q57 0 103 27t108 92
v647q0 82 -39.5 125t-109.5 43q-126 0 -212 -149.5t-85 -379.5q1 -189 64.5 -297t170.5 -108zM215 -264v80h436v-80h-436z" />
    <glyph glyph-name="Gmacron" unicode="&#x1e20;" horiz-adv-x="1126" 
d="M393 1792v70h434v-70h-434zM633 -20q-112 0 -214 50.5t-183.5 145t-130 245t-48.5 335.5q0 239 72 421.5t212 286t331 103.5q158 0 317 -64l-88 -309h-4q-26 148 -102 233.5t-201 85.5q-361 0 -361 -720q0 -381 101.5 -578t302.5 -197q95 0 147 53t52 146v561
q0 129 -99 178v7h346v-7q-96 -45 -96 -178v-588q0 -128 78 -163v-7q-222 -40 -432 -40z" />
    <glyph glyph-name="gmacron" unicode="&#x1e21;" horiz-adv-x="868" 
d="M195 1278v70h434v-70h-434zM397 -440q-171 0 -278 56.5t-107 158.5q0 80 79.5 148t187.5 102q-165 54 -199 196l2 4q145 48 240 162q-104 29 -170 119t-66 205q0 137 93.5 236.5t226.5 99.5q131 0 225 -97q33 68 79 115t95 47q30 0 53 -25t23 -61q0 -37 -21.5 -61.5
t-50.5 -24.5q-25 0 -52 25.5t-42 25.5q-34 0 -72 -53q86 -96 86 -227q0 -138 -95 -237t-228 -99q-16 0 -44 4q-3 -3 -13.5 -13t-15 -14.5t-15 -14.5t-15.5 -16t-13 -15t-12.5 -16t-9 -15.5t-6.5 -16t-2 -14.5q0 -37 33.5 -60t86.5 -34.5t117.5 -20.5t129 -25t117.5 -40.5
t86.5 -73t33.5 -117.5q0 -93 -67 -166t-172.5 -110t-227.5 -37zM238 711q0 -139 43.5 -219t124.5 -80q82 0 128 80.5t46 218.5q0 142 -43.5 220.5t-130.5 78.5q-83 0 -125.5 -79.5t-42.5 -219.5zM133 -207q0 -93 77 -144.5t206 -51.5q137 2 233 64t96 155q0 49 -25 81
t-74 49t-97.5 25.5t-120 19.5t-117.5 23q-86 -33 -132 -92.5t-46 -128.5z" />
    <glyph glyph-name="Hdotbelow" unicode="&#x1e24;" horiz-adv-x="1157" 
d="M397 0h-344v6q43 23 70 70t27 108v1168q0 56 -24.5 106t-72.5 72v6h344v-6q-47 -22 -71.5 -72.5t-24.5 -105.5v-385h551v385q0 55 -24.5 105.5t-69.5 72.5v6h344v-6q-47 -22 -72.5 -72.5t-25.5 -105.5v-1168q0 -61 27.5 -108t70.5 -70v-6h-344v6q41 23 67.5 70.5
t26.5 107.5v744h-551v-744q0 -61 26.5 -108t69.5 -70v-6zM578 -381q-39 0 -66 30t-27 70q0 43 27 73t66 30q40 0 67 -30t27 -73q0 -40 -27.5 -70t-66.5 -30z" />
    <glyph glyph-name="hdotbelow" unicode="&#x1e25;" horiz-adv-x="880" 
d="M43 6q72 59 72 154v1210q0 102 -74 146v6q54 0 110.5 25.5t94.5 66.5h6v-703q0 -73 -2 -98q71 102 160.5 171t173.5 69q83 0 132.5 -60t49.5 -155v-678q0 -95 68 -154v-6h-279v6q74 59 74 152v630q0 69 -32.5 111.5t-94.5 42.5q-47 0 -112 -37.5t-138 -116.5v-630
q0 -83 63 -152v-6h-272v6zM440 -381q-39 0 -65.5 29.5t-26.5 70.5q0 43 26.5 73t65.5 30q40 0 67.5 -30t27.5 -73q0 -40 -28 -70t-67 -30z" />
    <glyph glyph-name="Hbrevebelow" unicode="&#x1e2a;" horiz-adv-x="1157" 
d="M397 0h-344v6q43 23 70 70t27 108v1168q0 56 -24.5 106t-72.5 72v6h344v-6q-47 -22 -71.5 -72.5t-24.5 -105.5v-385h551v385q0 55 -24.5 105.5t-69.5 72.5v6h344v-6q-47 -22 -72.5 -72.5t-25.5 -105.5v-1168q0 -61 27.5 -108t70.5 -70v-6h-344v6q41 23 67.5 70.5
t26.5 107.5v744h-551v-744q0 -61 26.5 -108t69.5 -70v-6zM578 -420q-105 0 -168.5 82.5t-63.5 231.5l10 2q13 -81 77.5 -129t144.5 -48q82 0 145 47t76 130l10 -2q0 -149 -63 -231.5t-168 -82.5z" />
    <glyph glyph-name="hbrevebelow" unicode="&#x1e2b;" horiz-adv-x="880" 
d="M43 6q72 59 72 154v1210q0 102 -74 146v6q54 0 110.5 25.5t94.5 66.5h6v-703q0 -73 -2 -98q71 102 160.5 171t173.5 69q83 0 132.5 -60t49.5 -155v-678q0 -95 68 -154v-6h-279v6q74 59 74 152v630q0 69 -32.5 111.5t-94.5 42.5q-47 0 -112 -37.5t-138 -116.5v-630
q0 -83 63 -152v-6h-272v6zM440 -420q-105 0 -168 82.5t-63 231.5l10 2q13 -81 77 -129t144 -48q82 0 145.5 47t76.5 130l10 -2q0 -149 -63.5 -231.5t-168.5 -82.5z" />
    <glyph glyph-name="Ldotbelow" unicode="&#x1e36;" horiz-adv-x="843" 
d="M655 0h-602v6q97 45 97 178v1168q0 129 -97 178v6h344v-6q-96 -49 -96 -178v-1137q0 -97 32.5 -139.5t117.5 -42.5q59 0 111.5 20.5t100 63t86 90t85.5 117.5l8 -5l-49 -380h-7q-34 61 -131 61zM426 -381q-39 0 -66.5 30t-27.5 70q0 43 27 73t67 30q38 0 65 -30t27 -73
q0 -40 -27 -70t-65 -30z" />
    <glyph glyph-name="ldotbelow" unicode="&#x1e37;" horiz-adv-x="366" 
d="M254 1614v-1450q0 -114 65 -158v-6h-270v6q66 45 66 158v1190q0 114 -74 162v6q55 0 111.5 26t93.5 66h8zM184 -381q-39 0 -66.5 30t-27.5 70q0 43 27 73t67 30q38 0 65 -30t27 -73q0 -40 -27 -70t-65 -30z" />
    <glyph glyph-name="Ldotbelowmacron" unicode="&#x1e38;" horiz-adv-x="843" 
d="M205 1792v70h434v-70h-434zM655 0h-602v6q97 45 97 178v1168q0 129 -97 178v6h344v-6q-96 -49 -96 -178v-1137q0 -97 32.5 -139.5t117.5 -42.5q59 0 111.5 20.5t100 63t86 90t85.5 117.5l8 -5l-49 -380h-7q-34 61 -131 61zM426 -381q-39 0 -66.5 30t-27.5 70q0 43 27 73
t67 30q38 0 65 -30t27 -73q0 -40 -27 -70t-65 -30z" />
    <glyph glyph-name="ldotbelowmacron" unicode="&#x1e39;" horiz-adv-x="366" 
d="M-33 1747v70h436v-70h-436zM254 1614v-1450q0 -114 65 -158v-6h-270v6q66 45 66 158v1190q0 114 -74 162v6q55 0 111.5 26t93.5 66h8zM184 -381q-39 0 -66.5 30t-27.5 70q0 43 27 73t67 30q38 0 65 -30t27 -73q0 -40 -27 -70t-65 -30z" />
    <glyph glyph-name="Llinebelow" unicode="&#x1e3a;" horiz-adv-x="843" 
d="M655 0h-602v6q97 45 97 178v1168q0 129 -97 178v6h344v-6q-96 -49 -96 -178v-1137q0 -97 32.5 -139.5t117.5 -42.5q59 0 111.5 20.5t100 63t86 90t85.5 117.5l8 -5l-49 -380h-7q-34 61 -131 61zM207 -264v80h436v-80h-436z" />
    <glyph glyph-name="llinebelow" unicode="&#x1e3b;" horiz-adv-x="366" 
d="M254 1614v-1450q0 -114 65 -158v-6h-270v6q66 45 66 158v1190q0 114 -74 162v6q55 0 111.5 26t93.5 66h8zM-35 -264v80h436v-80h-436z" />
    <glyph glyph-name="Mdotbelow" unicode="&#x1e42;" horiz-adv-x="1472" 
d="M442 1536l297 -1194l310 1194h258v-6q-46 -22 -70 -77.5t-18 -123.5l114 -1153q13 -124 94 -170v-6h-325v6q93 51 80 170l-123 1241l-375 -1437h-10l-361 1439l-125 -1196q-7 -82 15.5 -139.5t60.5 -77.5v-6h-221v6q89 48 104 217l113 1108q8 66 -16.5 121.5t-71.5 77.5
v6h270zM633 -381q-39 0 -66.5 30t-27.5 70q0 43 27 73t67 30q39 0 65.5 -30t26.5 -73q0 -41 -26.5 -70.5t-65.5 -29.5z" />
    <glyph glyph-name="mdotbelow" unicode="&#x1e43;" horiz-adv-x="1404" 
d="M45 6q80 64 80 158v641q0 58 -18.5 89.5t-61.5 55.5v6q57 0 115 25t98 68h4v-134q0 -75 -2 -100q72 101 162.5 169.5t171.5 68.5q84 0 134 -59.5t50 -153.5v-27q70 102 159.5 171t170.5 69q85 0 134.5 -60.5t49.5 -154.5v-674q0 -99 68 -158v-6h-279v6q74 57 74 156v626
q0 68 -32.5 111t-94.5 43q-49 0 -114 -35.5t-136 -113.5v-629q0 -99 68 -158v-6h-279v6q74 59 74 156v626q0 69 -32.5 111.5t-94.5 42.5q-115 0 -252 -149v-631q0 -97 74 -156v-6h-291v6zM705 -381q-39 0 -67 30t-28 70q0 43 27.5 73t67.5 30q38 0 65 -30t27 -73
q0 -40 -27 -70t-65 -30z" />
    <glyph glyph-name="Ndotaccent" unicode="&#x1e44;" horiz-adv-x="1071" 
d="M571 1716q-39 0 -65.5 31t-26.5 74q0 45 26.5 75.5t65.5 30.5q40 0 67.5 -31t27.5 -75q0 -43 -27.5 -74t-67.5 -31zM926 -41h-6l-725 1403v-1165q0 -132 102 -191v-6h-244v6q97 56 97 191v1122q0 67 -25 128t-72 83v6h234l596 -1178v981q0 62 -24 114.5t-77 76.5v6h234
v-6q-44 -22 -67 -76t-23 -115v-1380z" />
    <glyph glyph-name="ndotaccent" unicode="&#x1e45;" horiz-adv-x="890" 
d="M455 1223q-39 0 -66 30.5t-27 73.5q0 45 27 76t66 31q40 0 67 -31.5t27 -75.5q0 -43 -27.5 -73.5t-66.5 -30.5zM45 6q80 64 80 158v641q0 58 -18.5 89.5t-61.5 55.5v6q57 0 115 25t98 68h4v-134q0 -75 -2 -100h2q71 101 160.5 169.5t171.5 68.5q84 0 134 -60t50 -155
v-674q0 -101 66 -158v-6h-277v6q74 62 74 156v626q0 69 -32.5 111.5t-94.5 42.5q-49 0 -114.5 -35.5t-137.5 -113.5v-631q0 -94 74 -156v-6h-291v6z" />
    <glyph glyph-name="Ndotbelow" unicode="&#x1e46;" horiz-adv-x="1071" 
d="M926 -41h-6l-725 1403v-1165q0 -132 102 -191v-6h-244v6q97 56 97 191v1122q0 67 -25 128t-72 83v6h234l596 -1178v981q0 62 -24 114.5t-77 76.5v6h234v-6q-44 -22 -67 -76t-23 -115v-1380zM557 -381q-39 0 -66.5 30t-27.5 70q0 43 27 73t67 30q39 0 65.5 -30t26.5 -73
q0 -41 -26.5 -70.5t-65.5 -29.5z" />
    <glyph glyph-name="ndotbelow" unicode="&#x1e47;" horiz-adv-x="890" 
d="M45 6q80 64 80 158v641q0 58 -18.5 89.5t-61.5 55.5v6q57 0 115 25t98 68h4v-134q0 -75 -2 -100h2q71 101 160.5 169.5t171.5 68.5q84 0 134 -60t50 -155v-674q0 -101 66 -158v-6h-277v6q74 62 74 156v626q0 69 -32.5 111.5t-94.5 42.5q-49 0 -114.5 -35.5t-137.5 -113.5
v-631q0 -94 74 -156v-6h-291v6zM446 -381q-39 0 -65.5 29.5t-26.5 70.5q0 43 26.5 73t65.5 30q40 0 67.5 -30t27.5 -73q0 -40 -28 -70t-67 -30z" />
    <glyph glyph-name="Nlinebelow" unicode="&#x1e48;" horiz-adv-x="1071" 
d="M926 -41h-6l-725 1403v-1165q0 -132 102 -191v-6h-244v6q97 56 97 191v1122q0 67 -25 128t-72 83v6h234l596 -1178v981q0 62 -24 114.5t-77 76.5v6h234v-6q-44 -22 -67 -76t-23 -115v-1380zM340 -264v80h434v-80h-434z" />
    <glyph glyph-name="nlinebelow" unicode="&#x1e49;" horiz-adv-x="890" 
d="M45 6q80 64 80 158v641q0 58 -18.5 89.5t-61.5 55.5v6q57 0 115 25t98 68h4v-134q0 -75 -2 -100h2q71 101 160.5 169.5t171.5 68.5q84 0 134 -60t50 -155v-674q0 -101 66 -158v-6h-277v6q74 62 74 156v626q0 69 -32.5 111.5t-94.5 42.5q-49 0 -114.5 -35.5t-137.5 -113.5
v-631q0 -94 74 -156v-6h-291v6zM229 -264v80h435v-80h-435z" />
    <glyph glyph-name="Rdotbelow" unicode="&#x1e5a;" horiz-adv-x="1028" 
d="M53 1516q261 40 410 40q233 0 367.5 -119.5t134.5 -316.5q0 -93 -28.5 -172t-78 -134t-109.5 -91.5t-128 -54.5q186 -487 426 -727l-5 -7q-182 101 -339.5 289t-241.5 432q-86 9 -162 45v-516q0 -133 98 -178v-6h-344v6q97 44 97 178v1164q0 115 -97 161v7zM299 1333
v-608q96 -29 166 -29q155 0 243.5 105.5t88.5 296.5q0 192 -82.5 306t-229.5 114q-186 0 -186 -185zM545 -381q-39 0 -65.5 29.5t-26.5 70.5q0 43 26.5 73t65.5 30q40 0 67 -30t27 -73q0 -40 -27.5 -70t-66.5 -30z" />
    <glyph glyph-name="rdotbelow" unicode="&#x1e5b;" horiz-adv-x="595" 
d="M262 907q0 -17 -1 -48t-1 -38v-2q32 97 103 165.5t141 68.5q45 0 77.5 -32t32.5 -77q0 -39 -24 -64.5t-58 -25.5q-33 0 -73 36t-64 36q-67 0 -133 -138v-624q0 -94 74 -158v-6h-291v6q80 63 80 158v641q0 57 -18 89t-62 56v6q56 0 115 26t98 67h4v-142zM193 -381
q-39 0 -67 30t-28 70q0 43 27.5 73t67.5 30q38 0 65 -30t27 -73q0 -40 -27 -70t-65 -30z" />
    <glyph glyph-name="Rdotbelowmacron" unicode="&#x1e5c;" horiz-adv-x="1028" 
d="M297 1792v70h434v-70h-434zM53 1516q261 40 410 40q233 0 367.5 -119.5t134.5 -316.5q0 -93 -28.5 -172t-78 -134t-109.5 -91.5t-128 -54.5q186 -487 426 -727l-5 -7q-182 101 -339.5 289t-241.5 432q-86 9 -162 45v-516q0 -133 98 -178v-6h-344v6q97 44 97 178v1164
q0 115 -97 161v7zM299 1333v-608q96 -29 166 -29q155 0 243.5 105.5t88.5 296.5q0 192 -82.5 306t-229.5 114q-186 0 -186 -185zM545 -381q-39 0 -65.5 29.5t-26.5 70.5q0 43 26.5 73t65.5 30q40 0 67 -30t27 -73q0 -40 -27.5 -70t-66.5 -30z" />
    <glyph glyph-name="rdotbelowmacron" unicode="&#x1e5d;" horiz-adv-x="595" 
d="M80 1278v70h436v-70h-436zM262 907q0 -17 -1 -48t-1 -38v-2q32 97 103 165.5t141 68.5q45 0 77.5 -32t32.5 -77q0 -39 -24 -64.5t-58 -25.5q-33 0 -73 36t-64 36q-67 0 -133 -138v-624q0 -94 74 -158v-6h-291v6q80 63 80 158v641q0 57 -18 89t-62 56v6q56 0 115 26t98 67
h4v-142zM193 -381q-39 0 -67 30t-28 70q0 43 27.5 73t67.5 30q38 0 65 -30t27 -73q0 -40 -27 -70t-65 -30z" />
    <glyph glyph-name="Rlinebelow" unicode="&#x1e5e;" horiz-adv-x="1028" 
d="M53 1516q261 40 410 40q233 0 367.5 -119.5t134.5 -316.5q0 -93 -28.5 -172t-78 -134t-109.5 -91.5t-128 -54.5q186 -487 426 -727l-5 -7q-182 101 -339.5 289t-241.5 432q-86 9 -162 45v-516q0 -133 98 -178v-6h-344v6q97 44 97 178v1164q0 115 -97 161v7zM299 1333
v-608q96 -29 166 -29q155 0 243.5 105.5t88.5 296.5q0 192 -82.5 306t-229.5 114q-186 0 -186 -185zM328 -264v80h434v-80h-434z" />
    <glyph glyph-name="rlinebelow" unicode="&#x1e5f;" horiz-adv-x="595" 
d="M262 907q0 -17 -1 -48t-1 -38v-2q32 97 103 165.5t141 68.5q45 0 77.5 -32t32.5 -77q0 -39 -24 -64.5t-58 -25.5q-33 0 -73 36t-64 36q-67 0 -133 -138v-624q0 -94 74 -158v-6h-291v6q80 63 80 158v641q0 57 -18 89t-62 56v6q56 0 115 26t98 67h4v-142zM-27 -264v80h437
v-80h-437z" />
    <glyph glyph-name="Sdotaccent" unicode="&#x1e60;" horiz-adv-x="944" 
d="M473 1737q-39 0 -66.5 30.5t-27.5 73.5q0 44 27 75.5t67 31.5q39 0 65.5 -31t26.5 -76q0 -43 -26.5 -73.5t-65.5 -30.5zM891 432q0 -197 -139 -330t-367 -133q-192 0 -391 88l112 344h11q5 -186 83 -287.5t222 -101.5q101 0 183 49.5t125.5 126.5t43.5 164q0 45 -10 84
t-24.5 69t-41.5 58.5t-49.5 48t-61.5 42.5t-65 36t-71 35q-47 23 -76 38t-71 40.5t-68 48t-56 55.5t-46.5 67.5t-28 80t-11.5 96.5q0 116 49 209.5t146.5 150t226.5 56.5q139 0 307 -41l-92 -336h-8q-6 156 -75 245t-187 89q-113 0 -181.5 -82.5t-68.5 -218.5
q0 -67 23 -119.5t77 -95t93 -65.5t121 -63l12 -6q64 -31 105 -55t93.5 -64.5t82.5 -82.5t51.5 -104.5t21.5 -135.5z" />
    <glyph glyph-name="sdotaccent" unicode="&#x1e61;" horiz-adv-x="686" 
d="M342 1223q-39 0 -66.5 30.5t-27.5 73.5q0 44 27 75.5t67 31.5q39 0 65.5 -31t26.5 -76q0 -43 -26.5 -73.5t-65.5 -30.5zM659 301q0 -156 -104 -243t-264 -87q-127 0 -287 56l92 258h8q12 -132 75.5 -203.5t166.5 -71.5q93 0 149 58.5t56 158.5q0 46 -17 81t-53.5 61.5
t-67 41.5t-84.5 38l-3 1.5t-3 1t-4 1.5q-45 19 -74 34t-65 41t-57 54t-36 70t-15 93q0 133 99 220.5t253 87.5q78 0 178 -29l-55 -231h-6q-12 105 -63 162t-124 57q-81 0 -128.5 -59t-47.5 -142q0 -27 7 -50t16 -40.5t28.5 -34.5t34 -28t42.5 -25t44 -21.5t49 -21.5
q41 -18 63.5 -28t58.5 -30t56 -40t41.5 -48t31 -64t9.5 -79z" />
    <glyph glyph-name="Sdotbelow" unicode="&#x1e62;" horiz-adv-x="944" 
d="M891 432q0 -197 -139 -330t-367 -133q-192 0 -391 88l112 344h11q5 -186 83 -287.5t222 -101.5q101 0 183 49.5t125.5 126.5t43.5 164q0 45 -10 84t-24.5 69t-41.5 58.5t-49.5 48t-61.5 42.5t-65 36t-71 35q-47 23 -76 38t-71 40.5t-68 48t-56 55.5t-46.5 67.5t-28 80
t-11.5 96.5q0 116 49 209.5t146.5 150t226.5 56.5q139 0 307 -41l-92 -336h-8q-6 156 -75 245t-187 89q-113 0 -181.5 -82.5t-68.5 -218.5q0 -67 23 -119.5t77 -95t93 -65.5t121 -63l12 -6q64 -31 105 -55t93.5 -64.5t82.5 -82.5t51.5 -104.5t21.5 -135.5zM422 -381
q-39 0 -65.5 29.5t-26.5 70.5q0 43 26.5 73t65.5 30q40 0 67 -30t27 -73q0 -40 -27.5 -70t-66.5 -30z" />
    <glyph glyph-name="sdotbelow" unicode="&#x1e63;" horiz-adv-x="686" 
d="M659 301q0 -156 -104 -243t-264 -87q-127 0 -287 56l92 258h8q12 -132 75.5 -203.5t166.5 -71.5q93 0 149 58.5t56 158.5q0 46 -17 81t-53.5 61.5t-67 41.5t-84.5 38l-3 1.5t-3 1t-4 1.5q-45 19 -74 34t-65 41t-57 54t-36 70t-15 93q0 133 99 220.5t253 87.5
q78 0 178 -29l-55 -231h-6q-12 105 -63 162t-124 57q-81 0 -128.5 -59t-47.5 -142q0 -27 7 -50t16 -40.5t28.5 -34.5t34 -28t42.5 -25t44 -21.5t49 -21.5q41 -18 63.5 -28t58.5 -30t56 -40t41.5 -48t31 -64t9.5 -79zM342 -397q-39 0 -65.5 29.5t-26.5 70.5q0 43 26.5 72.5
t65.5 29.5q40 0 67 -29.5t27 -72.5q0 -40 -27.5 -70t-66.5 -30z" />
    <glyph glyph-name="Tdotbelow" unicode="&#x1e6c;" horiz-adv-x="952" 
d="M195 1536h563q90 0 127 61h6l74 -372l-11 -6q-73 128 -144 204t-144 76q-57 0 -85 -27.5t-28 -85.5v-1212q0 -105 88 -168v-6h-330v6q90 62 90 168v1212q0 59 -27 86t-87 27q-39 0 -78 -22t-76 -64t-67.5 -87t-65.5 -107l-12 6l73 372h9q30 -61 125 -61zM475 -381
q-39 0 -65.5 29.5t-26.5 70.5q0 43 26.5 73t65.5 30q40 0 67 -30t27 -73q0 -40 -27.5 -70t-66.5 -30z" />
    <glyph glyph-name="tdotbelow" unicode="&#x1e6d;" horiz-adv-x="512" 
d="M125 166v813h-127v10q188 83 264 299h6v-266h230v-43h-230v-799q0 -59 26.5 -92t76.5 -33q77 0 159 72l7 -6q-48 -66 -112.5 -109t-131.5 -43q-75 0 -121.5 52.5t-46.5 144.5zM309 -381q-39 0 -66.5 30t-27.5 70q0 43 27 73t67 30q39 0 65.5 -30t26.5 -73
q0 -41 -26.5 -70.5t-65.5 -29.5z" />
    <glyph glyph-name="Tlinebelow" unicode="&#x1e6e;" horiz-adv-x="952" 
d="M195 1536h563q90 0 127 61h6l74 -372l-11 -6q-73 128 -144 204t-144 76q-57 0 -85 -27.5t-28 -85.5v-1212q0 -105 88 -168v-6h-330v6q90 62 90 168v1212q0 59 -27 86t-87 27q-39 0 -78 -22t-76 -64t-67.5 -87t-65.5 -107l-12 6l73 372h9q30 -61 125 -61zM258 -264v80h434
v-80h-434z" />
    <glyph glyph-name="tlinebelow" unicode="&#x1e6f;" horiz-adv-x="512" 
d="M125 166v813h-127v10q188 83 264 299h6v-266h230v-43h-230v-799q0 -59 26.5 -92t76.5 -33q77 0 159 72l7 -6q-48 -66 -112.5 -109t-131.5 -43q-75 0 -121.5 52.5t-46.5 144.5zM92 -264v80h434v-80h-434z" />
    <glyph glyph-name="Wgrave" unicode="&#x1e80;" horiz-adv-x="1570" 
d="M684 2021q23 -26 81 -141.5t116 -208.5l-9 -6q-79 69 -183 147t-128 105q-23 28 -24 63t26 60q34 23 65 16t56 -35zM1444 1278l-352 -1288h-23l-276 1032l-291 -1032h-25l-348 1286q-31 115 -65.5 174t-77.5 80v6h383v-6q-130 -70 -80 -258l254 -993l227 825l-47 172
q-21 80 -49 134t-51.5 78t-55.5 42v6h383v-6q-32 -18 -51 -49t-25 -84t13 -125l248 -989l262 993q23 90 -10 158t-93 96v6h305v-6q-101 -56 -155 -252z" />
    <glyph glyph-name="wgrave" unicode="&#x1e81;" horiz-adv-x="1198" 
d="M481 1507q24 -27 82 -142.5t115 -207.5l-6 -6q-66 56 -137 110t-112.5 86.5t-62.5 55.5q-24 27 -24.5 63t26.5 60q33 23 63.5 16t55.5 -35zM1124 791l-250 -811h-26l-246 684l-219 -684h-29l-301 854q-18 50 -28.5 76t-30.5 58.5t-43 47.5v6h297v-6q-42 -31 -53 -83
t8 -102l213 -628l164 526l-41 117q-27 72 -50 111.5t-55 58.5v6h303v-6q-94 -63 -53 -182l221 -635l187 620q19 55 13.5 96.5t-19 64.5t-33.5 36v6h192v-6q-65 -46 -121 -225z" />
    <glyph glyph-name="Wacute" unicode="&#x1e82;" horiz-adv-x="1570" 
d="M891 2021q27 29 57 36t62 -17q27 -24 27 -60t-25 -63q-23 -27 -126.5 -105t-183.5 -149l-8 6q63 96 119.5 212t77.5 140zM1444 1278l-352 -1288h-23l-276 1032l-291 -1032h-25l-348 1286q-31 115 -65.5 174t-77.5 80v6h383v-6q-130 -70 -80 -258l254 -993l227 825
l-47 172q-21 80 -49 134t-51.5 78t-55.5 42v6h383v-6q-32 -18 -51 -49t-25 -84t13 -125l248 -989l262 993q23 90 -10 158t-93 96v6h305v-6q-101 -56 -155 -252z" />
    <glyph glyph-name="wacute" unicode="&#x1e83;" horiz-adv-x="1198" 
d="M690 1507q26 29 56 36t63 -17q27 -26 26.5 -61t-24.5 -62q-23 -27 -127 -105t-184 -149l-6 6q62 95 118.5 211t77.5 141zM1124 791l-250 -811h-26l-246 684l-219 -684h-29l-301 854q-18 50 -28.5 76t-30.5 58.5t-43 47.5v6h297v-6q-42 -31 -53 -83t8 -102l213 -628
l164 526l-41 117q-27 72 -50 111.5t-55 58.5v6h303v-6q-94 -63 -53 -182l221 -635l187 620q19 55 13.5 96.5t-19 64.5t-33.5 36v6h192v-6q-65 -46 -121 -225z" />
    <glyph glyph-name="Wdieresis" unicode="&#x1e84;" horiz-adv-x="1570" 
d="M668 1737q-38 0 -64 30t-26 72q0 43 26 74t64 31t65 -31t27 -74q0 -42 -27 -72t-65 -30zM938 1737q-36 0 -62 30t-26 72q0 43 25.5 74t62.5 31q38 0 65 -31t27 -74q0 -42 -27 -72t-65 -30zM1444 1278l-352 -1288h-23l-276 1032l-291 -1032h-25l-348 1286
q-31 115 -65.5 174t-77.5 80v6h383v-6q-130 -70 -80 -258l254 -993l227 825l-47 172q-21 80 -49 134t-51.5 78t-55.5 42v6h383v-6q-32 -18 -51 -49t-25 -84t13 -125l248 -989l262 993q23 90 -10 158t-93 96v6h305v-6q-101 -56 -155 -252z" />
    <glyph glyph-name="wdieresis" unicode="&#x1e85;" horiz-adv-x="1198" 
d="M465 1223q-38 0 -64 30t-26 72q0 43 26 74t64 31t65 -31t27 -74q0 -42 -27 -72t-65 -30zM737 1223q-38 0 -64 30t-26 72q0 43 26 74t64 31t65 -31t27 -74q0 -42 -27 -72t-65 -30zM1124 791l-250 -811h-26l-246 684l-219 -684h-29l-301 854q-18 50 -28.5 76t-30.5 58.5
t-43 47.5v6h297v-6q-42 -31 -53 -83t8 -102l213 -628l164 526l-41 117q-27 72 -50 111.5t-55 58.5v6h303v-6q-94 -63 -53 -182l221 -635l187 620q19 55 13.5 96.5t-19 64.5t-33.5 36v6h192v-6q-65 -46 -121 -225z" />
    <glyph glyph-name="Ydotaccent" unicode="&#x1e8e;" horiz-adv-x="989" 
d="M547 1737q-39 0 -65.5 30.5t-26.5 73.5q0 45 26.5 76t65.5 31q40 0 67 -31.5t27 -75.5q0 -43 -27.5 -73.5t-66.5 -30.5zM578 174q0 -54 20 -94t70 -74v-6h-332v6q50 34 71 74t21 94v453l-303 645q-60 125 -95 180t-81 78v6h409v-6q-39 -17 -63.5 -53.5t-27.5 -89
t26 -115.5l270 -576l256 580q35 93 11 160t-85 94v6h291v-6q-74 -40 -168 -252l-290 -645v-459z" />
    <glyph glyph-name="ydotaccent" unicode="&#x1e8f;" horiz-adv-x="735" 
d="M410 1223q-39 0 -66 30.5t-27 73.5q0 45 27 76t66 31q40 0 67 -31.5t27 -75.5q0 -43 -27.5 -73.5t-66.5 -30.5zM61 -424q-73 0 -126.5 39t-53.5 92q0 34 20 58t50 24q31 0 49.5 -23t26.5 -50.5t29 -50.5t55 -23q67 0 123.5 73.5t97.5 206.5l26 78l-292 825
q-32 91 -55.5 130t-53.5 61v6h305v-6q-92 -65 -47 -189l211 -614l201 612q40 123 -41 191v6h194v-6q-29 -15 -59 -73.5t-51 -117.5l-301 -915q-56 -168 -130 -251t-178 -83z" />
    <glyph glyph-name="Zdotbelow" unicode="&#x1e92;" horiz-adv-x="942" 
d="M942 344l-70 -405h-8q-34 61 -129 61h-721v8l713 1495h-244q-131 0 -230.5 -69t-191.5 -215l-8 4l41 374h6q38 -61 138 -61h669v-6l-710 -1495h282q253 0 455 313zM471 -381q-39 0 -66.5 30t-27.5 70q0 43 27 73t67 30q39 0 65.5 -30t26.5 -73q0 -41 -26.5 -70.5
t-65.5 -29.5z" />
    <glyph glyph-name="zdotbelow" unicode="&#x1e93;" horiz-adv-x="722" 
d="M702 281l-34 -328h-11q-15 26 -42.5 36.5t-77.5 10.5h-517v6l476 979h-111q-125 0 -195.5 -57t-138.5 -189l-6 2l37 328h6q24 -47 123 -47h469v-6l-479 -979h159q118 0 200 68.5t132 177.5zM352 -381q-39 0 -65.5 29.5t-26.5 70.5q0 43 26.5 73t65.5 30q40 0 67 -30
t27 -73q0 -40 -27.5 -70t-66.5 -30z" />
    <glyph glyph-name="Adotbelow" unicode="&#x1ea0;" horiz-adv-x="1101" 
d="M121 258l411 1288h23l426 -1284q38 -116 74.5 -174t81.5 -82v-6h-369v6q47 22 62.5 88.5t-15.5 169.5l-92 291h-463l-90 -295q-27 -89 3 -159.5t85 -94.5v-6h-303v6q42 21 89 91t77 161zM272 596h437l-224 700zM553 -381q-39 0 -65.5 29.5t-26.5 70.5q0 43 26.5 73
t65.5 30q40 0 67 -30t27 -73q0 -40 -27.5 -70t-66.5 -30z" />
    <glyph glyph-name="adotbelow" unicode="&#x1ea1;" horiz-adv-x="804" 
d="M37 197q0 138 132 255t376 164v242q0 77 -31 118.5t-88 41.5q-52 0 -88.5 -28.5t-56 -69t-37 -81.5t-42.5 -69.5t-61 -28.5q-27 0 -45 20t-18 50q0 55 53.5 112t138.5 93.5t170 36.5q113 0 178.5 -59t65.5 -158q0 -83 -3 -341.5t-3 -353.5q0 -52 14 -77t47 -25
q38 0 74 33l4 -6q-27 -42 -69.5 -69.5t-85.5 -27.5q-54 0 -87.5 40t-33.5 116v35h-2q-65 -82 -147.5 -135.5t-158.5 -53.5q-82 0 -139 65t-57 161zM182 242q0 -83 35 -128.5t100 -45.5q109 0 224 118q0 59 1 197.5t1 206.5q-106 -26 -179.5 -65t-111.5 -86.5t-54 -94.5
t-16 -102zM387 -381q-39 0 -66.5 30t-27.5 70q0 43 27 73t67 30q38 0 65 -30t27 -73q0 -40 -27 -70t-65 -30z" />
    <glyph glyph-name="Ahookabove" unicode="&#x1ea2;" horiz-adv-x="1101" 
d="M520 1745q0 37 13.5 65.5t32 46.5t37.5 35.5t32.5 41.5t13.5 55q0 43 -21.5 64.5t-58.5 21.5q-35 0 -56 -23.5t-29 -52.5t-26.5 -52.5t-49.5 -23.5q-22 0 -35 15t-13 36q0 49 60.5 90t144.5 41q83 0 138 -42t55 -111q0 -44 -24.5 -78.5t-57 -56.5t-64.5 -44t-48.5 -53
t-6.5 -71l-8 -2q-29 50 -29 98zM121 258l411 1288h23l426 -1284q38 -116 74.5 -174t81.5 -82v-6h-369v6q47 22 62.5 88.5t-15.5 169.5l-92 291h-463l-90 -295q-27 -89 3 -159.5t85 -94.5v-6h-303v6q42 21 89 91t77 161zM272 596h437l-224 700z" />
    <glyph glyph-name="ahookabove" unicode="&#x1ea3;" horiz-adv-x="804" 
d="M356 1235q0 37 13.5 65.5t33 46.5t38.5 35.5t32.5 41.5t13.5 55q0 43 -21.5 64.5t-59.5 21.5q-28 0 -46.5 -15.5t-28.5 -38t-19 -45t-25 -38t-41 -15.5q-23 0 -35 14.5t-12 36.5q0 49 59.5 90t144.5 41q82 0 136.5 -42t54.5 -111q0 -37 -17.5 -68t-42.5 -49.5
t-53.5 -39.5t-51 -38.5t-33.5 -45.5t-3 -62l-8 -2q-29 50 -29 98zM37 197q0 138 132 255t376 164v242q0 77 -31 118.5t-88 41.5q-52 0 -88.5 -28.5t-56 -69t-37 -81.5t-42.5 -69.5t-61 -28.5q-27 0 -45 20t-18 50q0 55 53.5 112t138.5 93.5t170 36.5q113 0 178.5 -59
t65.5 -158q0 -83 -3 -341.5t-3 -353.5q0 -52 14 -77t47 -25q38 0 74 33l4 -6q-27 -42 -69.5 -69.5t-85.5 -27.5q-54 0 -87.5 40t-33.5 116v35h-2q-65 -82 -147.5 -135.5t-158.5 -53.5q-82 0 -139 65t-57 161zM182 242q0 -83 35 -128.5t100 -45.5q109 0 224 118q0 59 1 197.5
t1 206.5q-106 -26 -179.5 -65t-111.5 -86.5t-54 -94.5t-16 -102z" />
    <glyph glyph-name="Acircumflexacute" unicode="&#x1ea4;" horiz-adv-x="1101" 
d="M766 1874q15 96 23.5 202.5t15.5 135.5q6 31 28.5 48.5t53.5 10.5q32 -6 43.5 -33t3.5 -59q-7 -27 -29 -66.5t-60.5 -106.5t-70.5 -134zM291 1665l186 315q30 48 75.5 46.5t72.5 -46.5l186 -315l-8 -6l-250 217h-4l-250 -217zM121 258l411 1288h23l426 -1284
q38 -116 74.5 -174t81.5 -82v-6h-369v6q47 22 62.5 88.5t-15.5 169.5l-92 291h-463l-90 -295q-27 -89 3 -159.5t85 -94.5v-6h-303v6q42 21 89 91t77 161zM272 596h437l-224 700z" />
    <glyph glyph-name="acircumflexacute" unicode="&#x1ea5;" horiz-adv-x="804" 
d="M602 1364q15 96 23.5 202.5t15.5 135.5q8 31 30 48.5t54 10.5q31 -6 43 -33.5t2 -58.5q-7 -27 -29 -66.5t-60.5 -106.5t-70.5 -134zM129 1155l184 315q30 48 76.5 46.5t73.5 -46.5l186 -315l-8 -6l-250 217h-6l-250 -217zM37 197q0 138 132 255t376 164v242
q0 77 -31 118.5t-88 41.5q-52 0 -88.5 -28.5t-56 -69t-37 -81.5t-42.5 -69.5t-61 -28.5q-27 0 -45 20t-18 50q0 55 53.5 112t138.5 93.5t170 36.5q113 0 178.5 -59t65.5 -158q0 -83 -3 -341.5t-3 -353.5q0 -52 14 -77t47 -25q38 0 74 33l4 -6q-27 -42 -69.5 -69.5
t-85.5 -27.5q-54 0 -87.5 40t-33.5 116v35h-2q-65 -82 -147.5 -135.5t-158.5 -53.5q-82 0 -139 65t-57 161zM182 242q0 -83 35 -128.5t100 -45.5q109 0 224 118q0 59 1 197.5t1 206.5q-106 -26 -179.5 -65t-111.5 -86.5t-54 -94.5t-16 -102z" />
    <glyph glyph-name="Acircumflexgrave" unicode="&#x1ea6;" horiz-adv-x="1101" 
d="M674 2179q-10 31 2 58.5t43 33.5q32 7 54 -10.5t30 -48.5q7 -29 15.5 -135.5t23.5 -202.5l-8 -2q-32 67 -70.5 134t-60.5 106.5t-29 66.5zM291 1665l186 315q28 47 75.5 46t72.5 -46l186 -315l-8 -6l-250 217h-4l-250 -217zM121 258l411 1288h23l426 -1284
q38 -116 74.5 -174t81.5 -82v-6h-369v6q47 22 62.5 88.5t-15.5 169.5l-92 291h-463l-90 -295q-27 -89 3 -159.5t85 -94.5v-6h-303v6q42 21 89 91t77 161zM272 596h437l-224 700z" />
    <glyph glyph-name="acircumflexgrave" unicode="&#x1ea7;" horiz-adv-x="804" 
d="M510 1669q-10 31 2 58.5t43 33.5q32 7 54 -10.5t30 -48.5q9 -31 17 -139.5t22 -198.5l-8 -2q-32 67 -70.5 134t-60.5 106.5t-29 66.5zM129 1155l184 315q28 47 75.5 46t74.5 -46l186 -315l-8 -6l-250 217h-6l-250 -217zM37 197q0 138 132 255t376 164v242q0 77 -31 118.5
t-88 41.5q-52 0 -88.5 -28.5t-56 -69t-37 -81.5t-42.5 -69.5t-61 -28.5q-27 0 -45 20t-18 50q0 55 53.5 112t138.5 93.5t170 36.5q113 0 178.5 -59t65.5 -158q0 -83 -3 -341.5t-3 -353.5q0 -52 14 -77t47 -25q38 0 74 33l4 -6q-27 -42 -69.5 -69.5t-85.5 -27.5
q-54 0 -87.5 40t-33.5 116v35h-2q-65 -82 -147.5 -135.5t-158.5 -53.5q-82 0 -139 65t-57 161zM182 242q0 -83 35 -128.5t100 -45.5q109 0 224 118q0 59 1 197.5t1 206.5q-106 -26 -179.5 -65t-111.5 -86.5t-54 -94.5t-16 -102z" />
    <glyph glyph-name="Acircumflexhookabove" unicode="&#x1ea8;" horiz-adv-x="1101" 
d="M788 1974q0 37 13.5 65.5t33 46t39 34.5t33 41t13.5 55q0 43 -22 65.5t-58 22.5q-29 0 -48 -15.5t-28.5 -38l-19 -45t-25.5 -38.5t-41 -17q-22 0 -34.5 15t-12.5 37q0 51 60 91t145 40q82 0 137 -41.5t55 -110.5q0 -44 -24.5 -78.5t-57.5 -57t-64.5 -45t-49 -53.5
t-7.5 -71l-8 -2q-29 50 -29 100zM291 1665l186 315q28 47 75.5 46t72.5 -46l186 -315l-8 -6l-250 217h-4l-250 -217zM121 258l411 1288h23l426 -1284q38 -116 74.5 -174t81.5 -82v-6h-369v6q47 22 62.5 88.5t-15.5 169.5l-92 291h-463l-90 -295q-27 -89 3 -159.5t85 -94.5
v-6h-303v6q42 21 89 91t77 161zM272 596h437l-224 700z" />
    <glyph glyph-name="acircumflexhookabove" unicode="&#x1ea9;" horiz-adv-x="804" 
d="M627 1464q0 37 13.5 65.5t32 46t37.5 34.5t32.5 41t13.5 55q0 43 -22 65.5t-58 22.5q-29 0 -47.5 -15.5t-28.5 -38t-19 -45t-25.5 -38.5t-41.5 -17q-22 0 -34.5 15t-12.5 37q0 51 60.5 91t144.5 40t138 -41.5t54 -110.5q0 -44 -24 -78.5t-57 -57t-64.5 -45t-48 -53.5
t-6.5 -71l-9 -2q-28 49 -28 100zM129 1155l184 315q28 47 75.5 46t74.5 -46l186 -315l-8 -6l-250 217h-6l-250 -217zM37 197q0 138 132 255t376 164v242q0 77 -31 118.5t-88 41.5q-52 0 -88.5 -28.5t-56 -69t-37 -81.5t-42.5 -69.5t-61 -28.5q-27 0 -45 20t-18 50
q0 55 53.5 112t138.5 93.5t170 36.5q113 0 178.5 -59t65.5 -158q0 -83 -3 -341.5t-3 -353.5q0 -52 14 -77t47 -25q38 0 74 33l4 -6q-27 -42 -69.5 -69.5t-85.5 -27.5q-54 0 -87.5 40t-33.5 116v35h-2q-65 -82 -147.5 -135.5t-158.5 -53.5q-82 0 -139 65t-57 161zM182 242
q0 -83 35 -128.5t100 -45.5q109 0 224 118q0 59 1 197.5t1 206.5q-106 -26 -179.5 -65t-111.5 -86.5t-54 -94.5t-16 -102z" />
    <glyph glyph-name="Acircumflextilde" unicode="&#x1eaa;" horiz-adv-x="1101" 
d="M412 2234q-76 0 -97 -133l-8 2q7 114 49.5 175t110.5 61q28 0 55.5 -16t49.5 -38.5t43.5 -45t44 -38.5t42.5 -16q74 0 91 137l10 -2q-18 -237 -158 -237q-28 0 -55.5 15.5t-50 37.5t-43.5 44.5t-43 38t-41 15.5zM291 1665l186 315q28 47 74 46t74 -46l186 -315l-8 -6
l-250 217h-4l-250 -217zM121 258l411 1288h23l426 -1284q38 -116 74.5 -174t81.5 -82v-6h-369v6q47 22 62.5 88.5t-15.5 169.5l-92 291h-463l-90 -295q-27 -89 3 -159.5t85 -94.5v-6h-303v6q42 21 89 91t77 161zM272 596h437l-224 700z" />
    <glyph glyph-name="acircumflextilde" unicode="&#x1eab;" horiz-adv-x="804" 
d="M248 1724q-73 0 -94 -133l-11 2q9 114 51 175t109 61q28 0 56 -16t50.5 -38.5t43.5 -45t43.5 -38.5t42.5 -16q73 0 90 137l10 -2q-9 -119 -47.5 -178t-110.5 -59q-33 0 -67.5 23.5t-59 52t-53.5 52t-53 23.5zM129 1155l184 315q28 47 74.5 46t73.5 -46l188 -315l-8 -6
l-250 217h-6l-250 -217zM37 197q0 138 132 255t376 164v242q0 77 -31 118.5t-88 41.5q-52 0 -88.5 -28.5t-56 -69t-37 -81.5t-42.5 -69.5t-61 -28.5q-27 0 -45 20t-18 50q0 55 53.5 112t138.5 93.5t170 36.5q113 0 178.5 -59t65.5 -158q0 -83 -3 -341.5t-3 -353.5
q0 -52 14 -77t47 -25q38 0 74 33l4 -6q-27 -42 -69.5 -69.5t-85.5 -27.5q-54 0 -87.5 40t-33.5 116v35h-2q-65 -82 -147.5 -135.5t-158.5 -53.5q-82 0 -139 65t-57 161zM182 242q0 -83 35 -128.5t100 -45.5q109 0 224 118q0 59 1 197.5t1 206.5q-106 -26 -179.5 -65
t-111.5 -86.5t-54 -94.5t-16 -102z" />
    <glyph glyph-name="Acircumflexdotbelow" unicode="&#x1eac;" horiz-adv-x="1101" 
d="M291 1661l186 340q27 47 75.5 46t72.5 -46l186 -340l-8 -6l-250 241h-4l-250 -241zM121 258l411 1288h23l426 -1284q38 -116 74.5 -174t81.5 -82v-6h-369v6q47 22 62.5 88.5t-15.5 169.5l-92 291h-463l-90 -295q-27 -89 3 -159.5t85 -94.5v-6h-303v6q42 21 89 91t77 161z
M272 596h437l-224 700zM553 -381q-39 0 -65.5 29.5t-26.5 70.5q0 43 26.5 73t65.5 30q40 0 67 -30t27 -73q0 -40 -27.5 -70t-66.5 -30z" />
    <glyph glyph-name="acircumflexdotbelow" unicode="&#x1ead;" horiz-adv-x="804" 
d="M129 1151l184 340q27 47 76.5 46t73.5 -46l186 -340l-8 -6l-250 241h-6l-250 -241zM37 197q0 138 132 255t376 164v242q0 77 -31 118.5t-88 41.5q-52 0 -88.5 -28.5t-56 -69t-37 -81.5t-42.5 -69.5t-61 -28.5q-27 0 -45 20t-18 50q0 55 53.5 112t138.5 93.5t170 36.5
q113 0 178.5 -59t65.5 -158q0 -83 -3 -341.5t-3 -353.5q0 -52 14 -77t47 -25q38 0 74 33l4 -6q-27 -42 -69.5 -69.5t-85.5 -27.5q-54 0 -87.5 40t-33.5 116v35h-2q-65 -82 -147.5 -135.5t-158.5 -53.5q-82 0 -139 65t-57 161zM182 242q0 -83 35 -128.5t100 -45.5
q109 0 224 118q0 59 1 197.5t1 206.5q-106 -26 -179.5 -65t-111.5 -86.5t-54 -94.5t-16 -102zM387 -381q-39 0 -66.5 30t-27.5 70q0 43 27 73t67 30q38 0 65 -30t27 -73q0 -40 -27 -70t-65 -30z" />
    <glyph glyph-name="Abreveacute" unicode="&#x1eae;" horiz-adv-x="1101" 
d="M567 2296q9 29 33.5 44t54.5 5q31 -9 41 -40t-2 -58q-13 -30 -73 -123.5t-105 -173.5l-8 4q14 71 24.5 148.5t17 122.5t17.5 71zM551 1696q-104 0 -168 85t-64 232l11 2q13 -95 75 -142.5t146 -47.5q85 0 146 46.5t75 143.5l10 -2q0 -147 -63.5 -232t-167.5 -85zM121 258
l411 1288h23l426 -1284q38 -116 74.5 -174t81.5 -82v-6h-369v6q47 22 62.5 88.5t-15.5 169.5l-92 291h-463l-90 -295q-27 -89 3 -159.5t85 -94.5v-6h-303v6q42 21 89 91t77 161zM272 596h437l-224 700z" />
    <glyph glyph-name="abreveacute" unicode="&#x1eaf;" horiz-adv-x="804" 
d="M403 1786q9 29 35 44t56 5q30 -8 39 -39.5t-3 -58.5q-12 -29 -71.5 -122t-104.5 -175l-10 4q14 71 24.5 148.5t17 122.5t17.5 71zM387 1186q-103 0 -167 85t-64 232l10 2q14 -95 76 -142.5t145 -47.5q85 0 146.5 46.5t74.5 143.5l13 -2q0 -147 -64.5 -232t-169.5 -85z
M37 197q0 138 132 255t376 164v242q0 77 -31 118.5t-88 41.5q-52 0 -88.5 -28.5t-56 -69t-37 -81.5t-42.5 -69.5t-61 -28.5q-27 0 -45 20t-18 50q0 55 53.5 112t138.5 93.5t170 36.5q113 0 178.5 -59t65.5 -158q0 -83 -3 -341.5t-3 -353.5q0 -52 14 -77t47 -25q38 0 74 33
l4 -6q-27 -42 -69.5 -69.5t-85.5 -27.5q-54 0 -87.5 40t-33.5 116v35h-2q-65 -82 -147.5 -135.5t-158.5 -53.5q-82 0 -139 65t-57 161zM182 242q0 -83 35 -128.5t100 -45.5q109 0 224 118q0 59 1 197.5t1 206.5q-106 -26 -179.5 -65t-111.5 -86.5t-54 -94.5t-16 -102z" />
    <glyph glyph-name="Abrevegrave" unicode="&#x1eb0;" horiz-adv-x="1101" 
d="M530 2296q11 -26 18 -70.5t17.5 -122.5t24.5 -149l-10 -4q-46 85 -106 177.5t-71 119.5q-12 27 -2 58t39 40q31 10 55.5 -5t34.5 -44zM551 1696q-104 0 -168 85t-64 232l11 2q13 -95 75 -142.5t146 -47.5q85 0 146 46.5t75 143.5l10 -2q0 -147 -63.5 -232t-167.5 -85z
M121 258l411 1288h23l426 -1284q38 -116 74.5 -174t81.5 -82v-6h-369v6q47 22 62.5 88.5t-15.5 169.5l-92 291h-463l-90 -295q-27 -89 3 -159.5t85 -94.5v-6h-303v6q42 21 89 91t77 161zM272 596h437l-224 700z" />
    <glyph glyph-name="abrevegrave" unicode="&#x1eb1;" horiz-adv-x="804" 
d="M367 1786q11 -26 17.5 -71t17 -122.5t24.5 -148.5l-8 -4q-44 80 -104 173.5t-72 123.5q-13 27 -3 58t40 40q31 10 54.5 -5t33.5 -44zM387 1186q-103 0 -167 85t-64 232l10 2q14 -95 76 -142.5t145 -47.5q85 0 146.5 46.5t74.5 143.5l13 -2q0 -147 -64.5 -232t-169.5 -85z
M37 197q0 138 132 255t376 164v242q0 77 -31 118.5t-88 41.5q-52 0 -88.5 -28.5t-56 -69t-37 -81.5t-42.5 -69.5t-61 -28.5q-27 0 -45 20t-18 50q0 55 53.5 112t138.5 93.5t170 36.5q113 0 178.5 -59t65.5 -158q0 -83 -3 -341.5t-3 -353.5q0 -52 14 -77t47 -25q38 0 74 33
l4 -6q-27 -42 -69.5 -69.5t-85.5 -27.5q-54 0 -87.5 40t-33.5 116v35h-2q-65 -82 -147.5 -135.5t-158.5 -53.5q-82 0 -139 65t-57 161zM182 242q0 -83 35 -128.5t100 -45.5q109 0 224 118q0 59 1 197.5t1 206.5q-106 -26 -179.5 -65t-111.5 -86.5t-54 -94.5t-16 -102z" />
    <glyph glyph-name="Abrevehookabove" unicode="&#x1eb2;" horiz-adv-x="1101" 
d="M516 2032q0 37 13.5 65.5t32 46.5t37.5 35t32.5 41t13.5 55q0 43 -21.5 64.5t-58.5 21.5q-29 0 -47.5 -15.5t-28.5 -37.5t-19 -44.5t-25.5 -38t-41.5 -15.5q-22 0 -34.5 15t-12.5 36q0 49 60.5 90t144.5 41q83 0 138 -42.5t55 -111.5q0 -44 -24.5 -78.5t-57 -56.5
t-64.5 -44t-48.5 -53t-6.5 -71l-8 -2q-29 50 -29 99zM551 1696q-104 0 -168 85t-64 232l11 2q13 -95 75 -142.5t146 -47.5q85 0 146 46.5t75 143.5l10 -2q0 -147 -63.5 -232t-167.5 -85zM121 258l411 1288h23l426 -1284q38 -116 74.5 -174t81.5 -82v-6h-369v6
q47 22 62.5 88.5t-15.5 169.5l-92 291h-463l-90 -295q-27 -89 3 -159.5t85 -94.5v-6h-303v6q42 21 89 91t77 161zM272 596h437l-224 700z" />
    <glyph glyph-name="abrevehookabove" unicode="&#x1eb3;" horiz-adv-x="804" 
d="M352 1522q0 37 13.5 65.5t33 46.5t38.5 35t32.5 41t13.5 55q0 43 -22 64.5t-60 21.5q-34 0 -55 -23.5t-29 -52t-26.5 -52t-48.5 -23.5q-23 0 -35 14.5t-12 36.5q0 49 59.5 90t144.5 41q82 0 136.5 -42t54.5 -111q0 -37 -17.5 -68t-42.5 -50t-53.5 -39.5t-51 -38.5
t-33.5 -46t-3 -62l-8 -2q-29 50 -29 99zM387 1186q-103 0 -167 85t-64 232l10 2q14 -95 76 -142.5t145 -47.5q85 0 146.5 46.5t74.5 143.5l13 -2q0 -147 -64.5 -232t-169.5 -85zM37 197q0 138 132 255t376 164v242q0 77 -31 118.5t-88 41.5q-52 0 -88.5 -28.5t-56 -69
t-37 -81.5t-42.5 -69.5t-61 -28.5q-27 0 -45 20t-18 50q0 55 53.5 112t138.5 93.5t170 36.5q113 0 178.5 -59t65.5 -158q0 -83 -3 -341.5t-3 -353.5q0 -52 14 -77t47 -25q38 0 74 33l4 -6q-27 -42 -69.5 -69.5t-85.5 -27.5q-54 0 -87.5 40t-33.5 116v35h-2
q-65 -82 -147.5 -135.5t-158.5 -53.5q-82 0 -139 65t-57 161zM182 242q0 -83 35 -128.5t100 -45.5q109 0 224 118q0 59 1 197.5t1 206.5q-106 -26 -179.5 -65t-111.5 -86.5t-54 -94.5t-16 -102z" />
    <glyph glyph-name="Abrevetilde" unicode="&#x1eb4;" horiz-adv-x="1101" 
d="M408 2191q-76 0 -97 -133l-8 2q7 114 49.5 175t110.5 61q34 0 68.5 -23.5t58.5 -51.5t54 -51.5t54 -23.5q72 0 90 138l11 -3q-18 -237 -158 -237q-34 0 -69 23t-59 50.5t-53 50.5t-52 23zM322 2005l10 2q13 -91 74.5 -136.5t144.5 -45.5q84 0 145 45t74 137l10 -2
q0 -144 -63 -226.5t-166 -82.5t-166 82.5t-63 226.5zM121 258l411 1288h23l426 -1284q38 -116 74.5 -174t81.5 -82v-6h-369v6q47 22 62.5 88.5t-15.5 169.5l-92 291h-463l-90 -295q-27 -89 3 -159.5t85 -94.5v-6h-303v6q42 21 89 91t77 161zM272 596h437l-224 700z" />
    <glyph glyph-name="abrevetilde" unicode="&#x1eb5;" horiz-adv-x="804" 
d="M244 1681q-73 0 -94 -133l-11 2q9 114 51 175t109 61q28 0 56 -15.5t50.5 -37.5t43.5 -44t43.5 -37.5t42.5 -15.5q72 0 90 138l10 -2q-18 -238 -158 -238q-33 0 -67.5 23t-59 50.5t-53.5 50.5t-53 23zM158 1495l10 2q13 -91 75 -136.5t144 -45.5q85 0 145.5 44.5
t73.5 137.5l12 -2q0 -144 -64 -226.5t-167 -82.5t-166 82.5t-63 226.5zM37 197q0 138 132 255t376 164v242q0 77 -31 118.5t-88 41.5q-52 0 -88.5 -28.5t-56 -69t-37 -81.5t-42.5 -69.5t-61 -28.5q-27 0 -45 20t-18 50q0 55 53.5 112t138.5 93.5t170 36.5q113 0 178.5 -59
t65.5 -158q0 -83 -3 -341.5t-3 -353.5q0 -52 14 -77t47 -25q38 0 74 33l4 -6q-27 -42 -69.5 -69.5t-85.5 -27.5q-54 0 -87.5 40t-33.5 116v35h-2q-65 -82 -147.5 -135.5t-158.5 -53.5q-82 0 -139 65t-57 161zM182 242q0 -83 35 -128.5t100 -45.5q109 0 224 118q0 59 1 197.5
t1 206.5q-106 -26 -179.5 -65t-111.5 -86.5t-54 -94.5t-16 -102z" />
    <glyph glyph-name="Abrevedotbelow" unicode="&#x1eb6;" horiz-adv-x="1101" 
d="M551 1712q-104 0 -168 85.5t-64 232.5l11 2q13 -95 75.5 -143t145.5 -48q85 0 146 47t75 144l10 -2q0 -147 -63.5 -232.5t-167.5 -85.5zM121 258l411 1288h23l426 -1284q38 -116 74.5 -174t81.5 -82v-6h-369v6q47 22 62.5 88.5t-15.5 169.5l-92 291h-463l-90 -295
q-27 -89 3 -159.5t85 -94.5v-6h-303v6q42 21 89 91t77 161zM272 596h437l-224 700zM553 -381q-39 0 -65.5 29.5t-26.5 70.5q0 43 26.5 73t65.5 30q40 0 67 -30t27 -73q0 -40 -27.5 -70t-66.5 -30z" />
    <glyph glyph-name="abrevedotbelow" unicode="&#x1eb7;" horiz-adv-x="804" 
d="M387 1202q-103 0 -167 85.5t-64 232.5l10 2q14 -95 76 -143t145 -48q85 0 146.5 47t74.5 144l13 -2q0 -147 -65 -232.5t-169 -85.5zM37 197q0 138 132 255t376 164v242q0 77 -31 118.5t-88 41.5q-52 0 -88.5 -28.5t-56 -69t-37 -81.5t-42.5 -69.5t-61 -28.5q-27 0 -45 20
t-18 50q0 55 53.5 112t138.5 93.5t170 36.5q113 0 178.5 -59t65.5 -158q0 -83 -3 -341.5t-3 -353.5q0 -52 14 -77t47 -25q38 0 74 33l4 -6q-27 -42 -69.5 -69.5t-85.5 -27.5q-54 0 -87.5 40t-33.5 116v35h-2q-65 -82 -147.5 -135.5t-158.5 -53.5q-82 0 -139 65t-57 161z
M182 242q0 -83 35 -128.5t100 -45.5q109 0 224 118q0 59 1 197.5t1 206.5q-106 -26 -179.5 -65t-111.5 -86.5t-54 -94.5t-16 -102zM387 -381q-39 0 -66.5 30t-27.5 70q0 43 27 73t67 30q38 0 65 -30t27 -73q0 -40 -27 -70t-65 -30z" />
    <glyph glyph-name="Edotbelow" unicode="&#x1eb8;" horiz-adv-x="1007" 
d="M53 1536h680q98 0 135 61h6l39 -374l-8 -4q-62 94 -116.5 152t-131.5 95t-170 37q-106 0 -147 -42.5t-41 -139.5v-451h301q134 0 205 158h6v-360h-6q-92 163 -203 163h-303v-616q0 -180 209 -180q83 0 154 24t128.5 70t101 97t89.5 122l6 -4l-67 -405h-11q-37 61 -127 61
h-729v6q97 51 97 178v1168q0 134 -97 178v6zM508 -381q-39 0 -65.5 29.5t-26.5 70.5q0 43 26.5 73t65.5 30q40 0 67 -30t27 -73q0 -40 -27.5 -70t-66.5 -30z" />
    <glyph glyph-name="edotbelow" unicode="&#x1eb9;" horiz-adv-x="798" 
d="M197 559q0 -128 30.5 -231t96.5 -168.5t157 -65.5q82 0 148 43.5t106 122.5l8 -4q-44 -137 -130.5 -212t-196.5 -75q-152 0 -257.5 134t-105.5 356q0 162 53 298.5t146 216t205 79.5q134 0 217.5 -115.5t83.5 -284.5v-28h-559q-2 -20 -2 -66zM420 1014q-83 0 -144 -91.5
t-75 -263.5h407q-2 163 -52.5 259t-135.5 96zM424 -381q-38 0 -65 30t-27 70q0 43 27 73t65 30q40 0 67 -30t27 -73q0 -40 -27.5 -70t-66.5 -30z" />
    <glyph glyph-name="Ehookabove" unicode="&#x1eba;" horiz-adv-x="1007" 
d="M477 1749q0 37 13.5 65.5t32.5 46.5t38.5 35.5t33 41.5t13.5 55q0 43 -22.5 64.5t-59.5 21.5q-29 0 -47.5 -15.5t-28 -38t-18 -45t-24.5 -38t-41 -15.5q-23 0 -35.5 14.5t-12.5 36.5q0 49 60 90t145 41q82 0 136.5 -42t54.5 -111q0 -37 -17.5 -68t-42.5 -49.5
t-53.5 -39.5t-51 -38.5t-33.5 -45.5t-3 -62l-8 -2q-29 50 -29 98zM53 1536h680q98 0 135 61h6l39 -374l-8 -4q-62 94 -116.5 152t-131.5 95t-170 37q-106 0 -147 -42.5t-41 -139.5v-451h301q134 0 205 158h6v-360h-6q-92 163 -203 163h-303v-616q0 -180 209 -180
q83 0 154 24t128.5 70t101 97t89.5 122l6 -4l-67 -405h-11q-37 61 -127 61h-729v6q97 51 97 178v1168q0 134 -97 178v6z" />
    <glyph glyph-name="ehookabove" unicode="&#x1ebb;" horiz-adv-x="798" 
d="M391 1235q0 37 13.5 65.5t32.5 46.5t38.5 35.5t33 41.5t13.5 55q0 43 -22.5 64.5t-59.5 21.5q-29 0 -47.5 -15.5t-28 -38t-18 -45t-24.5 -38t-41 -15.5q-23 0 -35.5 14.5t-12.5 36.5q0 49 60 90t145 41q82 0 136.5 -42t54.5 -111q0 -37 -17.5 -68t-42.5 -49.5
t-53.5 -39.5t-51 -38.5t-33.5 -45.5t-3 -62l-8 -2q-29 50 -29 98zM197 559q0 -128 30.5 -231t96.5 -168.5t157 -65.5q82 0 148 43.5t106 122.5l8 -4q-44 -137 -130.5 -212t-196.5 -75q-152 0 -257.5 134t-105.5 356q0 162 53 298.5t146 216t205 79.5q134 0 217.5 -115.5
t83.5 -284.5v-28h-559q-2 -20 -2 -66zM420 1014q-83 0 -144 -91.5t-75 -263.5h407q-2 163 -52.5 259t-135.5 96z" />
    <glyph glyph-name="Etilde" unicode="&#x1ebc;" horiz-adv-x="1007" 
d="M600 1724q-34 0 -70 24t-60.5 52t-54 52t-53.5 24q-77 0 -98 -137l-10 2q9 118 52 179.5t112 61.5q35 0 70.5 -24t60 -52.5t54.5 -52.5t54 -24q75 0 93 141l10 -2q-15 -244 -160 -244zM53 1536h680q98 0 135 61h6l39 -374l-8 -4q-62 94 -116.5 152t-131.5 95t-170 37
q-106 0 -147 -42.5t-41 -139.5v-451h301q134 0 205 158h6v-360h-6q-92 163 -203 163h-303v-616q0 -180 209 -180q83 0 154 24t128.5 70t101 97t89.5 122l6 -4l-67 -405h-11q-37 61 -127 61h-729v6q97 51 97 178v1168q0 134 -97 178v6z" />
    <glyph glyph-name="etilde" unicode="&#x1ebd;" horiz-adv-x="798" 
d="M514 1210q-34 0 -70 24t-60.5 52t-54 52t-53.5 24q-77 0 -98 -137l-10 2q9 118 52 179.5t112 61.5q35 0 70.5 -24t60 -52.5t54.5 -52.5t54 -24q75 0 93 141l10 -2q-15 -244 -160 -244zM197 559q0 -128 30.5 -231t96.5 -168.5t157 -65.5q82 0 148 43.5t106 122.5l8 -4
q-44 -137 -130.5 -212t-196.5 -75q-152 0 -257.5 134t-105.5 356q0 162 53 298.5t146 216t205 79.5q134 0 217.5 -115.5t83.5 -284.5v-28h-559q-2 -20 -2 -66zM420 1014q-83 0 -144 -91.5t-75 -263.5h407q-2 163 -52.5 259t-135.5 96z" />
    <glyph glyph-name="Ecircumflexacute" unicode="&#x1ebe;" horiz-adv-x="1007" 
d="M723 1878q15 96 23.5 202.5t15.5 135.5q8 31 30 48.5t54 10.5q31 -6 43 -33.5t2 -58.5q-7 -27 -29 -66.5t-60.5 -106.5t-70.5 -134zM248 1669l186 316q30 48 76 46.5t74 -46.5l184 -316l-6 -6l-252 217h-4l-250 -217zM53 1536h680q98 0 135 61h6l39 -374l-8 -4
q-62 94 -116.5 152t-131.5 95t-170 37q-106 0 -147 -42.5t-41 -139.5v-451h301q134 0 205 158h6v-360h-6q-92 163 -203 163h-303v-616q0 -180 209 -180q83 0 154 24t128.5 70t101 97t89.5 122l6 -4l-67 -405h-11q-37 61 -127 61h-729v6q97 51 97 178v1168q0 134 -97 178v6z
" />
    <glyph glyph-name="ecircumflexacute" unicode="&#x1ebf;" horiz-adv-x="798" 
d="M637 1364q15 96 23.5 202.5t15.5 135.5q8 31 30 48.5t54 10.5q31 -6 43 -33.5t2 -58.5q-7 -27 -29 -66.5t-60.5 -106.5t-70.5 -134zM162 1155l186 315q30 48 76 46.5t74 -46.5l184 -315l-6 -6l-252 217h-4l-250 -217zM197 559q0 -128 30.5 -231t96.5 -168.5t157 -65.5
q82 0 148 43.5t106 122.5l8 -4q-44 -137 -130.5 -212t-196.5 -75q-152 0 -257.5 134t-105.5 356q0 162 53 298.5t146 216t205 79.5q134 0 217.5 -115.5t83.5 -284.5v-28h-559q-2 -20 -2 -66zM420 1014q-83 0 -144 -91.5t-75 -263.5h407q-2 163 -52.5 259t-135.5 96z" />
    <glyph glyph-name="Ecircumflexgrave" unicode="&#x1ec0;" horiz-adv-x="1007" 
d="M631 2183q-10 31 2 58.5t43 33.5q32 7 54 -10.5t30 -48.5q9 -30 16.5 -137t22.5 -201l-8 -2q-32 67 -70.5 134t-60.5 106.5t-29 66.5zM248 1669l186 316q28 47 75.5 46t74.5 -46l184 -316l-6 -6l-252 217h-4l-250 -217zM53 1536h680q98 0 135 61h6l39 -374l-8 -4
q-62 94 -116.5 152t-131.5 95t-170 37q-106 0 -147 -42.5t-41 -139.5v-451h301q134 0 205 158h6v-360h-6q-92 163 -203 163h-303v-616q0 -180 209 -180q83 0 154 24t128.5 70t101 97t89.5 122l6 -4l-67 -405h-11q-37 61 -127 61h-729v6q97 51 97 178v1168q0 134 -97 178v6z
" />
    <glyph glyph-name="ecircumflexgrave" unicode="&#x1ec1;" horiz-adv-x="798" 
d="M545 1669q-10 31 2 58.5t43 33.5q32 7 54 -10.5t30 -48.5q9 -30 16.5 -137t22.5 -201l-8 -2q-32 67 -70.5 134t-60.5 106.5t-29 66.5zM162 1155l186 315q28 47 75.5 46t74.5 -46l184 -315l-6 -6l-252 217h-4l-250 -217zM197 559q0 -128 30.5 -231t96.5 -168.5t157 -65.5
q82 0 148 43.5t106 122.5l8 -4q-44 -137 -130.5 -212t-196.5 -75q-152 0 -257.5 134t-105.5 356q0 162 53 298.5t146 216t205 79.5q134 0 217.5 -115.5t83.5 -284.5v-28h-559q-2 -20 -2 -66zM420 1014q-83 0 -144 -91.5t-75 -263.5h407q-2 163 -52.5 259t-135.5 96z" />
    <glyph glyph-name="Ecircumflexhookabove" unicode="&#x1ec2;" horiz-adv-x="1007" 
d="M745 1978q0 37 13.5 65.5t33 46t39 34.5t33 41t13.5 55q0 43 -22 65.5t-58 22.5q-29 0 -48 -15.5t-28.5 -38l-19 -45t-25.5 -38.5t-41 -17q-22 0 -34.5 15t-12.5 37q0 51 60.5 91t144.5 40t138 -41.5t54 -110.5q0 -44 -24.5 -78.5t-57.5 -57t-64.5 -45t-49 -53.5
t-7.5 -71l-6 -2q-31 54 -31 100zM248 1669l186 316q28 47 75.5 46t74.5 -46l184 -316l-6 -6l-252 217h-4l-250 -217zM53 1536h680q98 0 135 61h6l39 -374l-8 -4q-62 94 -116.5 152t-131.5 95t-170 37q-106 0 -147 -42.5t-41 -139.5v-451h301q134 0 205 158h6v-360h-6
q-92 163 -203 163h-303v-616q0 -180 209 -180q83 0 154 24t128.5 70t101 97t89.5 122l6 -4l-67 -405h-11q-37 61 -127 61h-729v6q97 51 97 178v1168q0 134 -97 178v6z" />
    <glyph glyph-name="ecircumflexhookabove" unicode="&#x1ec3;" horiz-adv-x="798" 
d="M659 1464q0 37 13.5 65.5t33 46t39 34.5t33 41t13.5 55q0 43 -22 65.5t-58 22.5q-29 0 -48 -15.5t-28.5 -38l-19 -45t-25.5 -38.5t-41 -17q-22 0 -34.5 15t-12.5 37q0 51 60.5 91t144.5 40t138 -41.5t54 -110.5q0 -44 -24.5 -78.5t-57.5 -57t-64.5 -45t-49 -53.5
t-7.5 -71l-6 -2q-31 54 -31 100zM162 1155l186 315q28 47 75.5 46t74.5 -46l184 -315l-6 -6l-252 217h-4l-250 -217zM197 559q0 -128 30.5 -231t96.5 -168.5t157 -65.5q82 0 148 43.5t106 122.5l8 -4q-44 -137 -130.5 -212t-196.5 -75q-152 0 -257.5 134t-105.5 356
q0 162 53 298.5t146 216t205 79.5q134 0 217.5 -115.5t83.5 -284.5v-28h-559q-2 -20 -2 -66zM420 1014q-83 0 -144 -91.5t-75 -263.5h407q-2 163 -52.5 259t-135.5 96z" />
    <glyph glyph-name="Ecircumflextilde" unicode="&#x1ec4;" horiz-adv-x="1007" 
d="M369 2238q-74 0 -95 -133l-10 2q7 114 50 175t110 61q28 0 55.5 -16t49.5 -38.5t43.5 -45t44 -38.5t42.5 -16q73 0 91 138l10 -3q-18 -237 -158 -237q-34 0 -68.5 23.5t-58.5 52t-53 52t-53 23.5zM248 1669l186 316q28 47 74.5 46t73.5 -46l186 -316l-6 -6l-252 217h-4
l-250 -217zM53 1536h680q98 0 135 61h6l39 -374l-8 -4q-62 94 -116.5 152t-131.5 95t-170 37q-106 0 -147 -42.5t-41 -139.5v-451h301q134 0 205 158h6v-360h-6q-92 163 -203 163h-303v-616q0 -180 209 -180q83 0 154 24t128.5 70t101 97t89.5 122l6 -4l-67 -405h-11
q-37 61 -127 61h-729v6q97 51 97 178v1168q0 134 -97 178v6z" />
    <glyph glyph-name="ecircumflextilde" unicode="&#x1ec5;" horiz-adv-x="798" 
d="M283 1724q-74 0 -95 -133l-10 2q7 114 50 175t110 61q28 0 55.5 -16t49.5 -38.5t43.5 -45t44 -38.5t42.5 -16q74 0 91 137l10 -2q-18 -237 -158 -237q-34 0 -68.5 23.5t-58.5 52t-53 52t-53 23.5zM162 1155l186 315q28 47 74.5 46t73.5 -46l186 -315l-6 -6l-252 217h-4
l-250 -217zM197 559q0 -128 30.5 -231t96.5 -168.5t157 -65.5q82 0 148 43.5t106 122.5l8 -4q-44 -137 -130.5 -212t-196.5 -75q-152 0 -257.5 134t-105.5 356q0 162 53 298.5t146 216t205 79.5q134 0 217.5 -115.5t83.5 -284.5v-28h-559q-2 -20 -2 -66zM420 1014
q-83 0 -144 -91.5t-75 -263.5h407q-2 163 -52.5 259t-135.5 96z" />
    <glyph glyph-name="Ecircumflexdotbelow" unicode="&#x1ec6;" horiz-adv-x="1007" 
d="M248 1665l186 340q27 47 76 46t74 -46l184 -340l-6 -6l-252 242h-4l-250 -242zM53 1536h680q98 0 135 61h6l39 -374l-8 -4q-62 94 -116.5 152t-131.5 95t-170 37q-106 0 -147 -42.5t-41 -139.5v-451h301q134 0 205 158h6v-360h-6q-92 163 -203 163h-303v-616
q0 -180 209 -180q83 0 154 24t128.5 70t101 97t89.5 122l6 -4l-67 -405h-11q-37 61 -127 61h-729v6q97 51 97 178v1168q0 134 -97 178v6zM508 -381q-39 0 -65.5 29.5t-26.5 70.5q0 43 26.5 73t65.5 30q40 0 67 -30t27 -73q0 -40 -27.5 -70t-66.5 -30z" />
    <glyph glyph-name="ecircumflexdotbelow" unicode="&#x1ec7;" horiz-adv-x="798" 
d="M162 1151l186 340q27 47 76 46t74 -46l184 -340l-6 -6l-252 241h-4l-250 -241zM197 559q0 -128 30.5 -231t96.5 -168.5t157 -65.5q82 0 148 43.5t106 122.5l8 -4q-44 -137 -130.5 -212t-196.5 -75q-152 0 -257.5 134t-105.5 356q0 162 53 298.5t146 216t205 79.5
q134 0 217.5 -115.5t83.5 -284.5v-28h-559q-2 -20 -2 -66zM420 1014q-83 0 -144 -91.5t-75 -263.5h407q-2 163 -52.5 259t-135.5 96zM424 -381q-38 0 -65 30t-27 70q0 43 27 73t65 30q40 0 67 -30t27 -73q0 -40 -27.5 -70t-66.5 -30z" />
    <glyph glyph-name="Ihookabove" unicode="&#x1ec8;" horiz-adv-x="456" 
d="M197 1749q0 37 13.5 65.5t32.5 46.5t38.5 35.5t33 41.5t13.5 55q0 43 -21.5 64.5t-58.5 21.5q-29 0 -48 -15.5t-28.5 -38l-19 -45t-25.5 -38t-41 -15.5q-22 0 -34.5 15t-12.5 36q0 49 60.5 90t144.5 41q83 0 137.5 -42t54.5 -111q0 -44 -24.5 -78.5t-57.5 -56.5
t-64.5 -44t-49 -53t-7.5 -71l-6 -2q-30 52 -30 98zM399 0h-344v6q44 22 70.5 68.5t26.5 109.5v1168q0 55 -25 105.5t-72 72.5v6h344v-6q-46 -22 -70 -72t-24 -106v-1168q0 -61 26.5 -108t67.5 -70v-6z" />
    <glyph glyph-name="ihookabove" unicode="&#x1ec9;" horiz-adv-x="380" 
d="M154 1235q0 37 13.5 65.5t33 46.5t38.5 35.5t32.5 41.5t13.5 55q0 43 -22.5 64.5t-59.5 21.5q-29 0 -47.5 -15.5t-28 -38t-18.5 -45t-25 -38t-41 -15.5q-23 0 -35 14.5t-12 36.5q0 49 60 90t145 41q81 0 135.5 -42t54.5 -111q0 -37 -17.5 -68t-42.5 -49.5t-53.5 -39.5
t-51 -38.5t-33.5 -45.5t-3 -62l-8 -2q-28 49 -28 98zM55 0v6q70 45 70 158v624q0 127 -72 162v6q55 0 112 26.5t97 66.5h4v-885q0 -116 58 -158v-6h-269z" />
    <glyph glyph-name="Idotbelow" unicode="&#x1eca;" horiz-adv-x="456" 
d="M399 0h-344v6q44 22 70.5 68.5t26.5 109.5v1168q0 55 -25 105.5t-72 72.5v6h344v-6q-46 -22 -70 -72t-24 -106v-1168q0 -61 26.5 -108t67.5 -70v-6zM227 -381q-38 0 -65 30t-27 70q0 43 27 73t65 30q40 0 67.5 -30t27.5 -73q0 -40 -28 -70t-67 -30z" />
    <glyph glyph-name="idotbelow" unicode="&#x1ecb;" horiz-adv-x="380" 
d="M182 1223q-38 0 -65 30.5t-27 73.5q0 44 27 75.5t65 31.5q40 0 68.5 -31.5t28.5 -75.5q0 -43 -28.5 -73.5t-68.5 -30.5zM55 0v6q70 45 70 158v624q0 127 -72 162v6q55 0 112 26.5t97 66.5h4v-885q0 -116 58 -158v-6h-269zM190 -381q-39 0 -65.5 29.5t-26.5 70.5
q0 43 26.5 73t65.5 30q40 0 67.5 -30t27.5 -73q0 -40 -28 -70t-67 -30z" />
    <glyph glyph-name="Odotbelow" unicode="&#x1ecc;" horiz-adv-x="1155" 
d="M57 768q0 215 65.5 397t185.5 292t270 110t269.5 -109.5t184 -291.5t64.5 -398q0 -215 -66 -397.5t-185.5 -292t-266.5 -109.5q-146 0 -266.5 110t-187.5 293t-67 396zM238 768q0 -360 88 -561t252 -201q165 0 251 200t86 562q0 366 -83.5 564t-253.5 198
q-169 0 -254.5 -199.5t-85.5 -562.5zM578 -381q-39 0 -67 30t-28 70q0 43 27.5 73t67.5 30q38 0 65 -30t27 -73q0 -40 -27 -70t-65 -30z" />
    <glyph glyph-name="odotbelow" unicode="&#x1ecd;" horiz-adv-x="876" 
d="M51 514q0 144 51.5 268t141 197.5t194.5 73.5q106 0 195 -73.5t139.5 -197t50.5 -268.5t-51.5 -270.5t-140.5 -200t-193 -74.5t-193.5 74.5t-141.5 200.5t-52 270zM211 514q0 -230 59.5 -371t167.5 -141q106 0 166 141t60 371q0 152 -24 263.5t-75.5 177t-126.5 65.5
q-74 0 -126 -65t-76.5 -177.5t-24.5 -263.5zM438 -381q-39 0 -66.5 30t-27.5 70q0 43 27 73t67 30q38 0 65 -30t27 -73q0 -40 -27 -70t-65 -30z" />
    <glyph glyph-name="Ohookabove" unicode="&#x1ece;" horiz-adv-x="1155" 
d="M545 1749q0 37 13.5 65.5t32.5 46.5t38.5 35.5t33 41.5t13.5 55q0 43 -21.5 64.5t-58.5 21.5q-29 0 -48 -15.5t-28.5 -38l-19 -45t-25.5 -38t-41 -15.5q-22 0 -34.5 15t-12.5 36q0 49 60 90t145 41q82 0 137 -42t55 -111q0 -37 -17.5 -68t-43 -49.5t-53.5 -39.5
t-51 -38.5t-34 -45.5t-3 -62l-9 -2q-28 49 -28 98zM57 768q0 215 65.5 397t185.5 292t270 110t269.5 -109.5t184 -291.5t64.5 -398q0 -215 -66 -397.5t-185.5 -292t-266.5 -109.5q-146 0 -266.5 110t-187.5 293t-67 396zM238 768q0 -360 88 -561t252 -201q165 0 251 200
t86 562q0 366 -83.5 564t-253.5 198q-169 0 -254.5 -199.5t-85.5 -562.5z" />
    <glyph glyph-name="ohookabove" unicode="&#x1ecf;" horiz-adv-x="876" 
d="M406 1235q0 37 13.5 65.5t33 46.5t38.5 35.5t32.5 41.5t13.5 55q0 43 -21.5 64.5t-58.5 21.5q-29 0 -48 -15.5t-28.5 -38l-19 -45t-25.5 -38t-41 -15.5q-22 0 -34.5 15t-12.5 36q0 49 60 90t145 41q82 0 137 -42t55 -111q0 -44 -24.5 -78.5t-57.5 -56.5t-64.5 -44
t-49 -53t-7.5 -71l-8 -2q-28 49 -28 98zM51 514q0 144 51.5 268t141 197.5t194.5 73.5q106 0 195 -73.5t139.5 -197t50.5 -268.5t-51.5 -270.5t-140.5 -200t-193 -74.5t-193.5 74.5t-141.5 200.5t-52 270zM211 514q0 -230 59.5 -371t167.5 -141q106 0 166 141t60 371
q0 152 -24 263.5t-75.5 177t-126.5 65.5q-74 0 -126 -65t-76.5 -177.5t-24.5 -263.5z" />
    <glyph glyph-name="Ocircumflexacute" unicode="&#x1ed0;" horiz-adv-x="1155" 
d="M791 1878q17 99 24 205t14 133q8 31 30 48.5t54 10.5q31 -6 43 -33.5t2 -58.5q-7 -27 -29 -66.5t-60 -106.5t-70 -134zM317 1669l185 316q30 48 76 46.5t73 -46.5l187 -316l-9 -6l-249 217h-7l-249 -217zM57 768q0 215 65.5 397t185.5 292t270 110t269.5 -109.5
t184 -291.5t64.5 -398q0 -215 -66 -397.5t-185.5 -292t-266.5 -109.5q-146 0 -266.5 110t-187.5 293t-67 396zM238 768q0 -360 88 -561t252 -201q165 0 251 200t86 562q0 366 -83.5 564t-253.5 198q-169 0 -254.5 -199.5t-85.5 -562.5z" />
    <glyph glyph-name="ocircumflexacute" unicode="&#x1ed1;" horiz-adv-x="876" 
d="M651 1364q17 98 24.5 204.5t14.5 133.5q8 31 30 48.5t54 10.5q31 -6 43 -33.5t2 -58.5q-7 -27 -29 -66.5t-60.5 -106.5t-70.5 -134zM178 1155l184 315q30 48 76.5 46.5t73.5 -46.5l186 -315l-8 -6l-250 217h-6l-250 -217zM51 514q0 144 51.5 268t141 197.5t194.5 73.5
q106 0 195 -73.5t139.5 -197t50.5 -268.5t-51.5 -270.5t-140.5 -200t-193 -74.5t-193.5 74.5t-141.5 200.5t-52 270zM211 514q0 -230 59.5 -371t167.5 -141q106 0 166 141t60 371q0 152 -24 263.5t-75.5 177t-126.5 65.5q-74 0 -126 -65t-76.5 -177.5t-24.5 -263.5z" />
    <glyph glyph-name="Ocircumflexgrave" unicode="&#x1ed2;" horiz-adv-x="1155" 
d="M698 2183q-8 32 3.5 59t43.5 33q31 7 53.5 -10.5t28.5 -48.5q9 -31 17 -139.5t22 -198.5l-8 -2q-32 67 -70.5 134t-60.5 106.5t-29 66.5zM317 1669l185 316q28 47 76 46t73 -46l187 -316l-9 -6l-249 217h-7l-249 -217zM57 768q0 215 65.5 397t185.5 292t270 110
t269.5 -109.5t184 -291.5t64.5 -398q0 -215 -66 -397.5t-185.5 -292t-266.5 -109.5q-146 0 -266.5 110t-187.5 293t-67 396zM238 768q0 -360 88 -561t252 -201q165 0 251 200t86 562q0 366 -83.5 564t-253.5 198q-169 0 -254.5 -199.5t-85.5 -562.5z" />
    <glyph glyph-name="ocircumflexgrave" unicode="&#x1ed3;" horiz-adv-x="876" 
d="M559 1669q-8 32 3.5 59t43.5 33q31 7 53.5 -10.5t28.5 -48.5q9 -31 17 -139.5t22 -198.5l-8 -2q-32 67 -70.5 134t-60.5 106.5t-29 66.5zM178 1155l184 315q28 47 76.5 46t73.5 -46l186 -315l-8 -6l-250 217h-6l-250 -217zM51 514q0 144 51.5 268t141 197.5t194.5 73.5
q106 0 195 -73.5t139.5 -197t50.5 -268.5t-51.5 -270.5t-140.5 -200t-193 -74.5t-193.5 74.5t-141.5 200.5t-52 270zM211 514q0 -230 59.5 -371t167.5 -141q106 0 166 141t60 371q0 152 -24 263.5t-75.5 177t-126.5 65.5q-74 0 -126 -65t-76.5 -177.5t-24.5 -263.5z" />
    <glyph glyph-name="Ocircumflexhookabove" unicode="&#x1ed4;" horiz-adv-x="1155" 
d="M815 1978q0 37 13.5 65.5t32.5 46t38.5 34.5t33 41t13.5 55q0 43 -22.5 65.5t-59.5 22.5q-29 0 -47.5 -15.5t-28 -38t-18 -45t-24.5 -38.5t-41 -17q-23 0 -35.5 15t-12.5 37q0 51 60 91t145 40q82 0 136.5 -41.5t54.5 -110.5q0 -44 -24 -78.5t-57 -57t-64.5 -45
t-48.5 -53.5t-7 -71l-8 -2q-29 50 -29 100zM317 1669l185 316q28 47 76 46t73 -46l187 -316l-9 -6l-249 217h-7l-249 -217zM57 768q0 215 65.5 397t185.5 292t270 110t269.5 -109.5t184 -291.5t64.5 -398q0 -215 -66 -397.5t-185.5 -292t-266.5 -109.5q-146 0 -266.5 110
t-187.5 293t-67 396zM238 768q0 -360 88 -561t252 -201q165 0 251 200t86 562q0 366 -83.5 564t-253.5 198q-169 0 -254.5 -199.5t-85.5 -562.5z" />
    <glyph glyph-name="ocircumflexhookabove" unicode="&#x1ed5;" horiz-adv-x="876" 
d="M676 1464q0 37 13.5 65.5t33 46t38.5 34.5t32.5 41t13.5 55q0 43 -22.5 65.5t-59.5 22.5q-29 0 -47.5 -15.5t-28 -38t-18.5 -45t-25 -38.5t-41 -17q-23 0 -35 15t-12 37q0 51 60 91t145 40q82 0 136 -41.5t54 -110.5q0 -44 -24 -78.5t-56.5 -57t-64 -45t-48.5 -53.5
t-7 -71l-8 -2q-29 50 -29 100zM178 1155l184 315q28 47 76.5 46t73.5 -46l186 -315l-8 -6l-250 217h-6l-250 -217zM51 514q0 144 51.5 268t141 197.5t194.5 73.5q106 0 195 -73.5t139.5 -197t50.5 -268.5t-51.5 -270.5t-140.5 -200t-193 -74.5t-193.5 74.5t-141.5 200.5
t-52 270zM211 514q0 -230 59.5 -371t167.5 -141q106 0 166 141t60 371q0 152 -24 263.5t-75.5 177t-126.5 65.5q-74 0 -126 -65t-76.5 -177.5t-24.5 -263.5z" />
    <glyph glyph-name="Ocircumflextilde" unicode="&#x1ed6;" horiz-adv-x="1155" 
d="M436 2238q-73 0 -94 -133l-10 2q9 114 51 175t109 61q34 0 69.5 -24t59.5 -53t53 -53t53 -24q72 0 90 138l10 -3q-15 -237 -155 -237q-34 0 -69 23.5t-59.5 52t-54 52t-53.5 23.5zM317 1669l185 316q28 47 74 46t73 -46l189 -316l-9 -6l-249 217h-7l-249 -217zM57 768
q0 215 65.5 397t185.5 292t270 110t269.5 -109.5t184 -291.5t64.5 -398q0 -215 -66 -397.5t-185.5 -292t-266.5 -109.5q-146 0 -266.5 110t-187.5 293t-67 396zM238 768q0 -360 88 -561t252 -201q165 0 251 200t86 562q0 366 -83.5 564t-253.5 198q-169 0 -254.5 -199.5
t-85.5 -562.5z" />
    <glyph glyph-name="ocircumflextilde" unicode="&#x1ed7;" horiz-adv-x="876" 
d="M297 1724q-73 0 -94 -133l-10 2q9 114 50.5 175t108.5 61q34 0 69.5 -24t60 -53t53.5 -53t53 -24q73 0 90 137l10 -2q-15 -237 -156 -237q-28 0 -55.5 15.5t-50 37.5t-44 44.5t-43.5 38t-42 15.5zM178 1155l184 315q28 47 74.5 46t73.5 -46l188 -315l-8 -6l-250 217h-6
l-250 -217zM51 514q0 144 51.5 268t141 197.5t194.5 73.5q106 0 195 -73.5t139.5 -197t50.5 -268.5t-51.5 -270.5t-140.5 -200t-193 -74.5t-193.5 74.5t-141.5 200.5t-52 270zM211 514q0 -230 59.5 -371t167.5 -141q106 0 166 141t60 371q0 152 -24 263.5t-75.5 177
t-126.5 65.5q-74 0 -126 -65t-76.5 -177.5t-24.5 -263.5z" />
    <glyph glyph-name="Ocircumflexdotbelow" unicode="&#x1ed8;" horiz-adv-x="1155" 
d="M317 1665l185 340q27 47 76 46t73 -46l187 -340l-9 -6l-249 242h-7l-249 -242zM57 768q0 215 65.5 397t185.5 292t270 110t269.5 -109.5t184 -291.5t64.5 -398q0 -215 -66 -397.5t-185.5 -292t-266.5 -109.5q-146 0 -266.5 110t-187.5 293t-67 396zM238 768
q0 -360 88 -561t252 -201q165 0 251 200t86 562q0 366 -83.5 564t-253.5 198q-169 0 -254.5 -199.5t-85.5 -562.5zM578 -381q-39 0 -67 30t-28 70q0 43 27.5 73t67.5 30q38 0 65 -30t27 -73q0 -40 -27 -70t-65 -30z" />
    <glyph glyph-name="ocircumflexdotbelow" unicode="&#x1ed9;" horiz-adv-x="876" 
d="M178 1151l184 340q27 47 76.5 46t73.5 -46l186 -340l-8 -6l-250 241h-6l-250 -241zM51 514q0 144 51.5 268t141 197.5t194.5 73.5q106 0 195 -73.5t139.5 -197t50.5 -268.5t-51.5 -270.5t-140.5 -200t-193 -74.5t-193.5 74.5t-141.5 200.5t-52 270zM211 514
q0 -230 59.5 -371t167.5 -141q106 0 166 141t60 371q0 152 -24 263.5t-75.5 177t-126.5 65.5q-74 0 -126 -65t-76.5 -177.5t-24.5 -263.5zM438 -381q-39 0 -66.5 30t-27.5 70q0 43 27 73t67 30q38 0 65 -30t27 -73q0 -40 -27 -70t-65 -30z" />
    <glyph glyph-name="Ohornacute" unicode="&#x1eda;" horiz-adv-x="1159" 
d="M672 2005q25 29 56.5 35.5t62.5 -17.5q27 -24 27 -59.5t-25 -62.5q-23 -27 -127.5 -104.5t-184.5 -149.5l-6 6q63 96 119.5 212t77.5 140zM57 768q0 215 65.5 397t185.5 292t270 110q120 0 221 -71.5t172 -199.5q74 92 90 166q-44 3 -74.5 29t-30.5 65q0 36 26 61t62 25
q37 0 65 -32.5t28 -79.5q0 -63 -41 -129.5t-119 -116.5q119 -218 119 -516q0 -215 -66 -397.5t-185.5 -292t-266.5 -109.5q-146 0 -266.5 110t-187.5 293t-67 396zM238 768q0 -360 88 -561t252 -201q165 0 251 200t86 562q0 366 -83.5 564t-253.5 198q-169 0 -254.5 -199.5
t-85.5 -562.5z" />
    <glyph glyph-name="ohornacute" unicode="&#x1edb;" horiz-adv-x="899" 
d="M526 1507q26 29 56 36t63 -17q27 -26 26.5 -61t-24.5 -62q-23 -27 -127 -105t-184 -149l-6 6q62 95 118.5 211t77.5 141zM51 514q0 144 51.5 268t141 197.5t194.5 73.5q90 0 169 -54.5t134 -150.5q72 89 88 166q-45 3 -74.5 28t-29.5 64q0 37 25.5 61.5t62.5 24.5
t64.5 -33t27.5 -78q0 -64 -40.5 -129t-119.5 -114q78 -143 78 -324q0 -145 -51.5 -270.5t-140.5 -200t-193 -74.5t-193.5 74.5t-141.5 200.5t-52 270zM211 514q0 -230 59.5 -371t167.5 -141q106 0 166 141t60 371q0 152 -24 263.5t-75.5 177t-126.5 65.5q-74 0 -126 -65
t-76.5 -177.5t-24.5 -263.5z" />
    <glyph glyph-name="Ohorngrave" unicode="&#x1edc;" horiz-adv-x="1159" 
d="M459 2005q24 -27 81 -142.5t115 -207.5l-6 -6q-66 56 -136.5 110t-112 86.5t-62.5 55.5q-24 27 -24.5 62.5t26.5 59.5q32 23 63 16.5t56 -34.5zM57 768q0 215 65.5 397t185.5 292t270 110q120 0 221 -71.5t172 -199.5q74 92 90 166q-44 3 -74.5 29t-30.5 65q0 36 26 61
t62 25q37 0 65 -32.5t28 -79.5q0 -63 -41 -129.5t-119 -116.5q119 -218 119 -516q0 -215 -66 -397.5t-185.5 -292t-266.5 -109.5q-146 0 -266.5 110t-187.5 293t-67 396zM238 768q0 -360 88 -561t252 -201q165 0 251 200t86 562q0 366 -83.5 564t-253.5 198
q-169 0 -254.5 -199.5t-85.5 -562.5z" />
    <glyph glyph-name="ohorngrave" unicode="&#x1edd;" horiz-adv-x="899" 
d="M377 1507q22 -26 79.5 -141t116.5 -209l-8 -6q-79 69 -183 147t-128 105q-23 28 -24 63t26 60q34 23 65 16t56 -35zM51 514q0 144 51.5 268t141 197.5t194.5 73.5q90 0 169 -54.5t134 -150.5q72 89 88 166q-45 3 -74.5 28t-29.5 64q0 37 25.5 61.5t62.5 24.5t64.5 -33
t27.5 -78q0 -64 -40.5 -129t-119.5 -114q78 -143 78 -324q0 -145 -51.5 -270.5t-140.5 -200t-193 -74.5t-193.5 74.5t-141.5 200.5t-52 270zM211 514q0 -230 59.5 -371t167.5 -141q106 0 166 141t60 371q0 152 -24 263.5t-75.5 177t-126.5 65.5q-74 0 -126 -65t-76.5 -177.5
t-24.5 -263.5z" />
    <glyph glyph-name="Ohornhookabove" unicode="&#x1ede;" horiz-adv-x="1159" 
d="M545 1733q0 37 13.5 65.5t32.5 46.5t38.5 35t33 41t13.5 55q0 43 -21.5 64.5t-58.5 21.5q-29 0 -48 -15.5t-28.5 -38t-19 -44.5t-25.5 -37.5t-41 -15.5q-22 0 -34.5 15t-12.5 36q0 49 60 90t145 41q82 0 137 -42.5t55 -111.5q0 -37 -17.5 -68t-43 -49.5t-53.5 -39.5
t-51 -38.5t-34 -45.5t-3 -62l-9 -2q-28 49 -28 99zM57 768q0 215 65.5 397t185.5 292t270 110q120 0 221 -71.5t172 -199.5q74 92 90 166q-44 3 -74.5 29t-30.5 65q0 36 26 61t62 25q37 0 65 -32.5t28 -79.5q0 -63 -41 -129.5t-119 -116.5q119 -218 119 -516
q0 -215 -66 -397.5t-185.5 -292t-266.5 -109.5q-146 0 -266.5 110t-187.5 293t-67 396zM238 768q0 -360 88 -561t252 -201q165 0 251 200t86 562q0 366 -83.5 564t-253.5 198q-169 0 -254.5 -199.5t-85.5 -562.5z" />
    </font>
</defs>
</svg>
