<?xml version="1.0" encoding="utf-8"?>
<!-- Generator: Adobe Illustrator 27.3.0, SVG Export Plug-In . SVG Version: 6.00 Build 0)  -->
<svg version="1.1" id="Capa_1" xmlns="http://www.w3.org/2000/svg" xmlns:xlink="http://www.w3.org/1999/xlink" x="0px" y="0px"
	 viewBox="0 0 30.4 18.8" style="enable-background:new 0 0 30.4 18.8;" xml:space="preserve">
<style type="text/css">
	.st0{fill:#46484B;}
</style>
<path class="st0" d="M0,9.6L0,9.6l0,0.2C0,9.9,0,10,0,10s0,0,0,0.1c0,0.1,0.1,0.2,0.2,0.3l0,0l0,0l8.5,8.3c0.4,0.4,1,0.4,1.4,0
	s0.4-1,0-1.4l-7-6.8l26.3-0.3c0.6,0,1-0.4,1-1c0-0.6-0.4-1-1-1L3.7,8.4l6.4-6.6c0.4-0.4,0.4-1,0-1.4C9.9,0.3,9.6,0.2,9.4,0.2
	c-0.3,0-0.5,0.1-0.7,0.3l-8,8.2C0.6,8.8,0.5,8.8,0.5,8.9L0.4,9l0,0l0,0C0.3,9.1,0.3,9.2,0.2,9.3c0,0,0,0,0,0.1
	C0.1,9.5,0.1,9.6,0,9.6z"/>
</svg>
