<?xml version="1.0" encoding="UTF-8"?>
<svg width="155px" height="29px" viewBox="0 0 155 29" version="1.1" xmlns="http://www.w3.org/2000/svg" xmlns:xlink="http://www.w3.org/1999/xlink">
    <title>BRYHEL</title>
    <g id="Page-1" stroke="none" stroke-width="1" fill="none" fill-rule="evenodd">
        <g id="services-copy-2" transform="translate(-60.000000, -26.000000)" fill="#FEF6EB" fill-rule="nonzero">
            <g id="BRYHEL" transform="translate(60.402344, 26.111816)">
                <path d="M3.02294922,28.8881836 L12.7924805,28.8881836 C14.8544922,28.8881836 16.6295573,28.5511882 18.1176758,27.8771973 C19.6057943,27.2032064 20.755249,26.2489421 21.56604,25.0144043 C22.3768311,23.7798665 22.7822266,22.3184408 22.7822266,20.630127 L22.7822266,20.5900879 C22.7822266,19.3155111 22.4852702,18.1710612 21.8913574,17.1567383 C21.2974447,16.1424154 20.4783122,15.3232829 19.43396,14.6993408 C18.3896077,14.0753988 17.1967773,13.7167155 15.8554688,13.623291 L15.8554688,13.5031738 C16.9098307,13.3563639 17.8557536,12.9876709 18.6932373,12.3970947 C19.530721,11.8065186 20.1913656,11.0624593 20.6751709,10.164917 C21.1589762,9.26737467 21.4008789,8.29475911 21.4008789,7.24707031 L21.4008789,7.20703125 C21.4008789,5.73225911 21.0421956,4.456014 20.3248291,3.3782959 C19.6074626,2.3005778 18.5898031,1.46809896 17.2718506,0.880859375 C15.9538981,0.293619792 14.3873698,0 12.5722656,0 L3.02294922,0 L3.02294922,4.49438477 L11.0107422,4.49438477 C12.4187826,4.49438477 13.5115153,4.80635579 14.2889404,5.43029785 C15.0663656,6.05423991 15.4550781,6.94010417 15.4550781,8.08789062 L15.4550781,8.12792969 C15.4550781,9.33577474 15.0146484,10.2750244 14.1337891,10.9456787 C13.2529297,11.616333 12.0050456,11.9516602 10.3901367,11.9516602 L3.02294922,11.9516602 L3.02294922,16.0556641 L11.1008301,16.0556641 C12.2953288,16.0556641 13.3013102,16.2124837 14.1187744,16.526123 C14.9362386,16.8397624 15.5551758,17.3018799 15.9755859,17.9124756 C16.3959961,18.5230713 16.6062012,19.2788086 16.6062012,20.1796875 L16.6062012,20.2197266 C16.6062012,21.5743815 16.145752,22.608724 15.2248535,23.3227539 C14.3039551,24.0367839 12.9759928,24.3937988 11.2409668,24.3937988 L3.02294922,24.3937988 L3.02294922,28.8881836 Z M0,28.8881836 L6.04589844,28.8881836 L6.04589844,0 L0,0 L0,28.8881836 Z" id="Shape"></path>
                <path d="M26.5859375,28.8881836 L32.6318359,28.8881836 L32.6318359,18.4279785 L37.1762695,18.4279785 C37.2296549,18.4279785 37.2813721,18.4279785 37.3314209,18.4279785 C37.3814697,18.4279785 37.4298503,18.4279785 37.4765625,18.4279785 L42.8518066,28.8881836 L49.7084961,28.8881836 L43.6225586,17.5170898 C45.2241211,16.8898112 46.4953613,15.8371175 47.4362793,14.3590088 C48.3771973,12.8809001 48.8476562,11.190918 48.8476562,9.2890625 L48.8476562,9.24902344 C48.8476562,7.31380208 48.4372559,5.65718587 47.6164551,4.2791748 C46.7956543,2.90116374 45.614502,1.84346517 44.072998,1.1060791 C42.5314941,0.368693034 40.6763509,0 38.5075684,0 L26.5859375,0 L26.5859375,28.8881836 Z M32.6318359,13.8435059 L32.6318359,4.73461914 L37.7768555,4.73461914 C39.264974,4.73461914 40.4511312,5.14168294 41.3353271,5.95581055 C42.2195231,6.76993815 42.6616211,7.87101237 42.6616211,9.2590332 L42.6616211,9.29907227 C42.6616211,10.7137858 42.2362061,11.8248698 41.385376,12.6323242 C40.5345459,13.4397786 39.3583984,13.8435059 37.8569336,13.8435059 L32.6318359,13.8435059 Z" id="Shape"></path>
                <polygon id="Path" points="61.3999023 28.8881836 67.4458008 28.8881836 67.4458008 18.0976562 77.5056152 0 70.9692383 0 64.4929199 12.342041 64.3527832 12.342041 57.8764648 0 51.3400879 0 61.3999023 18.0976562"></polygon>
                <polygon id="Path" points="80.8188477 28.8881836 86.8647461 28.8881836 86.8647461 16.7263184 99.8774414 16.7263184 99.8774414 28.8881836 105.92334 28.8881836 105.92334 0 99.8774414 0 99.8774414 11.7414551 86.8647461 11.7414551 86.8647461 0 80.8188477 0"></polygon>
                <polygon id="Path" points="111.088379 28.8881836 130.227051 28.8881836 130.227051 23.9033203 117.134277 23.9033203 117.134277 16.6462402 129.486328 16.6462402 129.486328 11.9216309 117.134277 11.9216309 117.134277 4.98486328 130.227051 4.98486328 130.227051 0 111.088379 0"></polygon>
                <polygon id="Path" points="134.94165 28.8881836 153.619873 28.8881836 153.619873 23.9033203 140.987549 23.9033203 140.987549 0 134.94165 0"></polygon>
            </g>
        </g>
    </g>
</svg>