<?xml version="1.0" encoding="utf-8"?>
<!-- Generator: Adobe Illustrator 27.3.0, SVG Export Plug-In . SVG Version: 6.00 Build 0)  -->
<svg version="1.1" id="Capa_1" xmlns="http://www.w3.org/2000/svg" xmlns:xlink="http://www.w3.org/1999/xlink" x="0px" y="0px"
	 viewBox="0 0 155 29" style="enable-background:new 0 0 155 29;" xml:space="preserve">
<style type="text/css">
	.st0{fill:#1C1C1C;}
</style>
<g id="Page-1">
	<g id="services-copy-2" transform="translate(-60.000000, -26.000000)">
		<g id="BRYHEL" transform="translate(60.402344, 26.111816)">
			<path id="Shape" class="st0" d="M3,28.9h9.8c2.1,0,3.8-0.3,5.3-1s2.6-1.6,3.4-2.9s1.2-2.7,1.2-4.4v0c0-1.3-0.3-2.4-0.9-3.4
				s-1.4-1.8-2.5-2.5s-2.2-1-3.6-1.1v-0.1c1.1-0.1,2-0.5,2.8-1.1s1.5-1.3,2-2.2s0.7-1.9,0.7-2.9v0c0-1.5-0.4-2.8-1.1-3.8
				s-1.7-1.9-3.1-2.5S14.4,0,12.6,0H3v4.5h8c1.4,0,2.5,0.3,3.3,0.9s1.2,1.5,1.2,2.7v0c0,1.2-0.4,2.1-1.3,2.8s-2.1,1-3.7,1H3v4.1h8.1
				c1.2,0,2.2,0.2,3,0.5s1.4,0.8,1.9,1.4s0.6,1.4,0.6,2.3v0c0,1.4-0.5,2.4-1.4,3.1s-2.2,1.1-4,1.1H3V28.9z M0,28.9h6V0H0V28.9z"/>
			<path id="Shape_00000129886957900642806910000007770133832058983865_" class="st0" d="M26.6,28.9h6V18.4h4.5c0.1,0,0.1,0,0.2,0
				s0.1,0,0.1,0l5.4,10.5h6.9l-6.1-11.4c1.6-0.6,2.9-1.7,3.8-3.2s1.4-3.2,1.4-5.1v0c0-1.9-0.4-3.6-1.2-5s-2-2.4-3.5-3.2
				S40.7,0,38.5,0H26.6V28.9z M32.6,13.8V4.7h5.1c1.5,0,2.7,0.4,3.6,1.2s1.3,1.9,1.3,3.3v0c0,1.4-0.4,2.5-1.3,3.3s-2,1.2-3.5,1.2
				H32.6z"/>
			<polygon id="Path" class="st0" points="61.4,28.9 67.4,28.9 67.4,18.1 77.5,0 71,0 64.5,12.3 64.4,12.3 57.9,0 51.3,0 61.4,18.1 
							"/>
			<polygon id="Path_00000173154288914177467000000017856322440383004562_" class="st0" points="80.8,28.9 86.9,28.9 86.9,16.7 
				99.9,16.7 99.9,28.9 105.9,28.9 105.9,0 99.9,0 99.9,11.7 86.9,11.7 86.9,0 80.8,0 			"/>
			<polygon id="Path_00000114064402071866584820000000041141587031060129_" class="st0" points="111.1,28.9 130.2,28.9 130.2,23.9 
				117.1,23.9 117.1,16.6 129.5,16.6 129.5,11.9 117.1,11.9 117.1,5 130.2,5 130.2,0 111.1,0 			"/>
			<polygon id="Path_00000170969983427954004070000003722005365742638503_" class="st0" points="134.9,28.9 153.6,28.9 153.6,23.9 
				141,23.9 141,0 134.9,0 			"/>
		</g>
	</g>
</g>
</svg>
