<?xml version="1.0" standalone="no"?>
<!DOCTYPE svg PUBLIC "-//W3C//DTD SVG 20010904//EN"
 "http://www.w3.org/TR/2001/REC-SVG-20010904/DTD/svg10.dtd">
<svg version="1.0" xmlns="http://www.w3.org/2000/svg"
 width="500.000000pt" height="500.000000pt" viewBox="0 0 500.000000 500.000000"
 preserveAspectRatio="xMidYMid meet">
<metadata>
Created by potrace 1.14, written by Peter Selinger 2001-2017
</metadata>
<g transform="translate(0.000000,500.000000) scale(0.100000,-0.100000)"
fill="#000000" stroke="none">
<path d="M551 4955 c-4 -5 -7 -1117 -7 -2470 l1 -2460 1215 0 c668 0 1235 4
1260 8 25 4 68 9 95 12 52 5 90 12 90 16 0 1 11 3 25 4 91 8 283 68 422 131
86 39 231 122 236 136 2 4 8 8 14 8 23 0 184 147 251 230 61 75 117 157 117
171 0 5 5 9 10 9 6 0 10 4 10 10 0 5 13 37 29 70 25 50 51 116 56 140 1 3 7
25 15 50 17 56 19 66 25 110 3 19 8 42 10 51 17 54 24 309 11 414 -6 51 -19
120 -31 160 -1 6 -6 25 -10 43 -4 18 -11 35 -16 38 -4 2 -6 11 -2 19 3 8 1 15
-4 15 -6 0 -15 17 -21 38 -16 51 -96 185 -160 264 -100 126 -257 250 -412 326
-41 20 -79 37 -85 39 -5 1 -42 13 -81 27 -39 14 -80 27 -90 29 -10 1 -25 6
-31 10 -7 5 -13 6 -13 4 0 -2 -19 0 -42 4 -45 10 -130 20 -160 20 -10 0 -18 4
-18 9 0 10 24 19 69 26 50 7 187 51 241 77 25 12 47 22 50 22 6 1 52 29 92 56
15 11 30 19 33 19 4 0 12 6 19 13 7 6 28 23 46 37 32 24 113 105 165 165 35
40 125 186 125 202 0 7 5 13 12 13 6 0 8 3 5 7 -4 3 -1 16 6 27 11 17 38 93
42 116 0 3 4 11 8 18 5 6 6 12 3 12 -2 0 0 15 5 33 17 55 22 107 22 242 0 159
-8 242 -37 349 -33 119 -123 304 -173 354 -7 7 -13 17 -13 21 0 16 -153 163
-225 217 -94 69 -284 169 -335 175 -3 1 -13 5 -24 11 -25 13 -172 55 -220 62
-21 4 -41 8 -45 10 -3 2 -28 7 -56 11 -27 4 -61 8 -75 10 -14 2 -69 7 -124 10
-54 4 -107 8 -117 10 -10 2 -21 -1 -24 -6 -4 -5 -11 -6 -17 -3 -19 12 -2159
10 -2167 -1z m2029 -768 c141 -16 283 -64 375 -127 98 -67 198 -209 211 -300
3 -19 9 -49 14 -67 12 -47 4 -241 -13 -298 -41 -142 -113 -242 -234 -326 -105
-73 -299 -135 -454 -144 -20 -1 -41 -5 -47 -9 -6 -3 -13 -2 -17 4 -3 6 -14 7
-23 2 -9 -4 -195 -7 -412 -7 l-395 1 -5 150 c-3 82 -4 370 -2 639 l2 490 478
-2 c262 0 497 -3 522 -6z m65 -1981 c17 -3 53 -8 80 -11 28 -3 64 -10 80 -15
17 -5 41 -11 55 -14 40 -7 142 -45 167 -61 13 -9 23 -13 23 -10 0 10 113 -71
156 -111 23 -22 55 -59 72 -84 31 -45 86 -160 77 -160 -3 0 -1 -9 4 -19 23
-43 35 -287 17 -363 -3 -16 -8 -38 -10 -51 -2 -12 -10 -38 -18 -57 -8 -19 -15
-39 -16 -43 -4 -43 -116 -182 -202 -251 -31 -25 -157 -85 -220 -105 -74 -23
-111 -31 -225 -48 -22 -3 -280 -7 -572 -9 l-533 -3 0 92 c-2 640 0 1319 4
1325 5 8 1011 6 1061 -2z"/>
</g>
</svg>
